<svg width="67" height="67" viewBox="0 0 67 67" fill="none" xmlns="http://www.w3.org/2000/svg">
<path d="M66 40.7657C66 43.0143 65.0836 45.1796 63.5008 46.762L46.7562 63.5016C43.4239 66.8328 38.009 66.8328 34.6767 63.5016L3.52003 32.3543C1.68728 30.5221 0.854213 28.0237 1.02083 25.5252L2.52035 10.2014C2.93688 6.12063 6.10253 2.95594 10.1846 2.53953L25.4297 1.04047C27.9289 0.790622 30.5114 1.70672 32.2608 3.53891L63.5008 34.6862C65.0836 36.2685 66 38.5171 66 40.7657ZM2.93688 26.2747C2.93688 28.0237 3.60333 29.6893 4.85293 30.9385L36.0096 62.1691C38.5921 64.7508 42.8408 64.7508 45.4233 62.1691L62.1679 45.4295C64.7504 42.8478 64.7504 38.6004 62.1679 36.0187L31.0112 4.87141C29.595 3.45563 27.6789 2.78938 25.6796 2.95594L10.4345 4.45501C7.26882 4.78813 4.76963 7.28657 4.4364 10.4513L2.93688 25.6918C2.93688 25.8583 2.93688 26.1082 2.93688 26.2747Z" fill="black" stroke="black" stroke-width="1.5"/>
<path d="M28.8496 21.8233C28.8496 25.7168 25.7017 28.7819 21.8082 28.7819C17.9147 28.7819 14.8496 25.6339 14.8496 21.7404C14.8496 17.847 17.9975 14.7819 21.891 14.7819C23.7135 14.7819 25.536 15.5274 26.7786 16.8529C28.104 18.1783 28.8496 20.0008 28.8496 21.8233ZM16.7549 21.8233C16.7549 24.6398 19.0745 26.9594 21.891 26.9594C24.7076 26.9594 27.0271 24.6398 27.0271 21.8233C27.0271 20.4978 26.5301 19.1724 25.536 18.1783C23.5478 16.1901 20.3171 16.1901 18.3289 18.1783C17.252 19.1724 16.7549 20.4978 16.7549 21.8233Z" fill="black" stroke="black" stroke-width="1.5"/>
</svg>
