<svg width="67" height="67" viewBox="0 0 67 67" fill="none" xmlns="http://www.w3.org/2000/svg">
<path d="M64.9167 8.80411H60.5833V2.30457C60.5855 1.5867 60.1022 1.00255 59.5038 1.00012C59.4721 0.999953 59.4406 1.00158 59.409 1.00466L56.5826 1.29064C49.7285 1.97082 43.0058 3.93774 36.6601 7.11943L33.5 8.69621L30.3432 7.12463C23.9967 3.94245 17.2733 1.97521 10.4185 1.29454L7.591 1.00466C6.99476 0.944382 6.4707 1.47539 6.42046 2.19083C6.41775 2.22869 6.41653 2.26671 6.41667 2.30457V8.80411H2.08333C1.48506 8.80411 1 9.38614 1 10.104V64.7001C1 65.418 1.48506 66 2.08333 66H64.9167C65.5149 66 66 65.418 66 64.7001V10.104C66 9.38614 65.5149 8.80411 64.9167 8.80411ZM3.16667 63.4028V11.4039H6.41667V56.9007C6.41464 57.5776 6.8458 58.143 7.40792 58.2006L10.3232 58.4995C11.1177 58.5793 11.912 58.6776 12.7065 58.7946C12.9719 58.8323 13.2352 58.883 13.5006 58.9246C14.026 59.0091 14.5514 59.0936 15.0747 59.1937C15.3867 59.2535 15.6976 59.3237 16.0085 59.39C16.483 59.4901 16.9575 59.5902 17.4298 59.702C17.7548 59.7799 18.0798 59.8657 18.4048 59.9502C18.8609 60.0672 19.317 60.1868 19.7709 60.3168C20.0959 60.4104 20.4263 60.5105 20.7535 60.6106C21.2009 60.7484 21.6472 60.8888 22.0925 61.037C22.4175 61.1461 22.7425 61.2605 23.0675 61.3749C23.5095 61.5317 23.9504 61.6947 24.3903 61.8637C24.7124 61.9867 25.0338 62.1133 25.3544 62.2433C25.7975 62.4214 26.2373 62.6085 26.6772 62.7996C26.9892 62.9296 27.3023 63.0713 27.6121 63.213C27.7464 63.2741 27.8797 63.343 28.0129 63.4028H3.16667ZM32.4167 62.7502L30.419 61.7493C24.0774 58.5613 17.3581 56.5874 10.5063 55.8997L8.58333 55.7073V3.71887L10.2365 3.88526C16.8673 4.54269 23.371 6.4451 29.5101 9.52295L32.4167 10.971V62.7502ZM34.5833 62.7502V10.971L37.4932 9.52165C43.6312 6.44445 50.1338 4.54252 56.7635 3.88526L58.4167 3.71887V55.7034L56.6367 55.8776C49.7807 56.5606 43.0554 58.5228 36.7034 61.6934L34.5833 62.7502ZM63.8333 63.4002H39.0033C39.1518 63.3313 39.2991 63.2585 39.4475 63.1909C39.7725 63.0414 40.0975 62.8997 40.4301 62.758C40.8548 62.5734 41.2812 62.3945 41.7095 62.2212C42.0432 62.0912 42.379 61.9612 42.7138 61.8312C43.1417 61.6674 43.5718 61.5114 44.0018 61.358C44.3398 61.2384 44.6789 61.1202 45.018 61.0084C45.4513 60.8628 45.8847 60.7263 46.3288 60.5924C46.6647 60.4897 47.0016 60.387 47.3396 60.2908C47.7903 60.1608 48.2442 60.0438 48.6981 59.9281C49.0231 59.8436 49.3481 59.7565 49.6796 59.6786C50.1563 59.5655 50.6351 59.4654 51.1128 59.3653C51.4227 59.3003 51.7314 59.2353 52.0423 59.1703C52.5764 59.0689 53.1116 58.9818 53.6478 58.896C53.9046 58.8557 54.1613 58.8063 54.4192 58.766C55.2137 58.6508 56.0121 58.5523 56.8144 58.4709L59.5888 58.2006C60.1522 58.145 60.5852 57.5789 60.5833 56.9007V11.4039H63.8333V63.4002Z" fill="black" stroke="black" stroke-width="0.5"/>
</svg>
