<svg width="65" height="65" viewBox="0 0 65 65" fill="none" xmlns="http://www.w3.org/2000/svg">
<g clip-path="url(#clip0_1_10819)">
<path d="M48.3438 12.8646C46.8542 12.4584 43.4688 11.375 39.4063 10.0209L44.9583 2.30212L35.8854 0.677124L24.1042 5.41671C19.9063 4.19796 16.3854 3.25004 14.7604 2.97921C4.19792 1.08337 0.8125 8.80212 0.677083 8.93754L0.40625 9.47921L0.8125 10.1563C0.947917 10.2917 2.57292 14.3542 10.0208 15.7084C4.19792 20.9896 0.8125 28.4375 0.8125 36.4271C0.8125 51.8646 13.4063 64.323 28.7083 64.323C44.0104 64.323 56.6042 51.7292 56.6042 36.4271C56.6042 31.9584 55.5208 27.4896 53.4896 23.5625L64.5938 8.26046L54.8438 6.50004L48.3438 12.8646ZM36.1563 3.52087L40.2188 4.19796L36.6979 9.20837C33.9896 8.39587 31.1458 7.44796 28.3021 6.63546L36.1563 3.52087ZM15.8438 16.7917L17.4688 19.6355L17.0625 19.5C16.6563 19.3646 16.25 19.3646 15.8438 19.2292C15.1667 18.9584 14.625 18.5521 14.0833 18.1459L12.7292 17.198C13 16.9271 13.4063 16.6563 13.6771 16.5209L15.8438 16.7917ZM29.3854 19.2292L31.1458 29.9271L25.7292 28.9792L19.2292 17.4688L29.3854 19.2292ZM27.625 36.8334C27.8958 37.7813 28.3021 38.5938 28.7083 39.4063C29.25 40.4896 29.7917 41.3021 29.6563 42.1146C29.5208 43.3334 27.8958 44.1459 27.2188 44.4167C26.8125 44.5521 26.2708 44.823 25.8646 44.9584C24.7813 45.3646 23.5625 45.7709 22.4792 46.5834C21.125 47.5313 20.3125 48.8855 19.5 50.2396C19.3646 50.375 19.2292 50.6459 19.0938 50.7813C19.0938 50.7813 18.9583 50.7813 18.6875 50.9167C18.0104 51.0521 17.1979 50.9167 16.25 50.9167C15.4375 50.9167 14.4896 50.7813 13.5417 50.9167C12.3229 50.9167 10.8333 51.7292 10.0208 52.8125C10.0208 52.948 9.88542 52.948 9.88542 53.0834C9.75 52.948 9.61458 52.8125 9.47917 52.6771L13.4062 47.8021C15.5729 45.0938 14.8958 43.3334 14.2188 42.5209C14.0833 42.3855 13.8125 42.1146 13.6771 41.9792C13.5417 41.9792 13.5417 41.8438 13.4062 41.8438C13.2708 41.7084 13.4063 40.8959 13.9479 40.0834C14.7604 39 15.8438 37.2396 15.1667 35.4792C14.7604 34.3959 13.8125 33.7188 13 33.3125C12.5938 33.0417 12.3229 32.9063 12.0521 32.6355C11.2396 31.823 11.5104 30.0625 11.9167 28.3021C12.1875 27.0834 13.2708 23.4271 10.8333 21.3959C10.6979 21.2605 10.4271 21.125 10.2917 20.9896C10.0208 20.8542 9.61458 20.448 9.61458 20.3125C9.61458 20.448 9.75 20.5834 9.61458 20.7188L9.34375 20.3125C9.75 19.9063 10.1563 19.3646 10.5625 18.9584L12.3229 20.3125C13 20.8542 13.8125 21.3959 14.7604 21.8021C15.3021 22.073 15.8438 22.073 16.3854 22.2084L18.9583 22.75V22.6146L23.9688 31.4167L27.8958 32.0938C27.625 33.448 27.2188 35.2084 27.625 36.8334ZM7.98958 22.2084C8.26042 22.4792 8.53125 22.75 8.80208 22.8855C8.9375 23.0209 9.07292 23.0209 9.20833 23.1563C9.88542 23.8334 10.0208 25.1875 9.47917 27.3542C9.07292 28.9792 8.26042 32.2292 10.1562 34.2605C10.5625 34.6667 11.1042 35.073 11.6458 35.3438C12.1875 35.6146 12.5938 35.8855 12.7292 36.1563C12.8646 36.698 12.3229 37.6459 11.7812 38.323C10.4271 40.2188 10.2917 42.1146 11.375 43.3334C11.5104 43.4688 11.7813 43.7396 11.9167 43.875C12.0521 43.875 12.0521 44.0105 12.1875 44.0105C12.3229 44.1459 12.1875 44.823 11.375 45.9063L7.85417 50.2396C5.14583 46.1771 3.65625 41.4375 3.65625 36.2917C3.52083 31.2813 5.14583 26.2709 7.98958 22.2084ZM11.9167 55.1146C11.9167 54.9792 11.9167 54.7084 12.1875 54.4375C12.5938 53.8959 13.4062 53.4896 14.0833 53.4896C14.7604 53.3542 15.4375 53.4896 16.25 53.4896C17.1979 53.625 18.2812 53.625 19.2292 53.4896C19.6354 53.4896 20.1771 53.3542 20.5833 52.948C21.125 52.5417 21.5313 52 21.8021 51.5938C22.4792 50.375 23.1563 49.4271 24.1042 48.75C24.7813 48.2084 25.7292 47.9375 26.6771 47.5313C27.2188 47.3959 27.625 47.125 28.1667 46.9896C30.4688 46.0417 31.8229 44.4167 32.2292 42.6563C32.5 40.8959 31.6875 39.5417 31.0104 38.1875C30.6042 37.5105 30.3333 36.8334 30.1979 36.2917C29.9271 35.2084 30.1979 33.8542 30.4688 32.6355L34.3958 33.3125L32.0938 19.7709L48.3438 22.75C46.8542 23.0209 45.2292 23.5625 44.4167 25.1875C44.2813 25.323 44.2812 25.5938 44.1458 25.7292C44.0104 25.8646 44.0104 26.1355 44.0104 26.1355C43.875 26.4063 43.4688 26.5417 42.9271 26.8125C42.6563 26.948 42.3854 27.0834 42.1146 27.2188C41.3021 27.7605 40.625 28.573 40.3542 29.5209C40.3542 29.7917 40.3542 29.9271 40.3542 30.198C40.0833 30.4688 39.6771 30.6042 39.2708 30.875C38.8646 31.0105 38.4583 31.2813 38.0521 31.5521C36.5625 32.5 35.2083 34.2605 35.8854 36.1563C36.1563 36.9688 36.6979 37.5105 37.1042 37.9167C37.2396 38.1875 37.6458 38.4584 37.6458 38.5938C37.6458 38.7292 37.5104 39 37.375 39.1355C37.2396 39.4063 36.9688 39.8125 36.8333 40.2188C36.0208 42.25 37.2396 44.1459 37.9167 45.0938C38.4583 45.9063 39.2708 46.9896 40.3542 47.6667C40.625 47.8021 40.8958 47.9375 41.1667 48.073C41.3021 48.2084 41.5729 48.2084 41.7083 48.3438C42.5208 48.75 42.9271 49.9688 43.3333 51.0521L43.6042 51.5938C44.1458 53.0834 44.9583 54.3021 46.0417 54.9792C41.5729 59.1771 35.4792 61.8855 28.8438 61.8855C22.3438 61.6146 16.3854 59.1771 11.9167 55.1146ZM47.9375 52.6771C47.125 52.5417 46.4479 51.4584 46.0417 50.5105L45.9063 49.9688C45.3646 48.4792 44.6875 46.7188 43.0625 45.7709C42.7917 45.6355 42.5208 45.5 42.25 45.3646C42.1146 45.2292 41.8438 45.2292 41.7083 45.0938C41.1667 44.823 40.625 44.0105 40.2188 43.3334C39.6771 42.5209 39.1354 41.573 39.4063 41.0313C39.4063 40.8959 39.5417 40.7605 39.6771 40.4896C39.9479 40.0834 40.4896 39.4063 40.4896 38.5938C40.4896 37.375 39.6771 36.5625 39.1354 35.8855C38.8646 35.6146 38.5938 35.3438 38.4583 35.073C38.3229 34.8021 38.8646 34.125 39.5417 33.7188C39.8125 33.5834 40.2188 33.3125 40.4896 33.1771C41.3021 32.7709 42.25 32.3646 42.9271 31.5521L43.6042 30.7396L43.0625 29.9271C43.0625 29.7917 43.3333 29.6563 43.4688 29.5209C43.6042 29.3855 43.875 29.25 44.0104 29.25C44.6875 28.9792 45.5 28.573 46.0417 27.625C46.3125 27.3542 46.4479 26.948 46.4479 26.6771C46.4479 26.5417 46.5833 26.4063 46.5833 26.2709C47.125 25.323 48.6146 24.9167 51.0521 25.1875C52.6771 28.573 53.625 32.3646 53.625 36.1563C54.0313 42.6563 51.7292 48.3438 47.9375 52.6771ZM60.2604 10.1563L52.4063 20.7188L10.4271 13.1355C3.79167 11.7813 5.41667 10.8334 4.19792 9.47921C4.73958 8.66671 5.55208 7.44796 7.17708 6.50004C7.85417 7.58337 9.20833 8.93754 11.375 9.61462L12.1875 7.04171C11.1042 6.63546 10.2917 6.09379 9.88542 5.55212C11.1042 5.28129 12.5938 5.28129 14.3542 5.68754C20.0417 6.77087 47.9375 15.7084 48.2083 15.7084L48.8854 15.9792L55.6563 9.47921L60.2604 10.1563Z" fill="black"/>
</g>
<defs>
<clipPath id="clip0_1_10819">
<rect width="65" height="65" fill="white"/>
</clipPath>
</defs>
</svg>
