<svg width="527" height="362" viewBox="0 0 527 362" fill="none" xmlns="http://www.w3.org/2000/svg">
<path d="M94.6031 314.598V321.394H157.976V314.598H94.6031Z" fill="#E0E0E0"/>
<path d="M103.271 314.87C103.496 314.87 103.608 316.32 103.608 318.041C103.608 319.763 103.496 321.304 103.271 321.304C103.045 321.304 102.82 319.854 102.82 318.041C102.82 316.229 103.045 314.87 103.271 314.87Z" fill="#FAFAFA"/>
<path d="M101.807 314.689C102.032 314.689 102.257 316.139 102.257 317.951C102.257 319.763 102.032 321.123 101.807 321.123C101.582 321.123 101.469 319.673 101.469 317.951C101.469 316.229 101.582 314.689 101.807 314.689Z" fill="#FAFAFA"/>
<path d="M153.023 314.87C153.248 314.87 153.473 316.32 153.473 318.041C153.473 319.763 153.248 321.304 153.023 321.304C152.798 321.304 152.685 319.854 152.685 318.041C152.685 316.229 152.798 314.87 153.023 314.87Z" fill="#FAFAFA"/>
<path d="M151.672 314.689C151.898 314.689 152.123 316.139 152.123 317.951C152.123 319.763 151.898 321.123 151.672 321.123C151.447 321.123 151.335 319.673 151.335 317.951C151.335 316.229 151.447 314.689 151.672 314.689Z" fill="#FAFAFA"/>
<path d="M143.455 318.223C143.455 318.404 136.139 318.495 127.246 318.495C118.354 318.495 110.925 318.404 110.925 318.223C110.925 318.042 118.241 317.86 127.246 317.86C136.251 317.86 143.455 318.042 143.455 318.223Z" fill="#FAFAFA"/>
<path d="M94.2654 345.318V358.911H157.638V345.318H94.2654Z" fill="#E0E0E0"/>
<path d="M158.539 355.105H158.201L157.075 355.558C155.693 356.001 154.261 356.335 152.798 356.554C150.423 356.879 147.981 356.593 145.819 355.739C144.499 355.15 143.378 354.31 142.555 353.292C141.568 352.157 141.128 350.772 141.316 349.396C141.517 348.631 141.941 347.917 142.555 347.311C142.88 346.996 143.296 346.748 143.767 346.591C144.237 346.433 144.748 346.369 145.256 346.405C145.767 346.442 146.262 346.566 146.709 346.769C147.155 346.972 147.543 347.25 147.845 347.583C148.527 348.223 148.958 349.012 149.083 349.849C149.175 350.74 149.032 351.636 148.664 352.479C148.295 353.323 147.709 354.094 146.945 354.742C145.302 356.052 143.162 356.881 140.866 357.098C138.465 357.267 136.047 357.02 133.775 356.373C131.341 355.779 129.185 354.611 127.584 353.02C126.759 352.187 126.251 351.18 126.121 350.121C126.063 349.559 126.153 348.995 126.386 348.464C126.619 347.932 126.989 347.447 127.471 347.04C128.053 346.655 128.753 346.404 129.497 346.315C130.211 346.315 130.912 346.472 131.524 346.768C132.725 347.429 133.57 348.433 133.887 349.577C134.147 350.661 134.055 351.781 133.621 352.828C133.188 353.876 132.427 354.816 131.411 355.558C129.359 356.909 126.848 357.73 124.207 357.914C121.74 358.118 119.247 357.902 116.89 357.279C114.532 356.761 112.515 355.526 111.262 353.836C110.62 353.04 110.214 352.135 110.077 351.192C109.941 350.248 110.076 349.293 110.474 348.399C110.693 347.951 111.043 347.553 111.493 347.238C111.944 346.922 112.483 346.699 113.063 346.586C113.632 346.504 114.216 346.518 114.778 346.627C115.34 346.736 115.868 346.938 116.328 347.221C117.117 347.786 117.677 348.528 117.938 349.351C118.199 350.175 118.148 351.042 117.791 351.842C117.216 353.278 116.117 354.541 114.639 355.467C112.19 357.102 109.15 358.056 105.972 358.186C103.549 358.25 101.146 357.813 98.993 356.917C97.6734 356.371 96.4904 355.634 95.5036 354.742C95.1742 354.553 94.9044 354.305 94.7157 354.017C94.4905 353.927 94.4905 353.836 94.4905 353.836C95.8372 354.999 97.4402 355.952 99.2182 356.645C101.262 357.507 103.555 357.914 105.859 357.823C108.971 357.701 111.943 356.744 114.302 355.105C115.648 354.192 116.66 353.002 117.228 351.661C117.551 350.966 117.595 350.208 117.352 349.492C117.11 348.776 116.594 348.14 115.877 347.674C115.512 347.451 115.094 347.288 114.65 347.194C114.206 347.101 113.743 347.079 113.288 347.13C112.817 347.223 112.379 347.402 112.008 347.654C111.638 347.905 111.344 348.222 111.15 348.58C110.785 349.382 110.656 350.242 110.773 351.091C110.891 351.94 111.251 352.755 111.825 353.473C113.022 355.053 114.909 356.217 117.116 356.736C119.402 357.332 121.822 357.518 124.207 357.279C126.656 357.157 128.988 356.393 130.848 355.105C131.776 354.433 132.472 353.579 132.866 352.626C133.261 351.672 133.341 350.653 133.099 349.667C132.87 348.71 132.183 347.864 131.186 347.311C130.703 347.071 130.139 346.96 129.574 346.992C129.008 347.025 128.469 347.2 128.034 347.493C127.633 347.827 127.325 348.226 127.131 348.663C126.937 349.101 126.861 349.567 126.909 350.03C126.997 351 127.47 351.921 128.259 352.658C129.765 354.128 131.754 355.227 134 355.83C136.152 356.486 138.472 356.704 140.754 356.464C142.909 356.354 144.927 355.574 146.382 354.289C147.098 353.729 147.651 353.049 148.001 352.297C148.351 351.545 148.49 350.74 148.408 349.939C148.375 349.205 148.034 348.501 147.441 347.942C146.849 347.382 146.039 347.001 145.144 346.858C144.735 346.861 144.332 346.935 143.963 347.076C143.593 347.217 143.266 347.421 143.005 347.674C142.477 348.208 142.093 348.825 141.879 349.486C141.687 350.752 142.045 352.033 142.892 353.111C143.711 354.052 144.79 354.828 146.044 355.376C148.114 356.26 150.484 356.578 152.798 356.283C154.263 356.116 155.698 355.812 157.075 355.376L158.539 355.105Z" fill="#FAFAFA"/>
<path d="M99.8934 321.576V345.227H157.604V321.576H99.8934Z" fill="#EBEBEB"/>
<path d="M109.574 322.391C109.799 322.391 109.912 327.556 109.912 333.9C109.912 340.243 109.799 345.318 109.574 345.318C109.349 345.318 109.124 340.152 109.124 333.9C109.124 327.647 109.349 322.391 109.574 322.391Z" fill="#E0E0E0"/>
<path d="M113.964 322.12C114.189 322.12 114.301 327.194 114.301 333.447C114.301 339.699 114.189 344.684 113.964 344.684C113.739 344.684 113.514 339.699 113.514 333.447C113.514 327.194 113.739 322.12 113.964 322.12Z" fill="#E0E0E0"/>
<path d="M151.11 321.394C151.335 321.394 151.56 326.65 151.56 333.265C151.56 339.881 151.335 345.136 151.11 345.136C150.885 345.136 150.772 339.79 150.772 333.265C150.772 326.741 150.997 321.394 151.11 321.394Z" fill="#E0E0E0"/>
<path d="M146.044 321.666C146.269 321.666 146.382 326.832 146.382 333.266C146.382 339.699 146.269 344.865 146.044 344.865C145.819 344.865 145.594 339.699 145.594 333.266C145.594 326.832 145.819 321.666 146.044 321.666Z" fill="#E0E0E0"/>
<path d="M456.717 270.014C462.682 267.476 469.661 267.205 476.302 268.02C479.904 268.564 483.619 269.379 486.095 271.554C488.572 273.729 488.909 277.535 486.208 279.348C483.506 281.16 482.156 280.616 480.017 280.616C474.839 280.526 469.098 279.801 464.934 282.338C462.57 283.788 460.994 286.144 458.18 286.869C455.366 287.594 452.214 286.235 450.751 284.241C449.421 282.139 449.139 279.708 449.963 277.445C450.281 275.865 451.059 274.369 452.233 273.077C453.407 271.786 454.943 270.736 456.717 270.014Z" fill="#EBEBEB"/>
<path d="M442.984 248.628C446.586 252.887 453.79 251.528 457.054 248.9C460.319 246.272 461.782 242.647 463.02 239.113C465.947 230.957 468.873 222.439 466.622 214.193C466.13 211.701 464.763 209.374 462.682 207.487C461.666 206.522 460.346 205.794 458.861 205.38C457.376 204.965 455.781 204.88 454.24 205.131C450.638 205.947 448.387 208.756 446.811 211.474C442.1 219.401 439.603 228.061 439.495 236.848C439.495 241.016 440.057 245.275 442.984 248.628Z" fill="#EBEBEB"/>
<path d="M432.966 254.699C436.906 250.893 437.694 245.366 435.893 240.653C434.092 235.941 430.152 231.863 425.537 228.511C420.136 224.612 413.821 221.624 406.964 219.721C404.328 218.841 401.485 218.439 398.634 218.542C395.82 218.814 392.894 219.992 391.655 221.986C390.417 223.98 391.543 228.601 393.569 231.592C397.146 236.816 401.209 241.814 405.726 246.544C409.44 250.35 413.605 254.065 419.121 255.787C424.636 257.508 430.49 257.237 433.416 254.156" fill="#EBEBEB"/>
<path d="M442.759 312.151L443.096 310.248C443.209 308.798 443.434 307.077 443.659 304.992C443.986 302.437 444.474 299.896 445.123 297.381C445.956 294.284 447.123 291.252 448.612 288.319C450.043 285.398 451.975 282.652 454.353 280.163C456.315 278.154 458.766 276.489 461.557 275.27C463.489 274.541 465.533 274.023 467.635 273.729C468.437 273.756 469.238 273.664 469.999 273.457H467.635C465.408 273.576 463.23 274.037 461.219 274.817C458.255 275.939 455.669 277.617 453.677 279.71C451.16 282.221 449.147 285.034 447.712 288.047C446.238 291.015 445.07 294.076 444.222 297.199C443.645 299.748 443.231 302.319 442.984 304.902C442.759 307.167 442.759 308.98 442.646 310.158C442.565 310.823 442.603 311.495 442.759 312.151Z" fill="#E0E0E0"/>
<path d="M443.209 308.074V304.721C443.209 302.455 443.209 299.284 443.322 295.387C443.659 287.503 444.447 279.076 446.023 267.114C447.599 255.152 449.738 242.828 451.876 234.31C452.327 232.437 452.777 230.716 453.227 229.145L454.353 225.248L455.141 222.802C455.253 222.167 455.366 221.895 455.253 221.895L454.916 222.711L454.015 225.158C453.565 226.245 453.227 227.514 452.664 229.054C452.102 230.595 451.651 232.317 451.201 234.22C448.48 244.24 446.45 254.375 445.123 264.577C443.434 276.538 442.759 287.503 442.646 295.387C442.646 299.284 442.759 302.455 442.871 304.721C442.878 305.569 442.953 306.417 443.097 307.258C443.097 307.802 443.097 308.074 443.209 308.074Z" fill="#E0E0E0"/>
<path d="M443.209 287.141C443.354 286.238 443.354 285.324 443.209 284.422C443.096 282.791 442.759 280.254 442.196 277.263C441.531 273.738 440.553 270.255 439.269 266.842C437.88 262.595 436.073 258.444 433.866 254.427C430.122 247.041 424.702 240.28 417.882 234.491C416.732 233.482 415.491 232.543 414.168 231.682L412.592 230.504L411.129 229.779C409.328 228.782 408.427 228.239 408.315 228.329C408.202 228.42 412.254 230.413 417.432 234.854C422.61 239.294 428.463 246.272 432.966 254.79C435.135 258.766 436.977 262.853 438.481 267.023C439.832 270.829 440.845 274.363 441.521 277.354C442.196 280.344 442.646 282.791 442.871 284.513C442.923 285.393 443.036 286.27 443.209 287.141Z" fill="#E0E0E0"/>
<path d="M416.307 320.941L418.896 349.849H464.934L467.523 320.941H416.307Z" fill="#EBEBEB"/>
<path d="M473.038 309.614H411.804V320.978H473.038V309.614Z" fill="#EBEBEB"/>
<path d="M411.804 348.671V351.842H414.731H472.025V348.671H411.804Z" fill="#E0E0E0"/>
<path d="M417.545 357.098L414.731 351.48H469.774L466.509 357.098H417.545Z" fill="#E0E0E0"/>
<path d="M466.622 330.366C466.622 330.366 466.622 330.456 466.397 330.638L465.722 331.363C465.159 332.087 464.258 332.994 463.133 334.172H462.795L456.266 326.832H456.604L450.188 334.172L449.963 334.444L449.738 334.262L442.083 326.832H442.534L442.083 327.285C439.72 329.641 437.356 331.997 435.217 334.262L434.992 334.444L434.767 334.172L428.238 326.832H428.576L420.697 334.172H420.359L417.883 330.728L417.207 329.822C417.148 329.738 417.109 329.646 417.095 329.55L417.32 329.822L417.995 330.728L420.697 333.99H420.359C422.498 332.087 425.087 329.55 428.238 326.56L428.463 326.379L428.689 326.56L435.217 333.99H434.767L441.633 327.103L442.083 326.65V326.469L442.309 326.65L450.075 333.99H449.625L456.154 326.56L456.379 326.379V326.56L462.907 333.99H462.682L465.384 331.272L466.172 330.638L466.622 330.366Z" fill="#F5F5F5"/>
<path d="M468.198 320.76C468.198 320.941 456.604 321.032 442.421 321.032C428.238 321.032 416.644 320.941 416.644 320.76C416.644 320.579 428.238 320.579 442.421 320.579C456.604 320.579 468.198 320.669 468.198 320.76Z" fill="#F5F5F5"/>
<path d="M205.815 20.3602C205.815 20.4508 205.702 20.3602 205.59 20.3602L204.802 20.0884L201.988 19.1822L191.519 15.5574L157.3 3.59581L156.175 3.14271H156.4L122.856 14.6513L112.726 18.0948L109.912 19.0009C109.349 19.2728 109.011 19.3634 109.011 19.2728L109.912 18.9103L112.613 17.9135L122.744 14.3794L156.175 2.68962H156.4L157.638 3.14271L191.744 15.195L202.1 19.0009L204.914 19.9977L205.59 20.2696L205.815 20.3602Z" fill="#E0E0E0"/>
<path d="M259.282 16.4635H39.4477V148.975H259.282V16.4635Z" fill="#E0E0E0"/>
<path d="M252.416 22.6257H47.1019V143.529H252.416V22.6257Z" fill="#FAFAFA"/>
<path d="M92.4645 75.4562C92.4645 75.4562 92.5771 95.7547 93.9279 101.917L125.558 100.739C125.558 100.739 122.744 80.8027 123.869 75.4562H92.4645Z" fill="#E0E0E0"/>
<path d="M107.998 78.2653H109.799C110.504 78.3103 111.192 78.4641 111.825 78.7184C112.642 79.0539 113.369 79.5158 113.964 80.0776C114.671 80.7955 115.171 81.6313 115.427 82.5243C115.757 83.5823 115.638 84.6986 115.089 85.696C114.895 86.2304 114.631 86.7468 114.301 87.2365C113.875 87.7417 113.535 88.2902 113.288 88.8676C112.604 90.0111 112.148 91.2344 111.938 92.4924H105.296C105.154 91.2392 104.653 90.0296 103.833 88.9582L102.595 87.5083C102.257 86.9646 101.807 86.5116 101.469 86.0585C100.941 85.0585 100.785 83.9568 101.019 82.8868C101.243 81.9891 101.663 81.1301 102.257 80.3495C102.785 79.7474 103.479 79.2513 104.283 78.8996C104.873 78.6047 105.52 78.3904 106.197 78.2653L107.548 78.084L106.309 78.2653C105.626 78.3732 104.976 78.5888 104.396 78.8996C103.591 79.2513 102.898 79.7474 102.37 80.3495C101.793 81.1284 101.411 81.9902 101.244 82.8868C101.008 83.8971 101.165 84.9417 101.694 85.8772L102.82 87.3271L104.058 88.777C104.895 89.8753 105.396 91.1174 105.522 92.4017H111.712C111.922 91.1147 112.378 89.8614 113.063 88.6864C113.332 88.1455 113.672 87.6291 114.076 87.1459L114.977 85.6054C115.43 84.6885 115.565 83.6896 115.366 82.7158C115.168 81.742 114.644 80.8301 113.851 80.0776C113.256 79.5158 112.529 79.0539 111.712 78.7184L109.799 78.1747C109.351 78.1282 108.897 78.1282 108.448 78.1747H107.998V78.2653Z" fill="white"/>
<path d="M109.574 92.4017V92.1299C109.477 91.8316 109.402 91.529 109.349 91.2237C109.236 90.4081 109.011 89.3207 108.898 87.8708C108.801 87.4834 108.763 87.0877 108.786 86.6928V85.5147C108.789 85.0776 108.904 84.6457 109.124 84.2461C109.38 83.8081 109.818 83.4557 110.362 83.2493C110.646 83.1578 110.956 83.1349 111.256 83.1831C111.556 83.2314 111.832 83.3488 112.05 83.5211C112.164 83.6177 112.252 83.7316 112.31 83.8561C112.368 83.9806 112.394 84.1132 112.388 84.2461C112.38 84.4981 112.303 84.7456 112.163 84.971L111.375 85.4241C111.056 85.5548 110.714 85.6464 110.362 85.696L108.448 85.8772H106.422L105.409 85.696L104.621 85.2429C104.405 85.0317 104.251 84.7838 104.171 84.5179C104.159 84.273 104.197 84.0281 104.283 83.793C104.419 83.5516 104.659 83.3582 104.959 83.2493C105.262 83.1866 105.584 83.219 105.859 83.3399C106.004 83.3751 106.138 83.4333 106.254 83.5112C106.37 83.589 106.466 83.6848 106.535 83.793C106.645 83.8724 106.733 83.9704 106.791 84.08C106.849 84.1896 106.877 84.3081 106.872 84.4273C106.985 84.8804 106.985 85.2429 107.097 85.696V88.052C107.21 89.5019 107.21 90.5894 107.323 91.4049V92.583V92.3111C107.331 92.0065 107.294 91.7021 107.21 91.4049C107.21 90.5894 107.097 89.5019 106.985 88.052C106.872 86.6022 106.872 86.5115 106.872 85.696C106.872 84.8804 106.76 84.8804 106.647 84.4273C106.632 84.1902 106.512 83.9653 106.309 83.793L105.747 83.3399H104.846L104.283 83.793C104.143 84.0169 104.103 84.2731 104.171 84.5179C104.251 84.7568 104.406 84.9752 104.621 85.1523C104.834 85.3446 105.094 85.5 105.384 85.609C105.675 85.718 105.989 85.7785 106.309 85.7866H108.336L110.249 85.6054L111.15 85.4241C111.461 85.2948 111.731 85.1086 111.938 84.8804C112.048 84.801 112.136 84.703 112.194 84.5934C112.252 84.4838 112.28 84.3653 112.275 84.2461C112.232 84.0148 112.116 83.7963 111.938 83.6117C111.719 83.4395 111.443 83.322 111.144 83.2738C110.844 83.2255 110.533 83.2485 110.249 83.3399C109.743 83.5141 109.34 83.8387 109.124 84.2461C108.904 84.6457 108.789 85.0776 108.786 85.5147C108.729 85.9061 108.729 86.3014 108.786 86.6928V87.8708C109.011 89.2301 109.124 90.4081 109.349 91.2237C109.574 92.0393 109.461 91.9486 109.461 92.1299V92.3111L109.574 92.4017Z" fill="white"/>
<path d="M105.409 92.583C105.496 92.849 105.534 93.1237 105.522 93.3986C105.522 94.0329 105.634 94.7578 105.634 95.664L107.773 97.6576H110.024C110.401 97.2131 110.815 96.7893 111.262 96.389L111.825 95.8453C111.825 94.7579 111.712 93.6704 111.712 92.583V92.7642H107.097L111.712 92.583H111.938C111.938 93.5798 111.938 94.7579 112.05 95.8453H111.938L111.375 96.4796L110.137 97.6576H107.435L105.409 95.664V92.583Z" fill="white"/>
<path d="M111.825 95.3922H111.6L110.925 95.1204C110.189 94.9648 109.434 94.8737 108.673 94.8485C107.936 94.91 107.214 95.0628 106.535 95.3016L105.859 95.4828L106.422 95.211C107.146 94.9852 107.902 94.833 108.673 94.7579C109.446 94.7625 110.21 94.8855 110.925 95.1204L111.6 95.3016L111.825 95.3922Z" fill="white"/>
<path d="M111.825 94.6673H111.6L110.925 94.4861C110.216 94.2417 109.44 94.1481 108.673 94.2142C107.936 94.2083 107.206 94.332 106.535 94.5767L105.859 94.7579L106.422 94.4861C107.137 94.2512 107.901 94.1282 108.673 94.1236C109.438 94.1035 110.201 94.1956 110.925 94.3954L111.6 94.6673H111.825Z" fill="white"/>
<path d="M111.713 93.8517H111.487L110.812 93.5798C110.117 93.4157 109.398 93.3243 108.673 93.308L106.422 93.7611L105.859 93.9423L106.422 93.6705L108.673 93.2174C109.446 93.222 110.21 93.345 110.925 93.5798L111.487 93.7611L111.713 93.8517Z" fill="white"/>
<path d="M57.2324 42.2898C57.2324 42.2898 57.4575 62.5883 58.6957 68.7503L90.3258 67.5723C90.3258 67.5723 87.5117 47.5456 88.6373 42.2898H57.2324Z" fill="#EBEBEB"/>
<path d="M83.7972 50.808C83.7972 50.8986 79.0696 51.2611 73.2163 51.5329C67.3631 51.8048 62.6354 51.8954 62.6354 51.8048C62.6354 51.7142 67.3631 51.3517 73.2163 51.0799C79.0696 50.808 83.7972 50.6268 83.7972 50.808Z" fill="white"/>
<path d="M83.7972 55.067C83.9097 55.2482 79.0696 55.5201 73.2163 55.7919C67.3631 56.0638 62.6354 56.245 62.6354 56.0638C62.6354 55.8826 67.3631 55.6107 73.2163 55.3389C79.0696 55.067 83.7972 54.9764 83.7972 55.067Z" fill="white"/>
<path d="M78.5069 59.3261C76.5011 59.6328 74.469 59.8145 72.4285 59.8698C69.0516 59.9604 66.3501 60.051 66.3501 59.8698C68.3559 59.5631 70.388 59.3813 72.4285 59.3261C75.6928 59.1449 78.5069 59.1449 78.5069 59.3261Z" fill="white"/>
<path d="M55.6566 101.917C55.6566 101.917 55.8817 122.215 57.2325 128.468L88.8625 127.199C88.8625 127.199 86.0485 107.263 87.0615 101.917H55.6566Z" fill="#EBEBEB"/>
<path d="M82.3337 110.525C82.3337 110.616 77.6061 110.979 71.7528 111.25C65.8996 111.522 61.1719 111.613 61.1719 111.522C61.1719 111.432 65.8996 111.069 71.7528 110.707C77.6061 110.344 82.3337 110.344 82.3337 110.525Z" fill="white"/>
<path d="M82.3337 114.785C82.3337 114.966 77.6061 115.238 71.7528 115.51C65.8996 115.781 61.1719 115.963 61.1719 115.781C61.1719 115.6 65.8996 115.328 71.7528 115.056C77.6061 114.785 82.3337 114.603 82.3337 114.785Z" fill="white"/>
<path d="M76.9308 119.044C74.9638 119.355 72.9686 119.537 70.965 119.587C67.5881 119.678 64.8866 119.769 64.8866 119.587C66.8924 119.281 68.9245 119.099 70.965 119.044C74.2293 118.862 76.9308 118.862 76.9308 119.044Z" fill="white"/>
<path d="M142.105 47.6363L145.256 106.176L236.094 107.082L231.929 48.4519L142.105 47.6363Z" fill="#EBEBEB"/>
<path d="M231.254 47.1832H141.091V101.998H231.254V47.1832Z" fill="#F5F5F5"/>
<path d="M231.254 102.007V101.011C231.148 100.046 231.111 99.0783 231.141 98.1108V86.9647C231.029 77.4498 231.029 63.7664 231.029 47.1833L231.254 47.4551H141.091L141.316 47.1833V102.007L141.091 101.826H206.265L141.091 102.007H140.754V46.7302H231.479V46.9114C231.479 63.4946 231.366 77.2686 231.366 86.8741C231.366 91.5863 231.254 95.3016 231.254 97.9296V101.736V102.007Z" fill="#E0E0E0"/>
<path d="M188.593 58.8731H152.01V95.9088H188.593V58.8731Z" fill="#F5F5F5"/>
<path d="M188.48 95.8453V93.1267C188.368 91.3143 188.368 88.777 188.368 85.5148C188.368 78.9902 188.255 69.7472 188.255 58.7823L188.48 59.0542H151.898C151.898 59.1448 152.573 58.6011 152.235 58.7823V95.664L151.898 95.4828H151.672V58.9636L151.898 58.7823H188.818V58.9636C188.706 70.019 188.706 79.2621 188.593 85.8772V93.3986C188.593 94.2141 188.48 94.9391 188.48 95.3922V96.0265V95.8453Z" fill="#E0E0E0"/>
<path d="M223.375 50.3548H153.361V55.6923H223.375V50.3548Z" fill="#F5F5F5"/>
<path d="M223.375 55.7014V54.2515C223.375 53.3453 223.262 52.0766 223.262 50.3549H223.375L153.361 50.5361C153.924 49.9924 153.473 50.3549 153.698 50.2643V55.4295L153.361 55.1577H203.226L153.361 55.3389H153.023V49.9018L153.361 49.6299L223.375 49.8112H223.487V53.7984C223.487 54.2515 223.375 54.5233 223.375 54.7952V55.7014Z" fill="#E0E0E0"/>
<path d="M223.375 58.8731H192.983V81.1924H223.375V58.8731Z" fill="#F5F5F5"/>
<path d="M223.375 81.1651V79.534C223.262 78.4466 223.262 76.906 223.262 74.9124C223.262 71.0158 223.15 65.4881 223.15 58.7823L223.375 59.0542H192.983L193.321 58.7823V70.3815C193.208 74.0969 193.208 77.7216 193.208 80.9839L192.983 80.712L214.933 80.8933H192.645V58.9636C192.42 59.2354 192.983 58.6917 192.983 58.7823H223.6V58.9636C223.6 65.6694 223.6 71.2877 223.487 75.2749V79.8058C223.487 80.2589 223.375 80.6214 223.375 80.8933V81.1651Z" fill="#E0E0E0"/>
<path d="M223.375 84.6086H192.983V95.8272H223.375V84.6086Z" fill="#F5F5F5"/>
<path d="M223.375 95.8452V92.7642C223.375 90.7706 223.375 88.052 223.262 84.6085L223.487 84.7898H193.095L193.433 84.5179V90.1363C193.433 92.0392 193.321 93.8516 193.321 95.5734L193.095 95.3015L214.82 95.4827H215.045L193.095 95.664H192.758V84.7898C192.645 84.8804 193.32 84.3367 193.095 84.6085H223.6V84.7898C223.6 88.2333 223.487 91.0424 223.487 93.036V95.3015C223.435 95.4805 223.397 95.6622 223.375 95.8452Z" fill="#E0E0E0"/>
<path d="M187.58 58.8731C176.324 71.469 163.266 83.2494 151.898 95.8454L187.58 58.8731Z" fill="white"/>
<path d="M151.898 95.8454L152.235 95.4829L153.136 94.3049L156.85 90.227C160.002 86.8742 164.505 82.2526 169.57 77.178L182.289 64.3102L186.116 60.323L187.242 59.2355L187.58 58.8731L187.242 59.3262L186.342 60.4136L182.627 64.4914C179.588 67.8443 175.085 72.4658 170.02 77.5405C164.955 82.6151 160.452 87.146 157.188 90.4989L153.361 94.3955C153.023 94.8486 152.573 95.211 152.348 95.4829C152.123 95.7548 152.01 95.8454 151.898 95.8454Z" fill="#E0E0E0"/>
<path d="M188.48 95.8454C188.368 95.936 180.038 87.6897 170.02 77.4499C160.002 67.21 151.785 58.8731 151.898 58.7825C152.01 58.6918 160.34 66.9381 170.47 77.178C180.601 87.4179 188.593 95.7548 188.48 95.8454Z" fill="#E0E0E0"/>
<path d="M145.256 58.873C145.256 59.787 144.92 60.6805 144.289 61.4405C143.658 62.2006 142.761 62.7929 141.712 63.1427C140.663 63.4925 139.509 63.584 138.396 63.4057C137.282 63.2274 136.259 62.7872 135.456 62.1409C134.653 61.4945 134.107 60.6711 133.885 59.7746C133.664 58.8781 133.777 57.9488 134.212 57.1044C134.646 56.2599 135.382 55.5381 136.326 55.0303C137.27 54.5225 138.38 54.2514 139.516 54.2514C141.038 54.2514 142.498 54.7383 143.575 55.605C144.651 56.4717 145.256 57.6473 145.256 58.873Z" fill="#E0E0E0"/>
<path d="M238.796 47.7269C238.796 48.641 238.459 49.5345 237.828 50.2945C237.197 51.0545 236.301 51.6469 235.252 51.9967C234.203 52.3465 233.049 52.438 231.935 52.2597C230.821 52.0813 229.798 51.6412 228.996 50.9948C228.193 50.3485 227.646 49.525 227.425 48.6285C227.203 47.732 227.317 46.8028 227.751 45.9583C228.186 45.1139 228.921 44.3921 229.866 43.8842C230.81 43.3764 231.919 43.1054 233.055 43.1054C234.577 43.1054 236.038 43.5923 237.114 44.459C238.191 45.3257 238.796 46.5012 238.796 47.7269Z" fill="#E0E0E0"/>
<path d="M462.457 79.8059H396.608V156.705H462.457V79.8059Z" fill="#E0E0E0"/>
<path d="M459.08 79.8059H393.231V156.705H459.08V79.8059Z" fill="#F5F5F5"/>
<path d="M450.976 88.1427H401.448V148.386H450.976V88.1427Z" fill="white"/>
<path d="M450.976 148.313V143.873C450.976 140.973 450.863 136.805 450.863 131.458C450.863 120.856 450.863 105.813 450.751 88.1428H401.673C401.561 110.797 401.561 131.821 401.561 148.313H401.336C401.336 131.821 401.336 110.797 401.223 88.1428V87.9615H451.088V131.549C451.088 136.895 450.976 141.064 450.976 143.964V148.313Z" fill="#E0E0E0"/>
<path d="M459.305 79.8059C459.418 79.8059 458.968 80.3496 458.18 81.1652L455.028 84.3369C453.79 85.5149 452.664 86.6023 451.764 87.3273L450.413 88.5959C450.3 88.5053 450.863 88.0522 451.651 87.2367L454.803 84.1556L457.955 81.0746L459.305 79.8059Z" fill="#E0E0E0"/>
<path d="M451.201 148.132C453.677 151.284 456.584 154.202 459.868 156.831L451.201 148.132Z" fill="white"/>
<path d="M459.868 156.831C459.868 156.922 459.193 156.469 458.405 155.744C457.214 154.823 456.122 153.823 455.141 152.754C454.091 151.742 453.114 150.683 452.214 149.582C451.801 149.135 451.46 148.648 451.201 148.132C451.682 148.542 452.098 148.999 452.439 149.491C453.114 150.307 454.24 151.394 455.366 152.572L458.517 155.653L459.868 156.831Z" fill="#E0E0E0"/>
<path d="M393.231 156.65L401.899 148.042L393.231 156.65Z" fill="white"/>
<path d="M401.899 148.042C400.628 149.562 399.237 151.015 397.734 152.391C396.351 153.889 394.847 155.312 393.231 156.65C394.516 155.109 395.906 153.627 397.396 152.21C398.796 150.752 400.299 149.36 401.899 148.042Z" fill="#E0E0E0"/>
<path d="M393.231 79.8059C394.77 81.0283 396.164 82.3631 397.396 83.7931C398.843 85.1293 400.16 86.5532 401.336 88.0522L397.171 83.9744C394.92 81.7089 393.231 79.8059 393.231 79.8059Z" fill="#E0E0E0"/>
<path d="M435.555 100.376H419.008V138.282H435.555V100.376Z" fill="#E0E0E0"/>
<path d="M423.757 21.0193L414.302 21.0592L414.548 58.8465L424.003 58.8067L423.757 21.0193Z" fill="#E0E0E0"/>
<path d="M357.122 21.0288L332.696 21.1318L332.832 41.9919L357.258 41.8889L357.122 21.0288Z" fill="#EBEBEB"/>
<path d="M381.434 21.017L357.009 21.12L357.144 41.98L381.57 41.8771L381.434 21.017Z" fill="#F5F5F5"/>
<path d="M332.706 26.861C348.915 26.9516 365.124 26.9516 381.446 26.6798C381.506 26.6798 381.563 26.6607 381.605 26.6267C381.647 26.5927 381.671 26.5466 381.671 26.4985C381.671 26.4505 381.647 26.4044 381.605 26.3704C381.563 26.3364 381.506 26.3173 381.446 26.3173C365.124 26.2267 348.915 26.2267 332.706 26.4985C332.647 26.4985 332.589 26.5176 332.547 26.5516C332.505 26.5856 332.481 26.6317 332.481 26.6798C332.481 26.7278 332.505 26.7739 332.547 26.8079C332.589 26.8419 332.647 26.861 332.706 26.861Z" fill="#E0E0E0"/>
<path d="M361.758 41.5795L317.409 41.7664L317.52 58.7662L361.869 58.5793L361.758 41.5795Z" fill="#EBEBEB"/>
<path d="M405.993 41.393L361.644 41.58L361.755 58.5797L406.104 58.3928L405.993 41.393Z" fill="#F5F5F5"/>
<path d="M317.398 46.4346C346.889 46.7065 376.493 46.4346 405.984 46.0721C406.044 46.0721 406.101 46.053 406.144 46.019C406.186 45.9851 406.21 45.939 406.21 45.8909C406.21 45.8428 406.186 45.7967 406.144 45.7627C406.101 45.7287 406.044 45.7097 405.984 45.7097C376.493 45.5284 346.889 45.5284 317.398 46.0721C317.173 46.0721 317.173 46.4346 317.398 46.4346Z" fill="#E0E0E0"/>
<path d="M472.847 58.7587H300.851V64.8482H472.847V58.7587Z" fill="#E0E0E0"/>
<path d="M335.971 61.6584H328.992V82.4372H335.971V61.6584Z" fill="#E0E0E0"/>
<path d="M440.204 61.6584H433.225V82.4372H440.204V61.6584Z" fill="#E0E0E0"/>
<path d="M433.12 6.8437L423.665 6.88356L424.003 58.8525L433.458 58.8126L433.12 6.8437Z" fill="#EBEBEB"/>
<path d="M447.704 16.5686L433.071 16.6303L433.345 58.7491L447.978 58.6874L447.704 16.5686Z" fill="#F5F5F5"/>
<path d="M447.633 24.5955C442.759 24.8372 437.872 24.8372 432.999 24.5955C437.872 24.3538 442.759 24.3538 447.633 24.5955Z" fill="#E0E0E0"/>
<path d="M447.633 22.8738C442.759 23.1155 437.872 23.1155 432.999 22.8738C432.999 22.6926 436.264 22.602 440.316 22.602C444.368 22.602 447.633 22.6926 447.633 22.8738Z" fill="#E0E0E0"/>
<path d="M447.633 52.2341C447.633 52.4154 444.368 52.506 440.316 52.506C436.264 52.506 432.999 52.4154 432.999 52.2341C437.872 51.9924 442.759 51.9924 447.633 52.2341Z" fill="#E0E0E0"/>
<path d="M447.633 50.5124C442.759 50.7541 437.872 50.7541 432.999 50.5124C437.872 50.2707 442.759 50.2707 447.633 50.5124Z" fill="#E0E0E0"/>
<path d="M440.541 46.6158C440.429 46.6158 440.316 42.3568 440.316 37.1915C440.316 32.0263 440.429 27.6766 440.541 27.6766C440.654 27.6766 440.766 31.9356 440.766 37.1915C440.766 42.4474 440.654 46.6158 440.541 46.6158Z" fill="#E0E0E0"/>
<path d="M463.842 26.861H447.858V58.6499H463.842V26.861Z" fill="#EBEBEB"/>
<path d="M456.187 50.4217C455.719 50.4219 455.256 50.3464 454.825 50.1996C454.395 50.0527 454.005 49.8377 453.679 49.5671C453.354 49.2966 453.099 48.9762 452.93 48.6248C452.762 48.2734 452.683 47.8984 452.698 47.5219C452.656 47.1044 452.747 46.6852 452.964 46.3044C453.181 45.9236 453.516 45.5939 453.936 45.3471L454.274 45.8002C453.94 45.9963 453.672 46.2566 453.495 46.5573C453.318 46.8581 453.238 47.1897 453.261 47.5219C453.261 48.1468 453.569 48.7461 454.118 49.1879C454.667 49.6298 455.411 49.878 456.187 49.878C456.963 49.878 457.708 49.6298 458.257 49.1879C458.806 48.7461 459.114 48.1468 459.114 47.5219C459.137 47.1897 459.056 46.8581 458.879 46.5573C458.702 46.2566 458.435 45.9963 458.101 45.8002L458.439 45.3471C458.88 45.5834 459.236 45.9084 459.473 46.2899C459.71 46.6713 459.819 47.0961 459.789 47.5219C459.805 47.9061 459.723 48.2888 459.547 48.6464C459.372 49.0039 459.107 49.3286 458.769 49.6004C458.431 49.8723 458.028 50.0854 457.584 50.2267C457.14 50.3679 456.665 50.4343 456.187 50.4217Z" fill="#FAFAFA"/>
<path d="M458.889 44.6222L458.326 44.3503C458.91 43.7573 459.227 43.0227 459.226 42.2661C459.226 41.088 458.664 40.6349 457.876 40.6349C457.088 40.6349 457.313 44.3503 454.611 44.3503C451.91 44.3503 452.698 43.6254 452.698 42.2661C452.664 41.5615 452.9 40.8657 453.373 40.2725L453.823 40.5443C453.452 41.0686 453.257 41.6624 453.261 42.2661C453.261 43.3535 453.823 43.8066 454.499 43.8066C455.174 43.8066 455.174 40.0912 457.876 40.0912C460.577 40.0912 459.789 40.9068 459.789 42.3567C459.782 43.168 459.468 43.9583 458.889 44.6222Z" fill="#FAFAFA"/>
<path d="M458.889 39.457L458.326 39.1851C458.91 38.5921 459.227 37.8576 459.226 37.1009C459.226 35.9229 458.664 35.4698 457.876 35.4698C457.088 35.4698 457.313 39.1851 454.611 39.1851C451.91 39.1851 452.698 38.4602 452.698 37.1009C452.664 36.3964 452.9 35.7005 453.373 35.1073L453.823 35.3792C453.452 35.9034 453.257 36.4972 453.261 37.1009C453.261 38.1883 453.823 38.6414 454.499 38.6414C455.174 38.6414 455.174 34.9261 457.876 34.9261C460.577 34.9261 459.789 35.7416 459.789 37.1915C459.782 38.0029 459.468 38.7932 458.889 39.457Z" fill="#FAFAFA"/>
<path d="M428.159 17.8898C429.651 17.8898 430.861 16.916 430.861 15.7149C430.861 14.5138 429.651 13.5401 428.159 13.5401C426.667 13.5401 425.458 14.5138 425.458 15.7149C425.458 16.916 426.667 17.8898 428.159 17.8898Z" fill="#E0E0E0"/>
<path d="M428.947 21.6957H427.259V52.6147H428.947V21.6957Z" fill="#E0E0E0"/>
<path d="M475.41 343.03C475.41 343.03 476.414 358.764 479.565 358.966H495.456L515.191 358.865C515.191 358.865 515.087 354.259 509.305 353.284C503.523 352.309 493.864 348.342 490.367 340.945C486.87 333.548 475.41 343.03 475.41 343.03Z" fill="#060632"/>
<path d="M464.885 157.073C464.885 157.073 474.198 162.217 476.83 162.217C479.461 162.217 489.675 160.3 492.514 161.712C495.353 163.124 500.546 168.84 501.515 170.689C503.281 174.051 494.487 172.572 490.367 169.714C490.068 169.511 489.73 169.37 489.372 169.3C489.014 169.231 488.646 169.234 488.29 169.311C486.143 169.748 481.677 170.555 479.53 169.781C476.622 168.739 461.388 167.562 461.388 167.562L464.885 157.073Z" fill="#FC9290"/>
<path d="M393.943 86.9397C393.943 86.9397 403.602 153.643 419.598 159.628C427.492 162.587 462.426 169.277 472.744 169.95C472.744 169.95 475.271 167.932 474.648 159.83C474.648 159.83 438.087 146.785 432.893 139.724C425.172 129.167 437.671 96.5889 427.977 86.7043C418.282 76.8198 401.941 72.5164 393.943 86.9397Z" fill="#E12E5E"/>
<path d="M397.197 227.508C400.002 232.148 403.291 236.485 406.649 240.62C417.036 253.363 428.323 263.852 430.296 273.77C430.767 275.925 431.379 278.047 432.131 280.125C432.962 282.411 433.966 284.798 435.143 287.252C439.541 296.565 446.153 306.988 452.732 316.469C464.123 332.842 474.821 346.492 474.821 346.492L494.417 345.685C493.656 343.769 485.104 321.176 473.644 293.539C469.004 282.31 464.053 270.408 459.275 258.876L457.371 254.304C455.917 250.774 454.498 247.311 453.078 243.949C442.345 217.993 433.759 197.35 433.759 197.35C433.759 197.35 390.792 181.548 386.326 191.769C382.656 200.208 385.668 208.512 397.197 227.508Z" fill="#030231"/>
<path d="M429.985 298.112C429.985 298.112 416.344 306.618 417.659 309.408C417.832 309.745 425.38 322.89 425.38 322.89L435.109 339.566C435.109 339.566 439.195 337.213 437.256 331.833C435.317 326.454 434.174 316.368 439.125 309.778C444.076 303.189 429.985 298.112 429.985 298.112Z" fill="#060632"/>
<path d="M436.667 313.073C436.667 313.073 428.15 305.778 426.627 300.398C426.627 300.398 461.768 259.515 469.385 250.337C469.766 249.933 469.662 249.463 469.212 248.958C463.43 242.671 399.482 229.862 391.138 217.22C388.648 213.51 386.822 209.418 385.737 205.117C383.833 197.418 385.322 192.106 385.322 192.106L449.2 190.324C449.2 190.324 502.381 222.465 508.405 244.386C514.43 266.307 436.667 313.073 436.667 313.073Z" fill="#0B0754"/>
<path d="M469.212 248.958C463.43 242.671 399.482 229.861 391.138 217.22C388.648 213.51 386.822 209.418 385.737 205.117V197.283L412.881 193.148C412.881 193.148 420.568 216.144 443.384 224.751C464.746 232.854 468.762 247.176 469.212 248.958Z" fill="#010117"/>
<path d="M431.716 82.7371C418.802 85.9983 397.405 74.3655 397.405 74.3655C397.405 74.3655 405.714 68.9189 408.796 57.0171L409.211 55.168L415.859 53.7895L425.726 62.3965C425.428 65.6478 424.942 68.8805 424.272 72.0793C424.03 73.1551 423.787 74.2982 423.51 75.5086C426.678 77.4103 429.459 79.8603 431.716 82.7371Z" fill="#FC9290"/>
<path d="M383.694 134.748C385.564 158.922 383.141 195.669 385.218 202.057C387.018 207.538 407.688 204.276 415.928 202.427C418.975 201.755 422.68 200.78 426.488 199.637C437.117 196.443 448.716 191.87 449.962 188.474C450.028 188.362 450.064 188.234 450.066 188.105C450.188 187.63 450.188 187.134 450.066 186.659C449.651 184.944 448.058 183.062 447.85 178.792C447.642 174.522 447.677 168.369 447.504 162.317C447.469 161.645 447.469 160.905 447.4 160.233V159.594C447.192 152.836 446.846 145.742 446.431 138.716C446.154 134.278 445.842 129.907 445.496 125.704C444.561 114.879 443.315 105.263 441.653 99.1776C438.952 89.2258 432.997 82.7706 427.561 78.0301L423.614 74.7689C419.252 75.6766 414.058 75.0715 409.384 72.9197C404.71 70.768 402.564 68.8852 401.664 69.524C389.961 78.2991 381.513 105.196 383.694 134.748Z" fill="#E12E5E"/>
<path d="M426.488 199.636C437.117 196.442 448.716 191.87 449.962 188.474C450.028 188.361 450.064 188.234 450.066 188.105V186.659C449.651 184.944 448.058 183.061 447.85 178.792C447.642 174.522 447.677 168.369 447.504 162.317C447.469 161.645 447.469 160.905 447.4 160.233V159.594L404.364 106.372C404.364 106.372 375.42 164.839 426.488 199.636Z" fill="#343434" fill-opacity="0.5"/>
<g clip-path="url(#clip0_1_286)">
<path d="M513.26 170.526V174.029C513.26 174.796 512.635 175.518 511.528 176.152C511.37 176.239 511.203 176.331 511.02 176.414C511.02 176.414 511.015 176.414 511.015 176.418C510.857 176.497 510.69 176.57 510.512 176.648C509.918 176.901 509.232 177.136 508.48 177.342C508.313 177.388 508.145 177.434 507.972 177.48H507.967C507.805 177.522 507.637 177.563 507.464 177.604C506.825 177.751 506.149 177.885 505.433 177.995C505.265 178.022 505.098 178.05 504.925 178.073H504.92C504.752 178.096 504.59 178.124 504.417 178.142C503.762 178.229 503.086 178.298 502.385 178.353C502.218 178.367 502.05 178.381 501.877 178.39H501.872C501.705 178.404 501.542 178.413 501.37 178.422C500.709 178.459 500.029 178.482 499.338 178.487C499.17 178.491 499.003 178.491 498.83 178.491H498.825C498.652 178.491 498.49 178.491 498.322 178.487C497.631 178.482 496.951 178.459 496.29 178.422C496.118 178.413 495.95 178.404 495.782 178.39H495.777C495.605 178.381 495.442 178.367 495.275 178.353C494.574 178.298 493.898 178.229 493.243 178.142C493.07 178.124 492.903 178.096 492.735 178.073H492.73C492.557 178.05 492.395 178.022 492.227 177.995C491.511 177.885 490.835 177.751 490.195 177.604C490.023 177.563 489.85 177.522 489.687 177.48H489.682C489.51 177.434 489.347 177.388 489.18 177.342C488.428 177.136 487.742 176.901 487.148 176.648C486.97 176.575 486.803 176.497 486.64 176.414C486.64 176.414 486.635 176.414 486.635 176.409C486.457 176.331 486.29 176.244 486.132 176.152C485.024 175.522 484.395 174.796 484.395 174.029V170.526H513.26Z" fill="#F6C358"/>
<path d="M513.26 170.527C513.26 171.294 512.635 172.016 511.528 172.641C511.365 172.737 511.198 172.829 511.015 172.912C510.857 172.995 510.69 173.068 510.512 173.146C509.918 173.399 509.232 173.629 508.48 173.84C508.313 173.886 508.145 173.932 507.972 173.978H507.967C507.805 174.02 507.637 174.061 507.464 174.102C506.824 174.249 506.149 174.383 505.433 174.493C505.265 174.521 505.097 174.548 504.925 174.571H504.92C504.752 174.594 504.59 174.622 504.417 174.64C503.762 174.727 503.086 174.796 502.385 174.851C502.218 174.865 502.05 174.879 501.877 174.888H501.872C501.705 174.902 501.542 174.911 501.369 174.92C500.709 174.957 500.029 174.98 499.338 174.985C499.17 174.989 499.003 174.989 498.83 174.989H498.825C498.652 174.989 498.49 174.989 498.322 174.985C497.631 174.98 496.951 174.957 496.29 174.92C496.118 174.911 495.95 174.902 495.782 174.888H495.777C495.605 174.879 495.442 174.865 495.274 174.851C494.574 174.796 493.898 174.727 493.243 174.64C493.07 174.622 492.903 174.594 492.735 174.571H492.73C492.557 174.548 492.395 174.521 492.227 174.493C491.511 174.383 490.835 174.249 490.195 174.102C490.023 174.061 489.85 174.02 489.687 173.978H489.682C489.51 173.932 489.347 173.886 489.18 173.84C488.428 173.633 487.742 173.399 487.148 173.146C486.97 173.073 486.802 172.995 486.64 172.912C486.64 172.912 486.635 172.912 486.635 172.907C486.457 172.829 486.29 172.742 486.132 172.65C485.024 172.02 484.395 171.294 484.395 170.527C484.395 168.063 490.86 166.064 498.83 166.064C506.799 166.064 513.26 168.063 513.26 170.527Z" fill="#FCD462"/>
<path d="M498.785 173.742C498.642 173.742 498.505 173.742 498.364 173.738C497.699 173.733 497.041 173.713 496.375 173.676C496.212 173.667 496.059 173.659 495.905 173.646L495.844 173.641H495.82C495.684 173.633 495.554 173.622 495.422 173.611C494.69 173.554 494.052 173.487 493.443 173.406C493.303 173.391 493.206 173.376 493.109 173.362L492.835 173.324C492.733 173.309 492.474 173.266 492.474 173.266C491.819 173.165 491.19 173.044 490.534 172.894C490.382 172.857 490.217 172.818 490.06 172.778L489.578 172.647C489.008 172.49 488.483 172.317 488.013 172.132V172.128L487.248 171.791L487.001 171.665H486.991C486.954 171.645 486.916 171.624 486.879 171.602C486.059 171.135 485.773 170.732 485.773 170.527C485.773 169.393 490.73 167.311 498.83 167.311C506.926 167.311 511.881 169.393 511.881 170.527C511.881 170.732 511.598 171.131 510.798 171.583C510.63 171.682 510.511 171.745 510.398 171.797L510.322 171.834C510.197 171.9 510.063 171.957 509.922 172.019C509.419 172.233 508.795 172.446 508.071 172.649L507.594 172.778C507.438 172.817 507.277 172.857 507.111 172.897C506.47 173.044 505.84 173.165 505.202 173.263C505.066 173.286 504.94 173.306 504.814 173.325L504.535 173.364C504.443 173.377 504.352 173.391 504.257 173.401C503.607 173.487 502.969 173.554 502.266 173.609C502.12 173.621 501.979 173.633 501.834 173.641L501.749 173.646C501.596 173.659 501.447 173.667 501.289 173.675C500.618 173.713 499.96 173.734 499.328 173.738C499.156 173.742 499.011 173.742 498.866 173.742C498.854 173.742 498.798 173.742 498.785 173.742Z" fill="#F6C358"/>
<path d="M487.145 173.147V176.649C486.968 176.575 486.801 176.497 486.639 176.414C486.639 176.414 486.633 176.414 486.633 176.41C486.456 176.332 486.289 176.244 486.132 176.153V172.65C486.289 172.742 486.456 172.83 486.633 172.908C486.633 172.912 486.639 172.912 486.639 172.912C486.801 172.995 486.968 173.073 487.145 173.147Z" fill="#DC8744"/>
<path d="M490.193 174.102V177.604C490.021 177.563 489.848 177.522 489.686 177.48H489.681C489.509 177.434 489.347 177.388 489.179 177.342V173.84C489.347 173.886 489.509 173.932 489.681 173.978H489.686C489.848 174.02 490.021 174.061 490.193 174.102Z" fill="#DC8744"/>
<path d="M493.24 174.64V178.142C493.068 178.124 492.901 178.096 492.734 178.073H492.729C492.556 178.05 492.394 178.023 492.227 177.995V174.493C492.394 174.521 492.556 174.548 492.729 174.571H492.734C492.901 174.594 493.068 174.622 493.24 174.64Z" fill="#DC8744"/>
<path d="M496.288 174.92V178.423C496.116 178.413 495.948 178.404 495.781 178.39H495.776C495.604 178.381 495.442 178.367 495.274 178.353V174.851C495.442 174.865 495.604 174.879 495.776 174.888H495.781C495.948 174.902 496.116 174.911 496.288 174.92Z" fill="#DC8744"/>
<path d="M499.336 174.985V178.487C499.168 178.491 499.001 178.491 498.829 178.491H498.824C498.651 178.491 498.489 178.491 498.322 178.487V174.985C498.489 174.989 498.651 174.989 498.824 174.989H498.829C499.001 174.989 499.168 174.989 499.336 174.985Z" fill="#DC8744"/>
<path d="M502.383 174.851V178.353C502.216 178.367 502.049 178.381 501.876 178.39H501.871C501.704 178.404 501.542 178.413 501.37 178.423V174.92C501.542 174.911 501.704 174.902 501.871 174.888H501.876C502.049 174.879 502.216 174.865 502.383 174.851Z" fill="#DC8744"/>
<path d="M505.43 174.493V177.995C505.263 178.023 505.096 178.05 504.923 178.073H504.918C504.751 178.096 504.589 178.124 504.417 178.142V174.64C504.589 174.622 504.751 174.594 504.918 174.571H504.923C505.096 174.548 505.263 174.521 505.43 174.493Z" fill="#DC8744"/>
<path d="M508.478 173.84V177.342C508.311 177.388 508.143 177.434 507.971 177.48H507.966C507.804 177.522 507.637 177.563 507.464 177.604V174.102C507.637 174.061 507.804 174.02 507.966 173.978H507.971C508.143 173.932 508.311 173.886 508.478 173.84Z" fill="#DC8744"/>
<path d="M511.525 172.641V176.152C511.368 176.239 511.201 176.331 511.019 176.414C511.019 176.414 511.014 176.414 511.014 176.419C510.856 176.497 510.689 176.57 510.512 176.648V173.146C510.689 173.068 510.856 172.995 511.014 172.912C511.196 172.829 511.363 172.737 511.525 172.641Z" fill="#DC8744"/>
<path d="M518.849 165.215V168.717C518.849 169.485 518.225 170.206 517.117 170.841C516.96 170.928 516.792 171.02 516.609 171.103C516.609 171.103 516.604 171.103 516.604 171.107C516.447 171.185 516.279 171.259 516.102 171.337C515.507 171.59 514.822 171.824 514.07 172.031C513.902 172.077 513.735 172.123 513.562 172.169H513.557C513.394 172.21 513.227 172.252 513.054 172.293C512.414 172.44 511.739 172.573 511.022 172.684C510.855 172.711 510.687 172.739 510.514 172.762H510.509C510.342 172.785 510.179 172.812 510.007 172.831C509.351 172.918 508.676 172.987 507.975 173.042C507.807 173.056 507.64 173.07 507.467 173.079H507.462C507.294 173.093 507.132 173.102 506.959 173.111C506.299 173.148 505.618 173.171 504.927 173.176C504.76 173.18 504.592 173.18 504.42 173.18H504.414C504.242 173.18 504.079 173.18 503.912 173.176C503.221 173.171 502.54 173.148 501.88 173.111C501.707 173.102 501.54 173.093 501.372 173.079H501.367C501.194 173.07 501.032 173.056 500.864 173.042C500.163 172.987 499.488 172.918 498.832 172.831C498.66 172.812 498.492 172.785 498.325 172.762H498.319C498.147 172.739 497.984 172.711 497.817 172.684C497.101 172.573 496.425 172.44 495.785 172.293C495.612 172.252 495.44 172.21 495.277 172.169H495.272C495.099 172.123 494.937 172.077 494.769 172.031C494.017 171.824 493.332 171.59 492.738 171.337C492.56 171.264 492.392 171.185 492.23 171.103C492.23 171.103 492.225 171.103 492.225 171.098C492.047 171.02 491.879 170.933 491.722 170.841C490.614 170.211 489.985 169.485 489.985 168.717V165.215H518.849V165.215Z" fill="#F6C358"/>
<path d="M518.849 165.215C518.849 165.983 518.225 166.705 517.117 167.33C516.955 167.426 516.787 167.518 516.604 167.601C516.447 167.683 516.279 167.757 516.101 167.835C515.507 168.088 514.821 168.318 514.07 168.529C513.902 168.575 513.735 168.621 513.562 168.667H513.557C513.394 168.708 513.227 168.75 513.054 168.791C512.414 168.938 511.738 169.072 511.022 169.182C510.855 169.209 510.687 169.237 510.514 169.26H510.509C510.342 169.283 510.179 169.311 510.007 169.329C509.351 169.416 508.676 169.485 507.975 169.54C507.807 169.554 507.64 169.568 507.467 169.577H507.462C507.294 169.591 507.132 169.6 506.959 169.609C506.299 169.646 505.618 169.669 504.927 169.674C504.76 169.678 504.592 169.678 504.419 169.678H504.414C504.242 169.678 504.079 169.678 503.912 169.674C503.221 169.669 502.54 169.646 501.88 169.609C501.707 169.6 501.54 169.591 501.372 169.577H501.367C501.194 169.568 501.032 169.554 500.864 169.54C500.163 169.485 499.488 169.416 498.832 169.329C498.66 169.311 498.492 169.283 498.325 169.26H498.319C498.147 169.237 497.984 169.209 497.817 169.182C497.1 169.072 496.425 168.938 495.785 168.791C495.612 168.75 495.44 168.708 495.277 168.667H495.272C495.099 168.621 494.937 168.575 494.769 168.529C494.017 168.322 493.332 168.088 492.737 167.835C492.56 167.762 492.392 167.683 492.23 167.601C492.23 167.601 492.224 167.601 492.224 167.596C492.047 167.518 491.879 167.431 491.722 167.339C490.614 166.709 489.985 165.983 489.985 165.215C489.985 162.752 496.45 160.753 504.42 160.753C512.389 160.753 518.849 162.752 518.849 165.215Z" fill="#FCD462"/>
<path d="M504.374 168.431C504.231 168.431 504.094 168.431 503.954 168.427C503.285 168.422 502.627 168.401 501.965 168.364C501.802 168.356 501.649 168.348 501.497 168.335L501.434 168.33H501.409C501.278 168.322 501.153 168.312 501.026 168.301C500.276 168.242 499.638 168.176 499.033 168.095C498.893 168.08 498.795 168.065 498.698 168.051L498.424 168.013C498.319 167.997 498.063 167.955 498.063 167.955C497.405 167.853 496.776 167.732 496.124 167.582C495.971 167.546 495.806 167.506 495.65 167.466L495.169 167.336C494.596 167.178 494.071 167.005 493.602 166.821V166.816L492.834 166.478L492.59 166.354H492.58C492.543 166.334 492.506 166.312 492.468 166.291C491.648 165.825 491.362 165.421 491.362 165.215C491.362 164.082 496.319 162 504.419 162C512.516 162 517.471 164.082 517.471 165.215C517.471 165.42 517.187 165.82 516.388 166.271C516.218 166.372 516.099 166.435 515.987 166.486L515.913 166.522C515.787 166.588 515.653 166.646 515.511 166.708C515.008 166.922 514.384 167.135 513.661 167.338C513.529 167.374 513.183 167.466 513.183 167.466C513.027 167.506 512.866 167.546 512.701 167.586C512.062 167.732 511.433 167.853 510.791 167.952C510.655 167.975 510.53 167.995 510.404 168.013L510.123 168.053C510.032 168.066 509.941 168.08 509.846 168.09C509.2 168.176 508.562 168.242 507.855 168.298C507.709 168.31 507.568 168.322 507.425 168.33L507.337 168.335C507.184 168.348 507.036 168.356 506.878 168.364C506.212 168.401 505.554 168.422 504.917 168.426C504.745 168.431 504.601 168.431 504.455 168.431C504.443 168.431 504.387 168.431 504.374 168.431Z" fill="#F6C358"/>
<path d="M492.735 167.835V171.337C492.557 171.264 492.39 171.186 492.228 171.103C492.228 171.103 492.223 171.103 492.223 171.098C492.046 171.02 491.878 170.933 491.721 170.841V167.339C491.878 167.431 492.046 167.518 492.223 167.596C492.223 167.601 492.228 167.601 492.228 167.601C492.39 167.684 492.557 167.762 492.735 167.835Z" fill="#DC8744"/>
<path d="M495.782 168.791V172.293C495.61 172.252 495.438 172.21 495.276 172.169H495.271C495.098 172.123 494.936 172.077 494.769 172.031V168.529C494.936 168.575 495.098 168.621 495.271 168.667H495.276C495.438 168.708 495.61 168.749 495.782 168.791Z" fill="#DC8744"/>
<path d="M498.83 169.329V172.831C498.658 172.812 498.49 172.785 498.323 172.762H498.318C498.146 172.739 497.984 172.711 497.816 172.684V169.182C497.984 169.209 498.146 169.237 498.318 169.26H498.323C498.49 169.283 498.658 169.31 498.83 169.329Z" fill="#DC8744"/>
<path d="M501.877 169.609V173.111C501.705 173.102 501.538 173.093 501.371 173.079H501.366C501.193 173.07 501.031 173.056 500.864 173.042V169.54C501.031 169.554 501.193 169.568 501.366 169.577H501.371C501.538 169.59 501.705 169.6 501.877 169.609Z" fill="#DC8744"/>
<path d="M504.925 169.673V173.175C504.758 173.18 504.591 173.18 504.418 173.18H504.413C504.241 173.18 504.079 173.18 503.911 173.175V169.673C504.079 169.678 504.241 169.678 504.413 169.678H504.418C504.591 169.678 504.758 169.678 504.925 169.673Z" fill="#DC8744"/>
<path d="M507.973 169.54V173.042C507.805 173.056 507.638 173.07 507.466 173.079H507.461C507.294 173.093 507.131 173.102 506.959 173.111V169.609C507.131 169.6 507.294 169.591 507.461 169.577H507.466C507.638 169.568 507.805 169.554 507.973 169.54Z" fill="#DC8744"/>
<path d="M511.02 169.182V172.684C510.852 172.711 510.685 172.739 510.513 172.762H510.508C510.341 172.785 510.178 172.812 510.006 172.831V169.329C510.178 169.31 510.341 169.283 510.508 169.26H510.513C510.685 169.237 510.852 169.209 511.02 169.182Z" fill="#DC8744"/>
<path d="M514.067 168.529V172.031C513.9 172.077 513.733 172.123 513.56 172.169H513.555C513.393 172.21 513.226 172.252 513.054 172.293V168.791C513.226 168.749 513.393 168.708 513.555 168.667H513.56C513.733 168.621 513.9 168.575 514.067 168.529Z" fill="#DC8744"/>
<path d="M517.115 167.329V170.841C516.958 170.928 516.79 171.02 516.608 171.103C516.608 171.103 516.603 171.103 516.603 171.107C516.446 171.185 516.279 171.259 516.101 171.337V167.835C516.279 167.757 516.446 167.683 516.603 167.601C516.785 167.518 516.953 167.426 517.115 167.329Z" fill="#DC8744"/>
<path d="M513.26 159.904V163.406C513.26 164.174 512.635 164.895 511.528 165.529C511.37 165.617 511.203 165.709 511.02 165.791C511.02 165.791 511.015 165.791 511.015 165.796C510.857 165.874 510.69 165.948 510.512 166.026C509.918 166.279 509.232 166.513 508.48 166.72C508.313 166.766 508.145 166.812 507.972 166.858H507.967C507.805 166.899 507.637 166.94 507.464 166.982C506.825 167.129 506.149 167.262 505.433 167.372C505.265 167.4 505.098 167.428 504.925 167.451H504.92C504.752 167.474 504.59 167.501 504.417 167.52C503.762 167.607 503.086 167.676 502.385 167.731C502.218 167.745 502.05 167.759 501.877 167.768H501.872C501.705 167.781 501.542 167.791 501.37 167.8C500.709 167.837 500.029 167.86 499.338 167.864C499.17 167.869 499.003 167.869 498.83 167.869H498.825C498.652 167.869 498.49 167.869 498.322 167.864C497.631 167.86 496.951 167.837 496.29 167.8C496.118 167.791 495.95 167.782 495.782 167.768H495.777C495.605 167.759 495.442 167.745 495.275 167.731C494.574 167.676 493.898 167.607 493.243 167.52C493.07 167.501 492.903 167.474 492.735 167.451H492.73C492.557 167.428 492.395 167.4 492.227 167.372C491.511 167.262 490.835 167.129 490.195 166.982C490.023 166.94 489.85 166.899 489.687 166.858H489.682C489.51 166.812 489.347 166.766 489.18 166.72C488.428 166.513 487.742 166.279 487.148 166.026C486.97 165.952 486.803 165.874 486.64 165.791C486.64 165.791 486.635 165.791 486.635 165.787C486.457 165.709 486.29 165.621 486.132 165.53C485.024 164.9 484.395 164.174 484.395 163.406V159.904H513.26Z" fill="#F6C358"/>
<path d="M513.26 159.904C513.26 160.672 512.635 161.393 511.528 162.018C511.365 162.115 511.198 162.207 511.015 162.289C510.857 162.372 510.69 162.446 510.512 162.524C509.918 162.776 509.232 163.006 508.48 163.218C508.313 163.264 508.145 163.31 507.972 163.355H507.967C507.805 163.397 507.637 163.438 507.464 163.48C506.824 163.627 506.149 163.76 505.433 163.87C505.265 163.898 505.097 163.925 504.925 163.948H504.92C504.752 163.971 504.59 163.999 504.417 164.017C503.762 164.105 503.086 164.174 502.385 164.229C502.218 164.243 502.05 164.256 501.877 164.266H501.872C501.705 164.279 501.542 164.289 501.369 164.298C500.709 164.335 500.029 164.357 499.338 164.362C499.17 164.367 499.003 164.367 498.83 164.367H498.825C498.652 164.367 498.49 164.367 498.322 164.362C497.631 164.358 496.951 164.335 496.29 164.298C496.118 164.289 495.95 164.279 495.782 164.266H495.777C495.605 164.256 495.442 164.243 495.274 164.229C494.574 164.174 493.898 164.105 493.243 164.017C493.07 163.999 492.903 163.971 492.735 163.948H492.73C492.557 163.925 492.395 163.898 492.227 163.87C491.511 163.76 490.835 163.627 490.195 163.48C490.023 163.438 489.85 163.397 489.687 163.355H489.682C489.51 163.31 489.347 163.264 489.18 163.218C488.428 163.011 487.742 162.776 487.148 162.524C486.97 162.45 486.802 162.372 486.64 162.289C486.64 162.289 486.635 162.289 486.635 162.285C486.457 162.207 486.29 162.119 486.132 162.027C485.024 161.398 484.395 160.672 484.395 159.904C484.395 157.441 490.86 155.441 498.83 155.441C506.799 155.441 513.26 157.441 513.26 159.904Z" fill="#FCD462"/>
<path d="M498.786 163.119C498.642 163.119 498.504 163.119 498.362 163.116C497.696 163.111 497.037 163.09 496.375 163.053C496.214 163.044 496.061 163.036 495.907 163.023L495.845 163.018H495.819C495.689 163.011 495.564 163 495.437 162.99C494.687 162.931 494.049 162.864 493.444 162.783C493.305 162.768 493.209 162.754 493.113 162.74L492.835 162.701C492.733 162.686 492.474 162.643 492.474 162.643C491.818 162.542 491.189 162.421 490.534 162.271C490.381 162.234 490.216 162.195 490.06 162.155L489.58 162.024C489.008 161.867 488.482 161.694 488.013 161.509V161.504L487.244 161.166L487 161.042H486.991C486.954 161.022 486.917 161.001 486.879 160.979C486.059 160.513 485.773 160.11 485.773 159.904C485.773 158.77 490.73 156.688 498.83 156.688C506.926 156.688 511.881 158.77 511.881 159.904C511.881 160.109 511.598 160.509 510.798 160.96C510.629 161.06 510.51 161.123 510.398 161.174L510.323 161.21C510.198 161.276 510.063 161.334 509.922 161.396C509.418 161.611 508.795 161.823 508.071 162.027L507.594 162.155C507.438 162.195 507.278 162.234 507.113 162.274C506.471 162.421 505.841 162.542 505.202 162.641C505.063 162.663 504.934 162.685 504.806 162.703L504.532 162.741C504.441 162.755 504.351 162.769 504.257 162.779C503.61 162.864 502.972 162.931 502.266 162.986C502.12 162.998 501.979 163.01 501.835 163.018L501.747 163.023C501.594 163.036 501.445 163.044 501.287 163.053C500.622 163.09 499.964 163.111 499.327 163.115C499.157 163.119 499.011 163.119 498.865 163.119C498.853 163.119 498.799 163.119 498.786 163.119Z" fill="#F6C358"/>
<path d="M487.145 162.524V166.026C486.968 165.953 486.801 165.874 486.639 165.792C486.639 165.792 486.633 165.792 486.633 165.787C486.456 165.709 486.289 165.622 486.132 165.53V162.028C486.289 162.12 486.456 162.207 486.633 162.285C486.633 162.29 486.639 162.29 486.639 162.29C486.801 162.372 486.968 162.45 487.145 162.524Z" fill="#DC8744"/>
<path d="M490.193 163.48V166.982C490.021 166.94 489.848 166.899 489.686 166.858H489.681C489.509 166.812 489.347 166.766 489.179 166.72V163.218C489.347 163.264 489.509 163.31 489.681 163.355H489.686C489.848 163.397 490.021 163.438 490.193 163.48Z" fill="#DC8744"/>
<path d="M493.24 164.017V167.52C493.068 167.501 492.901 167.474 492.734 167.451H492.729C492.556 167.428 492.394 167.4 492.227 167.372V163.87C492.394 163.898 492.556 163.925 492.729 163.948H492.734C492.901 163.971 493.068 163.999 493.24 164.017Z" fill="#DC8744"/>
<path d="M496.288 164.298V167.8C496.116 167.791 495.948 167.781 495.781 167.768H495.776C495.604 167.758 495.442 167.745 495.274 167.731V164.229C495.442 164.243 495.604 164.256 495.776 164.265H495.781C495.948 164.279 496.116 164.288 496.288 164.298Z" fill="#DC8744"/>
<path d="M499.336 164.362V167.864C499.168 167.869 499.001 167.869 498.829 167.869H498.824C498.651 167.869 498.489 167.869 498.322 167.864V164.362C498.489 164.367 498.651 164.367 498.824 164.367H498.829C499.001 164.367 499.168 164.367 499.336 164.362Z" fill="#DC8744"/>
<path d="M502.383 164.229V167.731C502.216 167.745 502.049 167.758 501.876 167.768H501.871C501.704 167.781 501.542 167.791 501.37 167.8V164.298C501.542 164.288 501.704 164.279 501.871 164.265H501.876C502.049 164.256 502.216 164.243 502.383 164.229Z" fill="#DC8744"/>
<path d="M505.43 163.87V167.372C505.263 167.4 505.096 167.428 504.923 167.451H504.918C504.751 167.474 504.589 167.501 504.417 167.52V164.017C504.589 163.999 504.751 163.971 504.918 163.948H504.923C505.096 163.926 505.263 163.898 505.43 163.87Z" fill="#DC8744"/>
<path d="M508.478 163.218V166.72C508.311 166.766 508.143 166.812 507.971 166.858H507.966C507.804 166.899 507.637 166.94 507.464 166.982V163.48C507.637 163.438 507.804 163.397 507.966 163.355H507.971C508.143 163.31 508.311 163.264 508.478 163.218Z" fill="#DC8744"/>
<path d="M511.525 162.018V165.529C511.368 165.617 511.201 165.709 511.019 165.791C511.019 165.791 511.014 165.791 511.014 165.796C510.856 165.874 510.689 165.948 510.512 166.026V162.524C510.689 162.446 510.856 162.372 511.014 162.289C511.196 162.207 511.363 162.115 511.525 162.018Z" fill="#DC8744"/>
<path d="M518.849 154.593V158.095C518.849 158.862 518.225 159.584 517.117 160.218C516.96 160.306 516.792 160.397 516.609 160.48C516.609 160.48 516.604 160.48 516.604 160.485C516.447 160.563 516.279 160.636 516.102 160.715C515.507 160.967 514.822 161.202 514.07 161.409C513.902 161.455 513.735 161.5 513.562 161.546H513.557C513.394 161.588 513.227 161.629 513.054 161.67C512.414 161.818 511.739 161.951 511.022 162.061C510.855 162.089 510.687 162.116 510.514 162.139H510.509C510.342 162.162 510.179 162.19 510.007 162.208C509.351 162.295 508.676 162.365 507.975 162.42C507.807 162.433 507.64 162.447 507.467 162.456H507.462C507.294 162.47 507.132 162.479 506.959 162.489C506.299 162.525 505.618 162.548 504.927 162.553C504.76 162.558 504.592 162.558 504.42 162.558H504.414C504.242 162.558 504.079 162.558 503.912 162.553C503.221 162.548 502.54 162.525 501.88 162.489C501.707 162.479 501.54 162.47 501.372 162.456H501.367C501.194 162.447 501.032 162.433 500.864 162.42C500.163 162.364 499.488 162.295 498.832 162.208C498.66 162.19 498.492 162.162 498.325 162.139H498.319C498.147 162.116 497.984 162.089 497.817 162.061C497.101 161.951 496.425 161.818 495.785 161.67C495.612 161.629 495.44 161.588 495.277 161.546H495.272C495.099 161.5 494.937 161.455 494.769 161.409C494.017 161.202 493.332 160.967 492.738 160.715C492.56 160.641 492.392 160.563 492.23 160.48C492.23 160.48 492.225 160.48 492.225 160.476C492.047 160.397 491.879 160.31 491.722 160.218C490.614 159.589 489.985 158.862 489.985 158.095V154.593H518.849Z" fill="#F6C358"/>
<path d="M518.849 154.593C518.849 155.36 518.225 156.082 517.117 156.707C516.955 156.803 516.787 156.895 516.604 156.978C516.447 157.061 516.279 157.134 516.101 157.212C515.507 157.465 514.821 157.695 514.07 157.906C513.902 157.952 513.735 157.998 513.562 158.044H513.557C513.394 158.086 513.227 158.127 513.054 158.168C512.414 158.315 511.738 158.449 511.022 158.559C510.855 158.587 510.687 158.614 510.514 158.637H510.509C510.342 158.66 510.179 158.688 510.007 158.706C509.351 158.793 508.676 158.862 507.975 158.917C507.807 158.931 507.64 158.945 507.467 158.954H507.462C507.294 158.968 507.132 158.977 506.959 158.986C506.299 159.023 505.618 159.046 504.927 159.051C504.76 159.055 504.592 159.055 504.419 159.055H504.414C504.242 159.055 504.079 159.055 503.912 159.051C503.221 159.046 502.54 159.023 501.88 158.986C501.707 158.977 501.54 158.968 501.372 158.954H501.367C501.194 158.945 501.032 158.931 500.864 158.917C500.163 158.862 499.488 158.793 498.832 158.706C498.66 158.688 498.492 158.66 498.325 158.637H498.319C498.147 158.614 497.984 158.587 497.817 158.559C497.1 158.449 496.425 158.315 495.785 158.168C495.612 158.127 495.44 158.086 495.277 158.044H495.272C495.099 157.998 494.937 157.952 494.769 157.906C494.017 157.699 493.332 157.465 492.737 157.212C492.56 157.139 492.392 157.061 492.23 156.978C492.23 156.978 492.224 156.978 492.224 156.973C492.047 156.895 491.879 156.808 491.722 156.716C490.614 156.086 489.985 155.36 489.985 154.593C489.985 152.129 496.45 150.13 504.42 150.13C512.389 150.13 518.849 152.129 518.849 154.593Z" fill="#FCD462"/>
<path d="M504.374 157.808C504.231 157.808 504.094 157.808 503.954 157.804C503.286 157.799 502.627 157.779 501.965 157.742C501.803 157.733 501.65 157.725 501.497 157.712L501.435 157.707H501.409C501.279 157.7 501.154 157.689 501.026 157.679C500.277 157.619 499.639 157.553 499.033 157.472C498.896 157.457 498.801 157.443 498.705 157.429L498.425 157.39C498.324 157.375 498.063 157.332 498.063 157.332C497.408 157.231 496.779 157.11 496.124 156.96C495.971 156.923 495.806 156.883 495.651 156.844L495.168 156.713C494.597 156.556 494.072 156.383 493.603 156.198V156.193L492.834 155.855L492.59 155.731H492.581C492.544 155.711 492.507 155.69 492.47 155.669C491.649 155.202 491.363 154.799 491.363 154.593C491.363 153.459 496.32 151.377 504.42 151.377C512.516 151.377 517.471 153.459 517.471 154.593C517.471 154.798 517.188 155.197 516.388 155.649C516.219 155.749 516.1 155.812 515.988 155.863L515.913 155.899C515.785 155.966 515.648 156.025 515.504 156.089C515.009 156.299 514.385 156.512 513.661 156.716L513.184 156.844C513.028 156.883 512.868 156.923 512.703 156.962C512.06 157.11 511.431 157.231 510.791 157.33C510.651 157.353 510.523 157.374 510.395 157.392L510.118 157.431C510.028 157.444 509.938 157.458 509.845 157.468C509.199 157.553 508.561 157.619 507.855 157.675C507.709 157.687 507.569 157.699 507.425 157.707L507.337 157.712C507.184 157.725 507.036 157.733 506.879 157.741C506.212 157.779 505.554 157.799 504.917 157.804C504.745 157.808 504.601 157.808 504.455 157.808C504.444 157.808 504.388 157.808 504.374 157.808Z" fill="#F6C358"/>
<path d="M492.735 157.213V160.715C492.557 160.641 492.39 160.563 492.228 160.48C492.228 160.48 492.223 160.48 492.223 160.476C492.046 160.398 491.878 160.31 491.721 160.218V156.716C491.878 156.808 492.046 156.896 492.223 156.974C492.223 156.978 492.228 156.978 492.228 156.978C492.39 157.061 492.557 157.139 492.735 157.213Z" fill="#DC8744"/>
<path d="M495.782 158.168V161.671C495.61 161.629 495.438 161.588 495.276 161.546H495.271C495.098 161.5 494.936 161.455 494.769 161.409V157.906C494.936 157.952 495.098 157.998 495.271 158.044H495.276C495.438 158.086 495.61 158.127 495.782 158.168Z" fill="#DC8744"/>
<path d="M498.83 158.706V162.208C498.658 162.19 498.49 162.162 498.323 162.139H498.318C498.146 162.116 497.984 162.089 497.816 162.061V158.559C497.984 158.587 498.146 158.614 498.318 158.637H498.323C498.49 158.66 498.658 158.688 498.83 158.706Z" fill="#DC8744"/>
<path d="M501.877 158.986V162.489C501.705 162.479 501.538 162.47 501.371 162.456H501.366C501.193 162.447 501.031 162.433 500.864 162.42V158.918C501.031 158.931 501.193 158.945 501.366 158.954H501.371C501.538 158.968 501.705 158.977 501.877 158.986Z" fill="#DC8744"/>
<path d="M504.925 159.051V162.553C504.758 162.557 504.591 162.557 504.418 162.557H504.413C504.241 162.557 504.079 162.557 503.911 162.553V159.051C504.079 159.055 504.241 159.055 504.413 159.055H504.418C504.591 159.055 504.758 159.055 504.925 159.051Z" fill="#DC8744"/>
<path d="M507.973 158.918V162.42C507.805 162.433 507.638 162.447 507.466 162.456H507.461C507.294 162.47 507.131 162.479 506.959 162.489V158.986C507.131 158.977 507.294 158.968 507.461 158.954H507.466C507.638 158.945 507.805 158.931 507.973 158.918Z" fill="#DC8744"/>
<path d="M511.02 158.559V162.061C510.852 162.089 510.685 162.116 510.513 162.139H510.508C510.341 162.162 510.178 162.19 510.006 162.208V158.706C510.178 158.688 510.341 158.66 510.508 158.637H510.513C510.685 158.614 510.852 158.587 511.02 158.559Z" fill="#DC8744"/>
<path d="M514.067 157.906V161.409C513.9 161.455 513.733 161.5 513.56 161.546H513.555C513.393 161.588 513.226 161.629 513.054 161.671V158.168C513.226 158.127 513.393 158.086 513.555 158.044H513.56C513.733 157.998 513.9 157.952 514.067 157.906Z" fill="#DC8744"/>
<path d="M517.115 156.707V160.218C516.958 160.305 516.79 160.397 516.608 160.48C516.608 160.48 516.603 160.48 516.603 160.485C516.446 160.563 516.279 160.636 516.101 160.715V157.212C516.279 157.134 516.446 157.061 516.603 156.978C516.785 156.895 516.953 156.803 517.115 156.707Z" fill="#DC8744"/>
</g>
<path d="M425.726 62.3965C425.428 65.6478 424.942 68.8805 424.272 72.0793C414.612 69.0534 410.25 60.5809 408.796 57.0171L409.211 55.168L415.859 53.7895L425.726 62.3965Z" fill="#EA8888"/>
<path d="M427.007 67.7759C427.007 67.7759 405.991 64.3802 408.38 51.7051C410.769 39.0301 409.661 30.0533 423.164 31.7007C436.667 33.3482 438.398 38.6266 438.641 43.031C438.883 47.4353 432.547 68.3474 427.007 67.7759Z" fill="#FC9290"/>
<path d="M459.137 178.22C459.137 178.22 476.345 182.624 482.785 182.154C489.224 181.683 494.591 178.691 495.422 177.144C496.253 175.598 497.915 172.841 493.518 173.345C489.121 173.849 483.131 174.757 482.958 173.95C482.785 173.143 486.524 173.211 486.524 173.211C486.524 173.211 487.666 171.597 486.247 171.53C484.827 171.462 480.638 170.386 479.08 171.126C477.522 171.866 476.102 174.656 474.96 174.555C473.817 174.455 460.557 168.739 460.557 168.739L459.137 178.22Z" fill="#FC9290"/>
<path d="M398.201 89.6965C398.201 89.6965 400.244 157.039 415.478 164.671C422.991 168.47 456.921 178.825 467.1 180.607C467.1 180.607 469.835 178.893 470.147 170.756C470.147 170.756 435.282 153.912 430.92 146.28C424.445 134.984 440.579 103.952 432.062 93.0922C423.545 82.2327 407.792 76.2146 398.201 89.6965Z" fill="#E12E5E"/>
<path d="M408.796 57.0172C408.796 57.0172 408.553 52.6465 411.323 50.1585C411.323 50.1585 410.354 45.8214 412.12 45.0818C413.885 44.3421 414.266 48.0404 415.097 47.4689C415.928 46.8973 419.529 44.1404 421.087 40.1395C422.645 36.1386 436.875 40.98 438.537 41.7197C440.198 42.4594 445.496 39.7697 446.534 37.618C446.534 37.618 443.591 35.2981 442.241 33.5835C440.891 31.8688 431.577 20.2024 418.559 23.5308C405.541 26.8593 403.775 32.8774 404.503 38.055C405.23 43.2326 403.464 55.2689 408.796 57.0172Z" fill="#120E59"/>
<path d="M13.7174 82.8715L24.9351 81.8292C25.3699 81.7838 25.808 81.8775 26.1829 82.096C26.5579 82.3144 26.8491 82.6457 27.0125 83.0396L35.495 102.842C35.6144 103.131 35.6635 103.442 35.6385 103.752C35.6134 104.062 35.515 104.362 35.3507 104.629C35.1865 104.896 34.9609 105.123 34.6916 105.291C34.4224 105.459 34.1167 105.565 33.7985 105.599L22.1307 106.675C21.6829 106.718 21.2332 106.616 20.8513 106.385C20.4694 106.153 20.1767 105.807 20.0187 105.397L11.9863 85.5948C11.8731 85.3056 11.83 84.995 11.8602 84.687C11.8904 84.3791 11.9932 84.082 12.1605 83.8187C12.3278 83.5555 12.5553 83.3331 12.8252 83.1689C13.0952 83.0046 13.4005 82.9029 13.7174 82.8715Z" fill="#9E9E9E"/>
<path d="M155.878 344.307L149.958 347.4C149.958 347.4 117.759 314.25 110.038 282.478C108.653 276.796 108.099 271.182 108.687 265.87L107.406 261.902L107.302 261.566C106.922 260.457 106.506 259.146 106.021 257.633L99.9279 238.771C94.319 221.557 81.5086 182.725 76.0383 166.554L115.37 152.736C115.37 152.736 119.836 162.62 126.241 189.517C127.245 193.047 128.249 196.913 129.149 201.15C130.223 205.924 131.192 211.169 131.988 216.817C133.527 227.489 134.313 238.25 134.343 249.026C134.377 253.833 134.273 258.843 133.962 263.987C133.754 267.752 134.343 272.796 135.416 278.511C140.367 304.668 155.878 344.307 155.878 344.307Z" fill="#4B0082"/>
<path d="M177.448 358.966H145.63C145.63 358.966 144.453 354.023 146.53 350.661C148.607 347.299 147.672 346.022 146.288 343.567C147.977 344.282 149.812 344.616 151.654 344.542C153.247 344.475 154.909 343.769 156.397 342.928C157.748 344.441 163.599 350.897 165.434 352.174C167.269 353.452 176.79 353.116 177.448 358.966Z" fill="#0D0D38"/>
<path d="M131.988 216.817L107.302 261.566C106.922 260.457 106.506 259.146 106.021 257.633L99.9279 238.771C94.319 221.557 81.5086 182.725 76.0383 166.554L115.37 152.736C115.37 152.736 119.836 162.62 126.241 189.517C127.245 193.047 128.249 196.913 129.149 201.15C130.223 205.924 131.192 211.169 131.988 216.817Z" fill="#4B0082"/>
<path d="M24.9007 118.207C24.6929 118.341 15.2756 108.995 10.2553 103.817L15.2756 100.825L42.8352 117.602L24.9007 118.207Z" fill="#FDB3B1"/>
<path d="M75.3804 349.283C75.3804 349.283 74.6533 354.528 76.7307 358.966H89.8873C89.8873 358.966 89.9912 355.133 86.6328 350.359C83.2744 345.585 75.3804 349.283 75.3804 349.283Z" fill="#0D0D38"/>
<path d="M101.347 7.93048C101.521 7.12358 103.771 -1.61783 117.793 0.264935C117.793 0.264935 110.799 -0.104894 109.103 2.61839C109.103 2.61839 114.4 -0.205756 117.966 1.60977C121.532 3.42529 122.64 10.2167 122.294 12.3684C121.948 14.5202 118.589 20.9754 116.062 21.1435C115.067 21.1723 114.077 21.0006 113.154 20.6392C113.654 21.8012 114.081 22.9913 114.435 24.203C118.001 36.2056 110.349 46.0565 105.848 44.0729C102.975 42.7953 101.244 47.6367 101.244 47.6367L76.0729 19.6641C76.0729 19.6641 90.7183 -0.104893 101.347 7.93048Z" fill="#12123C"/>
<path d="M75.623 82.9724C78.8775 85.1577 82.9976 87.0069 88.1564 88.15C107.545 92.4871 114.954 76.618 117.759 65.6913C115.731 64.6002 113.49 63.9358 111.18 63.7413C109.796 63.5732 108.307 63.4723 107.095 63.4051C104.914 61.7913 101.694 55.168 100.967 44.88L100.067 45.1153L84.798 49.1835C84.798 49.1835 85.4905 53.8904 85.8367 58.3619C86.079 61.8249 86.1483 65.1533 85.4558 65.9939L83.5516 66.3973C80.3628 71.6602 77.7074 77.2113 75.623 82.9724Z" fill="#FDB3B1"/>
<path d="M84.7977 49.1833C84.7977 49.1833 85.4902 53.8903 85.8364 58.3618C94.4921 57.5213 98.4737 49.5196 100.066 45.1488L84.7977 49.1833Z" fill="#FC9492"/>
<path d="M82.2013 53.6214C82.2013 53.6214 102.732 52.5119 101.832 40.1058C100.932 27.6998 102.975 19.2273 89.8182 19.3954C76.6616 19.5635 74.4804 24.4722 73.7534 28.6748C73.0263 32.8774 76.8347 53.5878 82.2013 53.6214Z" fill="#FDB3B1"/>
<path d="M78.8773 65.3886C78.8773 65.3886 112.323 57.5214 126.864 69.1542L119.593 167.562L54.1914 152.231C54.1914 152.231 56.0264 145.978 68.5944 129.436C81.1624 112.895 75.6574 88.587 78.8773 65.3886Z" fill="#FDB3B1"/>
<path d="M98.37 156.602L98.2661 157.577C98.2315 157.846 98.1969 158.182 98.1622 158.552C97.8853 161.107 97.3313 166.016 96.6735 172.37C94.8731 189.046 92.034 215.875 90.1298 237.023C88.641 253.564 87.6716 266.643 88.1909 268.761C89.7489 275.082 88.1909 350.695 88.1909 350.695C82.6167 353.284 74.2034 350.695 74.2034 350.695C74.2034 350.695 59.4195 282.546 61.4623 273.064C63.505 263.583 60.0774 255.514 60.0774 255.514C48.5827 203.537 49.8637 174.724 52.1488 160.939C52.5935 158.097 53.2414 155.289 54.0877 152.534C54.3126 151.825 54.5785 151.129 54.884 150.449C80.2277 143.826 98.37 156.602 98.37 156.602Z" fill="#4B0082"/>
<path d="M119.594 167.562C112.318 170.506 104.551 172.135 96.6735 172.37C90.3224 172.534 83.9744 171.947 77.7695 170.622C65.2361 167.966 55.7149 163.091 52.1488 160.939C52.5935 158.097 53.2414 155.289 54.0877 152.534C61.8085 147.188 80.9202 152.299 96.5003 157.947L98.1622 158.552C110.107 162.99 119.594 167.562 119.594 167.562Z" fill="#0D0D38"/>
<path d="M131.365 97.2276C129.738 109.062 123.298 123.553 120.978 131.353C120.978 131.353 124.856 158.417 121.152 165.848C120.736 166.688 120.217 167.293 119.593 167.562C105.952 173.311 52.8758 167.73 50.6253 151.088C49.7943 145.036 70.8449 123.788 72.0567 121.199C72.576 120.123 73.13 116.694 70.6371 109.499C67.1403 119.989 60.7005 132.059 54.1914 134.143C47.0592 136.396 18.8417 115.988 18.8417 115.988C18.8417 115.988 18.6686 113.5 22.2348 111.147C24.5545 109.634 29.8171 109.129 29.8171 109.129L47.8555 116.963C50.1059 113.197 55.7494 87.1749 62.0507 75.4076C66.794 66.5654 79.4659 65.2878 79.4659 65.2878C79.4659 65.2878 84.7285 73.424 97.435 72.2473C110.142 71.0706 112.496 63.5395 112.496 63.5395C112.496 63.5395 123.817 64.9852 127.28 67.7085C127.868 68.2128 133.477 81.7284 131.365 97.2276Z" fill="#E12E5E"/>
<path d="M120.979 131.353C120.979 131.353 124.856 158.418 121.152 165.848C111.215 161.006 98.2661 150.55 102.213 134.211C107.96 110.508 131.365 97.2276 131.365 97.2276C129.738 109.062 123.298 123.553 120.979 131.353Z" fill="#343434" fill-opacity="0.5"/>
<path d="M112.496 113.164C112.496 113.164 98.3701 115.147 97.2275 116.156C96.085 117.165 92.2073 123.149 92.692 125.2C93.1767 127.251 93.1074 129.436 93.973 129.268C94.8386 129.1 97.6776 123.855 98.7509 123.62C99.8242 123.385 100.69 122.679 100.828 123.149C100.967 123.62 98.6471 125.805 98.7509 126.444C98.8548 127.083 100.69 126.343 101.486 125.099C102.282 123.855 104.36 123.284 104.637 122.51C104.914 121.737 106.368 119.249 108.272 119.35C110.176 119.451 112.496 113.164 112.496 113.164Z" fill="#FDB3B1"/>
<path d="M126.276 112.626L112.496 113.164L107.787 119.383L126.518 119.989L126.276 112.626Z" fill="#FDB3B1"/>
<path d="M112.496 63.5395C112.496 63.5395 128.907 65.4223 133.408 72.2473C139.121 80.8878 159.306 109.533 158.856 118.207C158.856 118.207 146.288 123.048 112.531 120.46C112.531 120.46 111.907 115.484 119.005 111.516C119.005 111.516 137.147 109.096 139.155 107.381L125.687 93.4956L112.496 63.5395Z" fill="#E12E5E"/>
<path d="M11.2594 83.0732L22.4771 82.031C22.9199 81.9916 23.364 82.0911 23.7442 82.315C24.1244 82.539 24.4205 82.8754 24.5891 83.275L33.037 103.044C33.1641 103.332 33.2191 103.645 33.1975 103.958C33.1759 104.27 33.0784 104.574 32.9129 104.843C32.7473 105.112 32.5186 105.339 32.2453 105.505C31.972 105.672 31.6619 105.773 31.3405 105.801L19.6727 106.877C19.2291 106.922 18.7825 106.825 18.4012 106.6C18.0198 106.375 17.7246 106.036 17.5607 105.633L9.56291 85.7965C9.44272 85.5102 9.39312 85.2005 9.41809 84.8922C9.44307 84.584 9.54192 84.2856 9.70674 84.0211C9.87156 83.7565 10.0978 83.533 10.3674 83.3684C10.637 83.2039 10.9425 83.1028 11.2594 83.0732Z" fill="#343434"/>
<path d="M10.2552 103.817C10.2552 103.817 7.27765 98.8414 7.52001 97.631C7.76237 96.4207 10.8092 90.7388 12.3672 90.1672C15.1716 89.1586 19.1186 88.5534 18.0453 91.4112C17.3182 93.3276 14.4791 96.0845 14.9985 96.925C15.5178 97.7655 15.2755 100.825 15.2755 100.825L10.2552 103.817Z" fill="#FDB3B1"/>
<path d="M457.164 317.68C453.148 342.694 426.869 358.63 399.898 358.63H346.545L350.699 212.884C350.699 212.884 401.629 197.015 414.439 212.11C425.623 225.357 456.021 277.704 457.614 308.703C457.782 311.702 457.631 314.71 457.164 317.68Z" fill="#DDE8FD"/>
<path d="M315.454 228.315C315.454 228.315 387.469 192.643 401.11 215.943C408.346 228.315 428.289 277.704 429.743 308.702C431.162 338.827 404.295 358.629 376.666 358.629H327.572L315.454 228.315Z" fill="#C7B4FF"/>
<path d="M328.991 248.118C328.402 251.144 322.551 253.968 313.896 256.456C312.372 256.893 310.779 257.33 309.083 257.733C279.619 265.029 227.477 269.131 222.492 266.979C215.637 263.987 173.466 118.51 173.466 118.51C173.466 118.51 213.732 117.064 245.689 116.324C256.63 116.089 266.601 115.954 273.629 115.954C274.44 115.956 275.25 116.013 276.053 116.122C279.1 116.56 281.385 117.77 283.185 119.653C288.309 125.032 289.59 135.623 294.368 147.356C299.146 159.09 304.859 173.412 310.329 187.768C311.749 191.467 313.134 195.165 314.484 198.796L315.627 201.856C323.728 223.877 329.96 243.209 328.991 248.118Z" fill="#893AC2"/>
<path d="M457.164 317.679C453.147 342.693 426.869 358.629 399.898 358.629H373.723C391.173 347.131 406.961 311.695 457.164 317.679Z" fill="#BED2FA" fill-opacity="0.5"/>
<path d="M415.132 336.238C404.814 350.123 389.027 359.033 371.404 358.764H259.469L300.254 228.281C300.254 228.281 403.533 218.296 416.24 231.61C422.16 237.763 425.484 265.735 427.354 293.943C428.393 309.913 423.615 324.773 415.132 336.238Z" fill="#893AC2"/>
<path d="M415.132 336.238C404.815 350.123 389.027 359.033 371.404 358.764H295.719C304.617 351.502 332.627 330.892 362.644 331.867C385.357 332.64 403.43 332.338 415.132 336.238Z" fill="#343434" fill-opacity="0.5"/>
<path d="M322.067 137.001C322.067 137.001 328.368 146.045 331.934 165.041C335.085 181.683 337.854 187.836 342.39 191.231C346.926 194.627 372.2 204.713 372.2 204.713L370.296 209.017C370.296 209.017 333.25 204.108 329.095 198.124C324.94 192.139 309.083 156.568 310.295 148.398C311.507 140.229 322.067 137.001 322.067 137.001Z" fill="#FCA09E"/>
<path d="M412.777 335.465C412.466 338.961 417.486 339.835 423.303 340.104C429.119 340.373 427.388 341.55 435.351 342.962C443.314 344.374 446.534 342.222 447.123 341.18C447.711 340.138 443.938 338.793 439.956 337.146L438.467 336.541C434.035 334.624 431.508 330.758 428.046 327.16C424.584 323.563 421.641 312.838 421.641 312.838L410.804 310.585C410.804 310.585 413.851 320.403 414.889 324.605C415.512 327.059 414.612 329.816 413.781 331.901C413.29 333.042 412.952 334.24 412.777 335.465Z" fill="#FDB3B1"/>
<path d="M423.303 340.104C429.154 340.373 427.388 341.55 435.352 342.962C443.315 344.374 446.535 342.223 447.123 341.18C447.712 340.138 443.938 338.793 439.956 337.146V337.213C436.003 338.316 431.817 338.363 427.838 337.347C422.576 335.969 417.452 332.91 413.816 331.901C413.325 333.042 412.987 334.24 412.812 335.465C412.466 338.961 417.486 339.835 423.303 340.104Z" fill="#343434"/>
<path d="M304.755 210.529C304.755 210.529 376.84 205.251 390.412 213.589C403.984 221.927 425.761 318.789 425.761 318.789C425.761 318.789 424.411 319.831 421.399 320.133C418.387 320.436 412.466 318.856 412.466 318.856C412.466 318.856 381.202 275.485 378.986 264.558C376.77 253.631 377.324 243.915 372.304 243.646C367.284 243.377 304.755 251.043 295.269 234.837C285.782 218.632 293.642 202.629 293.642 202.629L304.755 210.529Z" fill="#1DF0A2"/>
<path d="M385.218 346.694C384.872 350.224 389.892 351.065 395.709 351.334C401.525 351.603 399.794 352.779 407.757 354.191C415.72 355.604 418.94 353.485 419.529 352.443C420.117 351.401 416.344 350.056 412.397 348.409L410.873 347.77C406.442 345.887 403.949 341.987 400.452 338.39C396.955 334.792 394.047 324.101 394.047 324.101L383.21 321.848C383.21 321.848 386.257 331.666 387.295 335.835C387.918 338.322 387.018 341.079 386.187 343.164C385.772 344.307 385.322 345.484 385.218 346.694Z" fill="#FDB3B1"/>
<path d="M395.709 351.334C401.56 351.636 399.794 352.78 407.757 354.192C415.721 355.604 418.94 353.486 419.529 352.443C420.118 351.401 416.344 350.056 412.397 348.409L412.328 348.476C408.386 349.581 404.21 349.628 400.244 348.611C394.947 347.232 389.823 344.139 386.187 343.164C385.772 344.307 385.322 345.484 385.218 346.694C384.872 350.224 389.892 351.065 395.709 351.334Z" fill="#343434"/>
<path d="M290.629 214.867C290.629 214.867 354.681 217.825 367.907 226.634C381.133 235.443 398.998 333.111 398.998 333.111C398.998 333.111 397.613 334.086 394.601 334.288C391.589 334.49 385.738 332.641 385.738 332.641C385.738 332.641 356.204 288.16 354.439 277.166C352.673 266.172 353.608 256.456 348.587 255.985C343.567 255.514 280.796 260.826 272.002 244.285C263.208 227.744 290.629 214.867 290.629 214.867Z" fill="#20D08F"/>
<path d="M313.446 78.0302C310.606 76.181 307.075 75.7776 304.582 75.7776C305.275 75.1724 306.556 75.0379 306.556 75.0379C305.032 74.7017 301.501 75.9457 301.501 75.9457C280.693 66.5991 275.257 96.8915 275.188 104.019C275.118 111.147 274.668 119.317 263.554 124.998C241.707 136.161 257.911 159.157 257.911 159.157L266.601 175.699C266.428 169.916 295.753 141.439 310.606 133.269C314.38 128.562 316.215 119.888 316.354 119.216C315.281 126.108 313.792 129.907 312.545 132.025C325.321 122.073 320.993 82.838 313.446 78.0302Z" fill="#343434"/>
<path d="M287.929 126.612C287.929 126.612 293.607 126.848 299.562 127.386C303.613 127.755 307.941 128.192 310.226 129.134C315.869 131.42 315.281 141.136 303.44 139.321C291.599 137.505 287.098 129.47 287.929 126.612Z" fill="#FDB3B1"/>
<path d="M309.706 133.672C309.776 133.706 311.403 142.044 303.647 141.708C298.558 141.473 287.582 135.488 288.552 131.252C289.002 129.235 292.845 124.023 293.641 112.122L294.576 112.357L310.156 116.425C310.156 116.425 309.464 121.233 309.118 125.772C308.875 129.571 308.841 133.202 309.706 133.672Z" fill="#FDB3B1"/>
<path d="M310.156 116.425C310.156 116.425 309.464 121.233 309.118 125.772C300.323 124.965 296.169 116.828 294.576 112.357L310.156 116.425Z" fill="#FCA09E"/>
<path d="M293.053 110.575C293.053 110.575 288.898 103.178 288.206 97.0257C287.721 92.655 291.079 76.7188 307.56 80.1145C310.879 80.7781 314.003 82.1568 316.7 84.149C320.162 86.7378 325.01 92.218 318.224 105.868L316.389 110.508L293.053 110.575Z" fill="#343434"/>
<path d="M312.788 120.897C312.788 120.897 291.876 119.888 292.741 107.247C293.607 94.6051 291.46 85.9645 304.859 86.0654C318.258 86.1663 320.508 91.1758 321.305 95.4456C322.101 99.7154 318.258 120.863 312.788 120.897Z" fill="#FDB3B1"/>
<path d="M314.38 86.368C314.38 86.368 307.663 100.825 298.731 102.472C289.798 104.12 286.128 101.565 286.128 101.565C286.128 101.565 293.226 96.7905 295.234 87.8137C295.234 87.8137 310.572 79.0387 314.38 86.368Z" fill="#343434"/>
<path d="M312.891 87.4774C312.891 87.4774 316.942 91.0748 317.773 94.3697C318.604 97.6645 318.604 104.321 320.612 104.221C320.612 104.221 325.598 94.4033 321.166 88.3852C316.735 82.367 312.891 87.4774 312.891 87.4774Z" fill="#343434"/>
<path d="M333.734 211.572C332.038 213.556 326.775 214.161 321.097 215.069C316.665 215.775 311.991 216.682 308.667 218.565C301.12 222.869 276.468 237.393 269.232 236.754C266.428 236.485 266.982 231.307 268.678 224.415C271.344 213.522 276.919 198.426 276.919 191.837C276.919 188.273 278.165 179.767 279.792 170.084L280.208 167.697C283.462 148.836 287.929 126.612 287.929 126.612C287.929 126.612 292.949 137.236 302.712 137.236C312.476 137.236 310.225 129.134 310.225 129.134C310.225 129.134 319.123 130.142 321.235 132.361C323.347 134.58 328.679 144.061 329.753 146.65C329.753 146.65 329.96 149.979 321.547 151.525C321.547 151.525 323.59 160.502 323.832 166.487C324.005 170.891 320.716 184.709 319.781 193.316C319.435 196.375 319.4 198.763 319.92 199.838C320.439 200.914 322.69 202.629 325.079 203.974C329.822 206.663 335.742 209.252 333.734 211.572Z" fill="#343434"/>
<path d="M325.079 203.974C330.48 212.917 310.399 215.606 307.075 217.489C299.527 221.793 276.468 237.393 269.232 236.754C266.428 236.485 266.982 231.307 268.678 224.415C271.344 213.522 276.919 198.426 276.919 191.836C276.919 188.273 278.165 179.767 279.792 170.084L288.482 161.981C288.482 161.981 297.796 185.348 306.694 189.18C310.914 190.952 315.296 192.337 319.781 193.316C319.435 196.375 319.4 198.762 319.92 199.838C320.439 200.914 322.69 202.629 325.079 203.974Z" fill="#343434"/>
<path d="M285.262 133.605C285.262 133.605 277.819 129.235 270.652 137.539C263.485 145.843 275.741 205.318 286.405 208.378C298.246 211.774 332.418 207.84 332.418 207.84L331.761 202.629C331.761 202.629 295.372 195.871 293.849 193.988C292.325 192.106 289.036 134.58 285.262 133.605Z" fill="#FDB3B1"/>
<path d="M287.929 126.612C287.929 126.612 272.66 127.957 268.229 132.832C263.797 137.707 262.516 150.92 262.516 150.92C262.516 150.92 275.949 161.443 292.153 157.375L287.929 126.612Z" fill="#343434"/>
<path d="M356.17 210.597H335.985V212.91H356.17V210.597Z" fill="#737070"/>
<path d="M351.877 212.614C352.084 211.841 370.4 183.868 370.4 183.868H411.22L390.758 211.841L351.877 212.614Z" fill="#737070"/>
<path d="M353.608 212.917C353.781 212.143 372.2 183.868 372.2 183.868H411.22L391.762 212.917H353.608Z" fill="#555555"/>
<path d="M388.022 198.494C387.797 199.067 387.406 199.566 386.897 199.93C386.387 200.294 385.78 200.507 385.149 200.544C384.006 200.544 383.383 199.637 383.764 198.494C383.989 197.92 384.38 197.421 384.89 197.057C385.399 196.693 386.006 196.48 386.637 196.443C387.78 196.443 388.403 197.35 388.022 198.494Z" fill="#FFBF00"/>
<path d="M328.783 202.326C328.783 202.326 340.624 200.107 341.974 200.645C343.325 201.183 350.769 207.706 350.007 209.017C349.245 210.328 346.198 211.236 342.736 210.126C339.274 209.017 331.865 208.445 330.514 206.798C329.164 205.15 328.783 202.326 328.783 202.326Z" fill="#FDB3B1"/>
<path d="M352.396 318.991C348.068 343.265 324.317 358.63 299.978 358.63H250.883L254.726 212.884C254.726 212.884 301.57 197.015 313.307 212.11C323.625 225.357 351.565 277.704 353.054 308.703C353.226 312.145 353.005 315.596 352.396 318.991Z" fill="#DDE8FD"/>
<path d="M352.396 318.99C348.068 343.265 324.317 358.629 299.977 358.629H260.681C279.065 346.526 303.821 313.073 352.396 318.99Z" fill="#BED2FA"/>
<path d="M276.295 358.529L275.187 358.596L272.868 358.663H220.172L204.938 358.831H189.462C185.394 358.815 181.332 358.511 177.309 357.923C172.652 357.227 168.103 355.961 163.772 354.158C162.318 353.519 160.864 352.813 159.479 352.04C157.612 350.996 155.83 349.816 154.147 348.51C149.819 345.114 146.045 340.844 142.825 335.599C140.456 331.634 138.485 327.457 136.939 323.126C134.642 316.622 132.917 309.941 131.781 303.155C129.911 292.43 128.838 279.957 128.491 265.533C128.353 259.717 128.353 253.598 128.457 247.143C128.641 236.855 129.115 225.693 129.876 213.656C130.95 196.745 132.612 178.119 134.793 157.611C136.766 138.85 139.086 125.772 142.41 122.779C147.326 118.375 157.574 116.593 164.707 115.887C169.138 115.45 172.358 115.416 172.358 115.416C181.083 115.416 188.839 121.502 191.643 130.512C197.321 148.903 207.5 181.784 218.095 216.178C218.129 216.346 218.199 216.548 218.233 216.716C218.856 218.666 219.48 220.65 220.068 222.633C220.176 222.931 220.269 223.234 220.345 223.541L222.215 222.734H222.284C224.811 221.625 227.685 220.414 230.767 219.204H230.801L235.787 217.287C240.634 215.506 245.862 213.724 251.159 212.177C253.514 211.505 255.868 210.866 258.222 210.294C261.234 209.555 264.247 208.95 267.155 208.479H267.432L268.471 208.344C281.073 206.529 292.014 207.773 296.515 215.539C303.751 227.945 323.694 277.502 325.148 308.568C326.533 337.28 302.401 356.612 276.295 358.529Z" fill="#C7B4FF"/>
<path d="M197.564 229.458C197.564 229.458 172.358 129.772 170.558 121.401C169.727 117.669 167.234 116.29 164.707 115.954C169.138 115.517 172.358 115.484 172.358 115.484C181.083 115.484 188.839 121.535 191.643 130.546C197.737 150.18 208.989 186.423 220.345 223.306C219.791 223.272 197.564 229.458 197.564 229.458Z" fill="#DDE8FD"/>
<path d="M207.639 228.248C207.639 228.248 170.247 244.05 163.495 243.781C156.744 243.512 114.885 231.408 114.885 231.408L115.958 238.402C115.958 238.402 148.227 256.389 159.513 257.431C170.8 258.473 208.574 247.748 212.244 245.496C215.914 243.243 218.303 230.534 207.639 228.248Z" fill="#FC9492"/>
<path d="M213.248 170.084C213.248 170.084 227.028 167.529 233.918 172.404C246.347 181.212 247.005 211.639 251.679 216.178C256.353 220.717 267.571 218.767 268.575 242.201C269.579 265.634 264.109 267.584 270.618 278.074C277.127 288.564 267.848 298.986 267.848 298.986C267.848 298.986 271.656 293.237 270.029 289.068C270.029 289.068 268.436 298.246 262.412 300.398C256.388 302.55 255.522 304.13 254.553 307.324C254.553 307.324 203.208 281.772 203.138 263.651C203.069 245.529 193.028 227.575 197.979 219.708C197.979 219.708 195.764 223.07 195.521 226.802C195.521 226.802 192.544 221.288 197.668 216.178C202.792 211.068 191.678 200.41 193.305 188.138C194.448 179.699 200.542 170.454 213.248 170.084Z" fill="#0D0D38"/>
<path d="M203.103 245.495C206.358 247.714 210.478 249.53 215.671 250.707C235.025 255.044 242.435 239.141 245.239 228.248C243.213 227.153 240.971 226.488 238.661 226.298C237.276 226.13 235.787 226.029 234.575 225.962C232.394 224.348 229.174 217.725 228.447 207.437L227.547 207.672L212.278 211.74C212.278 211.74 212.971 216.447 213.317 220.919C213.594 224.382 213.629 227.71 212.936 228.517L211.032 228.954C207.847 234.207 205.192 239.747 203.103 245.495Z" fill="#FDB3B1"/>
<path d="M212.278 211.74C212.278 211.74 212.971 216.447 213.317 220.919C221.973 220.078 225.989 212.076 227.547 207.672L212.278 211.74Z" fill="#FC9492"/>
<path d="M209.682 216.178C209.682 216.178 230.213 215.069 229.313 202.663C228.413 190.256 230.455 181.784 217.299 181.952C204.142 182.12 201.961 187.029 201.234 191.231C200.507 195.434 204.315 216.145 209.682 216.178Z" fill="#FDB3B1"/>
<path d="M201.338 184.305C204.211 180.338 206.67 181.011 208.124 182.019C218.857 175.261 226.751 183.599 226.751 183.599C228.759 192.408 235.753 197.048 235.753 197.048C235.753 197.048 232.186 199.536 223.427 197.989C220.726 197.518 218.234 195.871 216.087 193.82C218.636 197.258 221.653 200.346 225.054 202.999C214.425 199.099 209.266 185.482 208.747 184.037C207.57 185.213 205.285 187.768 204.696 190.156C203.9 193.383 200.507 198.426 198.533 198.325C198.533 198.325 197.01 190.223 201.338 184.305Z" fill="#0D0D38"/>
<path d="M251.192 285.787C253.027 276.575 259.086 239.827 253.027 227.993C250.846 223.723 242.329 223.353 233.015 223.723C230.107 225.538 219.028 232.431 214.457 231.59L214.215 231.523C212.068 230.985 211.272 229.539 213.038 228.262C209.573 228.058 206.096 228.273 202.686 228.901C199.431 229.506 190.672 233.876 190.672 233.876C190.672 233.876 195.069 241.609 201.578 244.299C200.47 253.881 202.132 258.117 212.38 280.307C221.036 299.067 211.203 315.945 211.203 315.945C211.203 315.945 262.237 355.785 262.514 335.512C262.721 320.215 248.803 297.521 251.192 285.787Z" fill="#20D08F"/>
<path d="M208.574 359.544C207.204 359.391 205.885 358.951 204.707 358.255C203.529 357.558 202.522 356.621 201.753 355.509L200.957 354.333C195.14 345.793 192.89 319.636 179.837 291.798C176.652 285.007 165.226 283.796 162.11 276.131C162.11 276.131 154.424 251.251 176.79 250.545C199.157 249.839 236.618 319.67 237.207 326.999C237.795 334.328 251.991 364.285 208.574 359.544Z" fill="#2C004B"/>
<path d="M119.767 358.966H151.585C151.585 358.966 152.762 354.023 150.685 350.661C148.607 347.299 149.542 346.022 150.892 343.567C149.216 344.285 147.391 344.619 145.561 344.542C143.968 344.475 142.271 343.769 140.817 342.929C139.432 344.441 133.581 350.897 131.746 352.174C129.911 353.452 120.425 353.116 119.767 358.966Z" fill="#FFBF00"/>
<path d="M247.732 237.864C247.732 237.864 251.852 274.443 225.02 282.109C198.187 289.774 190.57 248.454 212.244 245.495C233.918 242.537 247.732 237.864 247.732 237.864Z" fill="black" fill-opacity="0.5"/>
<path d="M161.383 257.706C159.444 271.659 151.966 315.669 138.775 337.119C134.551 344.045 149.508 347.911 149.577 347.911C151.585 347.407 154.943 344.28 156.467 342.935C167.2 333.555 188.943 307.028 188.943 285.746C188.943 275.391 189.116 255.555 181.361 250.512C176.548 247.418 162.145 252.193 161.383 257.706Z" fill="#2C004B"/>
<path d="M227.547 358.966C227.547 358.966 226.37 357.352 224.293 354.326C221.869 350.728 219.169 343.668 215.879 334.59C212.59 325.513 208.332 313.342 203.207 301.138C201.649 297.372 199.953 293.573 198.187 289.774C195.002 282.983 186.242 283.924 183.126 276.258C183.126 276.258 170.974 249.664 193.305 248.958C215.637 248.252 258.119 320.066 260.543 326.992C263.208 334.624 276.261 366.261 227.547 358.966Z" fill="#0F003D"/>
<path d="M143.102 358.966H174.921C174.921 358.966 176.098 354.023 174.02 350.661C171.943 347.299 172.878 346.022 174.263 343.567C172.573 344.282 170.738 344.616 168.896 344.542C167.304 344.475 165.642 343.769 164.153 342.929C162.803 344.441 156.917 350.897 155.116 352.174C153.316 353.452 143.76 353.116 143.102 358.966Z" fill="#FFBF00"/>
<path d="M215.879 334.591C212.417 325.076 208.332 313.342 203.208 301.138C204.558 291.926 207.432 283.823 212.279 280.562C212.279 280.562 224.016 315.931 215.879 334.591Z" fill="#594B79"/>
<path d="M179.941 256.725C178.037 270.677 175.336 315.662 162.145 337.112C157.886 344.038 172.843 347.904 172.947 347.904C174.955 347.4 178.279 344.273 179.837 342.929C190.536 333.548 212.279 307.022 212.279 285.74C212.279 275.384 199.745 256.389 191.955 251.345C187.177 248.252 180.703 251.177 179.941 256.725Z" fill="#0F003D"/>
<path d="M111.111 213.455L143.656 210.093C144.114 210.04 144.577 210.137 144.972 210.369C145.367 210.6 145.672 210.952 145.837 211.37L157.505 241.125C157.62 241.426 157.659 241.749 157.622 242.068C157.584 242.387 157.469 242.693 157.287 242.961C157.105 243.23 156.861 243.453 156.574 243.613C156.287 243.772 155.966 243.864 155.636 243.882L123.298 245.159C122.868 245.174 122.444 245.059 122.085 244.831C121.725 244.602 121.447 244.27 121.29 243.882L109.38 216.245C109.253 215.953 109.2 215.635 109.223 215.318C109.247 215.002 109.347 214.695 109.516 214.423C109.684 214.151 109.917 213.922 110.194 213.753C110.471 213.585 110.785 213.483 111.111 213.455Z" fill="#E0E0E0"/>
<path d="M108.272 213.724L140.852 210.362C141.313 210.317 141.777 210.422 142.171 210.659C142.565 210.896 142.868 211.252 143.033 211.673L154.667 241.394C154.788 241.697 154.833 242.024 154.798 242.347C154.764 242.67 154.651 242.981 154.468 243.254C154.285 243.527 154.038 243.753 153.748 243.915C153.457 244.076 153.131 244.169 152.797 244.184L120.494 245.428C120.063 245.448 119.637 245.339 119.272 245.117C118.907 244.895 118.62 244.569 118.451 244.184L106.541 216.548C106.415 216.253 106.362 215.934 106.386 215.615C106.41 215.297 106.51 214.989 106.678 214.714C106.846 214.44 107.077 214.208 107.354 214.036C107.631 213.864 107.945 213.757 108.272 213.724Z" fill="#343434"/>
<path d="M126.311 227.609C125.93 226.533 126.484 225.693 127.592 225.693C128.182 225.734 128.748 225.935 129.225 226.274C129.703 226.613 130.073 227.076 130.292 227.609C130.673 228.685 130.119 229.526 129.011 229.526C128.421 229.485 127.855 229.283 127.377 228.944C126.9 228.605 126.53 228.143 126.311 227.609Z" fill="#FFBF00"/>
<path d="M109.242 216.548C109.034 216.01 109.311 215.607 109.865 215.607C110.155 215.622 110.434 215.719 110.668 215.886C110.901 216.053 111.08 216.283 111.18 216.548C111.237 216.648 111.264 216.762 111.259 216.876C111.255 216.99 111.219 217.101 111.155 217.197C111.092 217.294 111.003 217.371 110.897 217.423C110.792 217.474 110.675 217.497 110.557 217.489C110.271 217.462 109.997 217.361 109.766 217.195C109.534 217.029 109.353 216.806 109.242 216.548Z" fill="#FFBF00"/>
<path d="M245.239 228.248C245.239 228.248 200.091 244.386 193.305 244.05C188.943 243.848 152.485 231.408 152.485 231.408L149.231 237.427C149.231 237.427 184.684 259.549 194.448 259.448C213.698 259.213 246.174 247.748 249.844 245.496C253.514 243.243 255.868 230.534 245.239 228.248Z" fill="#FDB3B1"/>
<path d="M152.485 231.408C152.485 231.408 149.231 226.5 145.976 226.365C142.722 226.231 137.078 228.517 135.174 228.887C133.27 229.257 127.765 230.971 129.392 233.56C131.019 236.149 138.567 236.72 141.822 236.149C145.076 235.577 149.231 237.426 149.231 237.426L152.485 231.408Z" fill="#FDB3B1"/>
<path d="M146.842 226.533C146.842 226.533 141.683 224.213 140.194 223.776C138.705 223.339 139.017 223.776 139.467 225.155C139.917 226.533 142.548 227.811 142.548 228.248C142.548 228.685 146.842 226.533 146.842 226.533Z" fill="#FDB3B1"/>
<path d="M111.631 228.819C111.631 228.819 114.885 223.81 115.958 223.608C119.213 222.969 119.213 227.138 118.52 229.828C117.828 232.518 115.266 235.409 114.573 235.174C113.881 234.938 110.869 231.476 111.631 228.819Z" fill="#FDB3B1"/>
<path d="M111.492 229.828C111.492 229.828 110.453 235.443 115.958 238.401L111.492 229.828Z" fill="#FDB3B1"/>
<path d="M205.839 209.017C205.839 209.017 207.778 208.277 213.248 208.714C213.248 208.714 212.971 210.799 208.92 211C206.635 211.101 205.839 209.017 205.839 209.017Z" fill="white"/>
<path d="M222.075 235.961C222.075 235.961 226.125 248.367 239.975 251.191C239.975 251.191 262.86 244.333 251.469 229.203C251.469 229.203 240.217 221.067 222.075 235.961Z" fill="#20D08F"/>
<path d="M526.355 358.91H0.645018C0.288784 358.91 0 359.382 0 359.964V360.138C0 360.72 0.288784 361.192 0.645018 361.192H526.355C526.711 361.192 527 360.72 527 360.138V359.964C527 359.382 526.711 358.91 526.355 358.91Z" fill="#343434"/>
<defs>
<clipPath id="clip0_1_286">
<rect width="34.4547" height="31.1765" fill="white" transform="translate(484.395 148.722)"/>
</clipPath>
</defs>
</svg>
