<svg width="234" height="167" viewBox="0 0 234 167" fill="none" xmlns="http://www.w3.org/2000/svg">
<g filter="url(#filter0_d_1_10637)">
<path d="M182.535 100.15C208.788 100.15 230.07 110.862 230.07 124.075C230.07 137.288 208.788 148 182.535 148C156.282 148 135 137.288 135 124.075C135 110.862 156.282 100.15 182.535 100.15Z" fill="#FFE28C"/>
</g>
<g filter="url(#filter1_d_1_10637)">
<path d="M182.535 87.1001C208.788 87.1001 230.07 97.8116 230.07 111.025C230.07 124.238 208.788 134.95 182.535 134.95C156.282 134.95 135 124.238 135 111.025C135 97.8117 156.282 87.1001 182.535 87.1001Z" fill="#FFD559"/>
</g>
<g filter="url(#filter2_d_1_10637)">
<path d="M182.535 74.05C208.788 74.05 230.07 84.7616 230.07 97.975C230.07 111.188 208.788 121.9 182.535 121.9C156.282 121.9 135 111.188 135 97.975C135 84.7616 156.282 74.05 182.535 74.05Z" fill="#FFCB30"/>
<path d="M182.535 74.05C208.788 74.05 230.07 84.7616 230.07 97.975C230.07 111.188 208.788 121.9 182.535 121.9C156.282 121.9 135 111.188 135 97.975C135 84.7616 156.282 74.05 182.535 74.05Z" fill="#FFCB30"/>
<path d="M182.535 74.05C208.788 74.05 230.07 84.7616 230.07 97.975C230.07 111.188 208.788 121.9 182.535 121.9C156.282 121.9 135 111.188 135 97.975C135 84.7616 156.282 74.05 182.535 74.05Z" fill="#FFCB30"/>
</g>
<g filter="url(#filter3_d_1_10637)">
<path d="M182.535 61C208.788 61 230.07 71.7116 230.07 84.925C230.07 98.1384 208.788 108.85 182.535 108.85C156.282 108.85 135 98.1384 135 84.925C135 71.7116 156.282 61 182.535 61Z" fill="#FFBF00"/>
</g>
<g filter="url(#filter4_d_1_10637)">
<path d="M182.535 50C208.788 50 230.07 60.7116 230.07 73.925C230.07 87.1384 208.788 97.85 182.535 97.85C156.282 97.85 135 87.1384 135 73.925C135 60.7116 156.282 50 182.535 50Z" fill="#FFBF00"/>
</g>
<g filter="url(#filter5_d_1_10637)">
<path d="M182.535 39C208.788 39 230.07 49.7116 230.07 62.925C230.07 76.1384 208.788 86.85 182.535 86.85C156.282 86.85 135 76.1384 135 62.925C135 49.7116 156.282 39 182.535 39Z" fill="#FFBF00"/>
</g>
<g filter="url(#filter6_d_1_10637)">
<path d="M182.535 28C208.788 28 230.07 38.7116 230.07 51.925C230.07 65.1384 208.788 75.85 182.535 75.85C156.282 75.85 135 65.1384 135 51.925C135 38.7116 156.282 28 182.535 28Z" fill="#FFBF00"/>
</g>
<g filter="url(#filter7_d_1_10637)">
<path d="M52.5351 95.15C78.788 95.15 100.07 105.862 100.07 119.075C100.07 132.288 78.788 143 52.5351 143C26.2822 143 5 132.288 5 119.075C5 105.862 26.2822 95.15 52.5351 95.15Z" fill="#FFE28C"/>
</g>
<g filter="url(#filter8_d_1_10637)">
<path d="M52.5351 82.1001C78.788 82.1001 100.07 92.8116 100.07 106.025C100.07 119.238 78.788 129.95 52.5351 129.95C26.2822 129.95 5 119.238 5 106.025C5 92.8117 26.2822 82.1001 52.5351 82.1001Z" fill="#FFD559"/>
</g>
<g filter="url(#filter9_d_1_10637)">
<path d="M52.5351 69.05C78.788 69.05 100.07 79.7616 100.07 92.975C100.07 106.188 78.788 116.9 52.5351 116.9C26.2822 116.9 5 106.188 5 92.975C5 79.7616 26.2822 69.05 52.5351 69.05Z" fill="#FFCB30"/>
<path d="M52.5351 69.05C78.788 69.05 100.07 79.7616 100.07 92.975C100.07 106.188 78.788 116.9 52.5351 116.9C26.2822 116.9 5 106.188 5 92.975C5 79.7616 26.2822 69.05 52.5351 69.05Z" fill="#FFCB30"/>
<path d="M52.5351 69.05C78.788 69.05 100.07 79.7616 100.07 92.975C100.07 106.188 78.788 116.9 52.5351 116.9C26.2822 116.9 5 106.188 5 92.975C5 79.7616 26.2822 69.05 52.5351 69.05Z" fill="#FFCB30"/>
</g>
<g filter="url(#filter10_d_1_10637)">
<path d="M52.5351 56C78.788 56 100.07 66.7116 100.07 79.925C100.07 93.1384 78.788 103.85 52.5351 103.85C26.2822 103.85 5 93.1384 5 79.925C5 66.7116 26.2822 56 52.5351 56Z" fill="#FFBF00"/>
</g>
<g filter="url(#filter11_d_1_10637)">
<path d="M100.535 112.15C126.788 112.15 148.07 122.862 148.07 136.075C148.07 149.288 126.788 160 100.535 160C74.2822 160 53 149.288 53 136.075C53 122.862 74.2822 112.15 100.535 112.15Z" fill="#FFE28C"/>
</g>
<g filter="url(#filter12_d_1_10637)">
<path d="M100.535 99.1001C126.788 99.1001 148.07 109.812 148.07 123.025C148.07 136.238 126.788 146.95 100.535 146.95C74.2822 146.95 53 136.238 53 123.025C53 109.812 74.2822 99.1001 100.535 99.1001Z" fill="#FFD559"/>
</g>
<g filter="url(#filter13_d_1_10637)">
<path d="M100.535 86.05C126.788 86.05 148.07 96.7616 148.07 109.975C148.07 123.188 126.788 133.9 100.535 133.9C74.2822 133.9 53 123.188 53 109.975C53 96.7616 74.2822 86.05 100.535 86.05Z" fill="#FFCB30"/>
<path d="M100.535 86.05C126.788 86.05 148.07 96.7616 148.07 109.975C148.07 123.188 126.788 133.9 100.535 133.9C74.2822 133.9 53 123.188 53 109.975C53 96.7616 74.2822 86.05 100.535 86.05Z" fill="#FFCB30"/>
<path d="M100.535 86.05C126.788 86.05 148.07 96.7616 148.07 109.975C148.07 123.188 126.788 133.9 100.535 133.9C74.2822 133.9 53 123.188 53 109.975C53 96.7616 74.2822 86.05 100.535 86.05Z" fill="#FFCB30"/>
</g>
<g filter="url(#filter14_d_1_10637)">
<path d="M100.535 73C126.788 73 148.07 83.7116 148.07 96.925C148.07 110.138 126.788 120.85 100.535 120.85C74.2822 120.85 53 110.138 53 96.925C53 83.7116 74.2822 73 100.535 73Z" fill="#FFBF00"/>
</g>
<g filter="url(#filter15_d_1_10637)">
<path d="M100.535 62C126.788 62 148.07 72.7116 148.07 85.925C148.07 99.1384 126.788 109.85 100.535 109.85C74.2822 109.85 53 99.1384 53 85.925C53 72.7116 74.2822 62 100.535 62Z" fill="#FFBF00"/>
</g>
<g filter="url(#filter16_d_1_10637)">
<path d="M100.535 51C126.788 51 148.07 61.7116 148.07 74.925C148.07 88.1384 126.788 98.85 100.535 98.85C74.2822 98.85 53 88.1384 53 74.925C53 61.7116 74.2822 51 100.535 51Z" fill="#FFBF00"/>
</g>
<g filter="url(#filter17_d_1_10637)">
<path d="M100.535 40C126.788 40 148.07 50.7116 148.07 63.925C148.07 77.1384 126.788 87.85 100.535 87.85C74.2822 87.85 53 77.1384 53 63.925C53 50.7116 74.2822 40 100.535 40Z" fill="#FFBF00"/>
</g>
<g filter="url(#filter18_d_1_10637)">
<path d="M100.535 27C126.788 27 148.07 37.7116 148.07 50.925C148.07 64.1384 126.788 74.85 100.535 74.85C74.2822 74.85 53 64.1384 53 50.925C53 37.7116 74.2822 27 100.535 27Z" fill="#FFBF00"/>
</g>
<g filter="url(#filter19_d_1_10637)">
<path d="M100.535 14C126.788 14 148.07 24.7116 148.07 37.925C148.07 51.1384 126.788 61.85 100.535 61.85C74.2822 61.85 53 51.1384 53 37.925C53 24.7116 74.2822 14 100.535 14Z" fill="#FFBF00"/>
</g>
<g filter="url(#filter20_d_1_10637)">
<path d="M100.535 0.999964C126.788 0.999962 148.07 11.7116 148.07 24.925C148.07 38.1384 126.788 48.85 100.535 48.85C74.2822 48.85 53 38.1384 53 24.925C53 11.7116 74.2822 0.999965 100.535 0.999964Z" fill="#FFBF00"/>
</g>
<defs>
<filter id="filter0_d_1_10637" x="130" y="99.15" width="103.07" height="55.85" filterUnits="userSpaceOnUse" color-interpolation-filters="sRGB">
<feFlood flood-opacity="0" result="BackgroundImageFix"/>
<feColorMatrix in="SourceAlpha" type="matrix" values="0 0 0 0 0 0 0 0 0 0 0 0 0 0 0 0 0 0 127 0" result="hardAlpha"/>
<feOffset dx="-1" dy="3"/>
<feGaussianBlur stdDeviation="2"/>
<feColorMatrix type="matrix" values="0 0 0 0 0 0 0 0 0 0 0 0 0 0 0 0 0 0 0.13 0"/>
<feBlend mode="normal" in2="BackgroundImageFix" result="effect1_dropShadow_1_10637"/>
<feBlend mode="normal" in="SourceGraphic" in2="effect1_dropShadow_1_10637" result="shape"/>
</filter>
<filter id="filter1_d_1_10637" x="130" y="86.1001" width="103.07" height="55.85" filterUnits="userSpaceOnUse" color-interpolation-filters="sRGB">
<feFlood flood-opacity="0" result="BackgroundImageFix"/>
<feColorMatrix in="SourceAlpha" type="matrix" values="0 0 0 0 0 0 0 0 0 0 0 0 0 0 0 0 0 0 127 0" result="hardAlpha"/>
<feOffset dx="-1" dy="3"/>
<feGaussianBlur stdDeviation="2"/>
<feColorMatrix type="matrix" values="0 0 0 0 0 0 0 0 0 0 0 0 0 0 0 0 0 0 0.13 0"/>
<feBlend mode="normal" in2="BackgroundImageFix" result="effect1_dropShadow_1_10637"/>
<feBlend mode="normal" in="SourceGraphic" in2="effect1_dropShadow_1_10637" result="shape"/>
</filter>
<filter id="filter2_d_1_10637" x="130" y="73.05" width="103.07" height="55.85" filterUnits="userSpaceOnUse" color-interpolation-filters="sRGB">
<feFlood flood-opacity="0" result="BackgroundImageFix"/>
<feColorMatrix in="SourceAlpha" type="matrix" values="0 0 0 0 0 0 0 0 0 0 0 0 0 0 0 0 0 0 127 0" result="hardAlpha"/>
<feOffset dx="-1" dy="3"/>
<feGaussianBlur stdDeviation="2"/>
<feColorMatrix type="matrix" values="0 0 0 0 0 0 0 0 0 0 0 0 0 0 0 0 0 0 0.13 0"/>
<feBlend mode="normal" in2="BackgroundImageFix" result="effect1_dropShadow_1_10637"/>
<feBlend mode="normal" in="SourceGraphic" in2="effect1_dropShadow_1_10637" result="shape"/>
</filter>
<filter id="filter3_d_1_10637" x="130" y="60" width="103.07" height="55.85" filterUnits="userSpaceOnUse" color-interpolation-filters="sRGB">
<feFlood flood-opacity="0" result="BackgroundImageFix"/>
<feColorMatrix in="SourceAlpha" type="matrix" values="0 0 0 0 0 0 0 0 0 0 0 0 0 0 0 0 0 0 127 0" result="hardAlpha"/>
<feOffset dx="-1" dy="3"/>
<feGaussianBlur stdDeviation="2"/>
<feColorMatrix type="matrix" values="0 0 0 0 0 0 0 0 0 0 0 0 0 0 0 0 0 0 0.13 0"/>
<feBlend mode="normal" in2="BackgroundImageFix" result="effect1_dropShadow_1_10637"/>
<feBlend mode="normal" in="SourceGraphic" in2="effect1_dropShadow_1_10637" result="shape"/>
</filter>
<filter id="filter4_d_1_10637" x="130" y="49" width="103.07" height="55.85" filterUnits="userSpaceOnUse" color-interpolation-filters="sRGB">
<feFlood flood-opacity="0" result="BackgroundImageFix"/>
<feColorMatrix in="SourceAlpha" type="matrix" values="0 0 0 0 0 0 0 0 0 0 0 0 0 0 0 0 0 0 127 0" result="hardAlpha"/>
<feOffset dx="-1" dy="3"/>
<feGaussianBlur stdDeviation="2"/>
<feColorMatrix type="matrix" values="0 0 0 0 0 0 0 0 0 0 0 0 0 0 0 0 0 0 0.13 0"/>
<feBlend mode="normal" in2="BackgroundImageFix" result="effect1_dropShadow_1_10637"/>
<feBlend mode="normal" in="SourceGraphic" in2="effect1_dropShadow_1_10637" result="shape"/>
</filter>
<filter id="filter5_d_1_10637" x="130" y="38" width="103.07" height="55.85" filterUnits="userSpaceOnUse" color-interpolation-filters="sRGB">
<feFlood flood-opacity="0" result="BackgroundImageFix"/>
<feColorMatrix in="SourceAlpha" type="matrix" values="0 0 0 0 0 0 0 0 0 0 0 0 0 0 0 0 0 0 127 0" result="hardAlpha"/>
<feOffset dx="-1" dy="3"/>
<feGaussianBlur stdDeviation="2"/>
<feColorMatrix type="matrix" values="0 0 0 0 0 0 0 0 0 0 0 0 0 0 0 0 0 0 0.13 0"/>
<feBlend mode="normal" in2="BackgroundImageFix" result="effect1_dropShadow_1_10637"/>
<feBlend mode="normal" in="SourceGraphic" in2="effect1_dropShadow_1_10637" result="shape"/>
</filter>
<filter id="filter6_d_1_10637" x="130" y="27" width="103.07" height="55.85" filterUnits="userSpaceOnUse" color-interpolation-filters="sRGB">
<feFlood flood-opacity="0" result="BackgroundImageFix"/>
<feColorMatrix in="SourceAlpha" type="matrix" values="0 0 0 0 0 0 0 0 0 0 0 0 0 0 0 0 0 0 127 0" result="hardAlpha"/>
<feOffset dx="-1" dy="3"/>
<feGaussianBlur stdDeviation="2"/>
<feColorMatrix type="matrix" values="0 0 0 0 0 0 0 0 0 0 0 0 0 0 0 0 0 0 0.13 0"/>
<feBlend mode="normal" in2="BackgroundImageFix" result="effect1_dropShadow_1_10637"/>
<feBlend mode="normal" in="SourceGraphic" in2="effect1_dropShadow_1_10637" result="shape"/>
</filter>
<filter id="filter7_d_1_10637" x="0" y="94.15" width="103.07" height="55.85" filterUnits="userSpaceOnUse" color-interpolation-filters="sRGB">
<feFlood flood-opacity="0" result="BackgroundImageFix"/>
<feColorMatrix in="SourceAlpha" type="matrix" values="0 0 0 0 0 0 0 0 0 0 0 0 0 0 0 0 0 0 127 0" result="hardAlpha"/>
<feOffset dx="-1" dy="3"/>
<feGaussianBlur stdDeviation="2"/>
<feColorMatrix type="matrix" values="0 0 0 0 0 0 0 0 0 0 0 0 0 0 0 0 0 0 0.13 0"/>
<feBlend mode="normal" in2="BackgroundImageFix" result="effect1_dropShadow_1_10637"/>
<feBlend mode="normal" in="SourceGraphic" in2="effect1_dropShadow_1_10637" result="shape"/>
</filter>
<filter id="filter8_d_1_10637" x="0" y="81.1001" width="103.07" height="55.85" filterUnits="userSpaceOnUse" color-interpolation-filters="sRGB">
<feFlood flood-opacity="0" result="BackgroundImageFix"/>
<feColorMatrix in="SourceAlpha" type="matrix" values="0 0 0 0 0 0 0 0 0 0 0 0 0 0 0 0 0 0 127 0" result="hardAlpha"/>
<feOffset dx="-1" dy="3"/>
<feGaussianBlur stdDeviation="2"/>
<feColorMatrix type="matrix" values="0 0 0 0 0 0 0 0 0 0 0 0 0 0 0 0 0 0 0.13 0"/>
<feBlend mode="normal" in2="BackgroundImageFix" result="effect1_dropShadow_1_10637"/>
<feBlend mode="normal" in="SourceGraphic" in2="effect1_dropShadow_1_10637" result="shape"/>
</filter>
<filter id="filter9_d_1_10637" x="0" y="68.05" width="103.07" height="55.85" filterUnits="userSpaceOnUse" color-interpolation-filters="sRGB">
<feFlood flood-opacity="0" result="BackgroundImageFix"/>
<feColorMatrix in="SourceAlpha" type="matrix" values="0 0 0 0 0 0 0 0 0 0 0 0 0 0 0 0 0 0 127 0" result="hardAlpha"/>
<feOffset dx="-1" dy="3"/>
<feGaussianBlur stdDeviation="2"/>
<feColorMatrix type="matrix" values="0 0 0 0 0 0 0 0 0 0 0 0 0 0 0 0 0 0 0.13 0"/>
<feBlend mode="normal" in2="BackgroundImageFix" result="effect1_dropShadow_1_10637"/>
<feBlend mode="normal" in="SourceGraphic" in2="effect1_dropShadow_1_10637" result="shape"/>
</filter>
<filter id="filter10_d_1_10637" x="0" y="55" width="103.07" height="55.85" filterUnits="userSpaceOnUse" color-interpolation-filters="sRGB">
<feFlood flood-opacity="0" result="BackgroundImageFix"/>
<feColorMatrix in="SourceAlpha" type="matrix" values="0 0 0 0 0 0 0 0 0 0 0 0 0 0 0 0 0 0 127 0" result="hardAlpha"/>
<feOffset dx="-1" dy="3"/>
<feGaussianBlur stdDeviation="2"/>
<feColorMatrix type="matrix" values="0 0 0 0 0 0 0 0 0 0 0 0 0 0 0 0 0 0 0.13 0"/>
<feBlend mode="normal" in2="BackgroundImageFix" result="effect1_dropShadow_1_10637"/>
<feBlend mode="normal" in="SourceGraphic" in2="effect1_dropShadow_1_10637" result="shape"/>
</filter>
<filter id="filter11_d_1_10637" x="48" y="111.15" width="103.07" height="55.85" filterUnits="userSpaceOnUse" color-interpolation-filters="sRGB">
<feFlood flood-opacity="0" result="BackgroundImageFix"/>
<feColorMatrix in="SourceAlpha" type="matrix" values="0 0 0 0 0 0 0 0 0 0 0 0 0 0 0 0 0 0 127 0" result="hardAlpha"/>
<feOffset dx="-1" dy="3"/>
<feGaussianBlur stdDeviation="2"/>
<feColorMatrix type="matrix" values="0 0 0 0 0 0 0 0 0 0 0 0 0 0 0 0 0 0 0.13 0"/>
<feBlend mode="normal" in2="BackgroundImageFix" result="effect1_dropShadow_1_10637"/>
<feBlend mode="normal" in="SourceGraphic" in2="effect1_dropShadow_1_10637" result="shape"/>
</filter>
<filter id="filter12_d_1_10637" x="48" y="98.1001" width="103.07" height="55.85" filterUnits="userSpaceOnUse" color-interpolation-filters="sRGB">
<feFlood flood-opacity="0" result="BackgroundImageFix"/>
<feColorMatrix in="SourceAlpha" type="matrix" values="0 0 0 0 0 0 0 0 0 0 0 0 0 0 0 0 0 0 127 0" result="hardAlpha"/>
<feOffset dx="-1" dy="3"/>
<feGaussianBlur stdDeviation="2"/>
<feColorMatrix type="matrix" values="0 0 0 0 0 0 0 0 0 0 0 0 0 0 0 0 0 0 0.13 0"/>
<feBlend mode="normal" in2="BackgroundImageFix" result="effect1_dropShadow_1_10637"/>
<feBlend mode="normal" in="SourceGraphic" in2="effect1_dropShadow_1_10637" result="shape"/>
</filter>
<filter id="filter13_d_1_10637" x="48" y="85.05" width="103.07" height="55.85" filterUnits="userSpaceOnUse" color-interpolation-filters="sRGB">
<feFlood flood-opacity="0" result="BackgroundImageFix"/>
<feColorMatrix in="SourceAlpha" type="matrix" values="0 0 0 0 0 0 0 0 0 0 0 0 0 0 0 0 0 0 127 0" result="hardAlpha"/>
<feOffset dx="-1" dy="3"/>
<feGaussianBlur stdDeviation="2"/>
<feColorMatrix type="matrix" values="0 0 0 0 0 0 0 0 0 0 0 0 0 0 0 0 0 0 0.13 0"/>
<feBlend mode="normal" in2="BackgroundImageFix" result="effect1_dropShadow_1_10637"/>
<feBlend mode="normal" in="SourceGraphic" in2="effect1_dropShadow_1_10637" result="shape"/>
</filter>
<filter id="filter14_d_1_10637" x="48" y="72" width="103.07" height="55.85" filterUnits="userSpaceOnUse" color-interpolation-filters="sRGB">
<feFlood flood-opacity="0" result="BackgroundImageFix"/>
<feColorMatrix in="SourceAlpha" type="matrix" values="0 0 0 0 0 0 0 0 0 0 0 0 0 0 0 0 0 0 127 0" result="hardAlpha"/>
<feOffset dx="-1" dy="3"/>
<feGaussianBlur stdDeviation="2"/>
<feColorMatrix type="matrix" values="0 0 0 0 0 0 0 0 0 0 0 0 0 0 0 0 0 0 0.13 0"/>
<feBlend mode="normal" in2="BackgroundImageFix" result="effect1_dropShadow_1_10637"/>
<feBlend mode="normal" in="SourceGraphic" in2="effect1_dropShadow_1_10637" result="shape"/>
</filter>
<filter id="filter15_d_1_10637" x="48" y="61" width="103.07" height="55.85" filterUnits="userSpaceOnUse" color-interpolation-filters="sRGB">
<feFlood flood-opacity="0" result="BackgroundImageFix"/>
<feColorMatrix in="SourceAlpha" type="matrix" values="0 0 0 0 0 0 0 0 0 0 0 0 0 0 0 0 0 0 127 0" result="hardAlpha"/>
<feOffset dx="-1" dy="3"/>
<feGaussianBlur stdDeviation="2"/>
<feColorMatrix type="matrix" values="0 0 0 0 0 0 0 0 0 0 0 0 0 0 0 0 0 0 0.13 0"/>
<feBlend mode="normal" in2="BackgroundImageFix" result="effect1_dropShadow_1_10637"/>
<feBlend mode="normal" in="SourceGraphic" in2="effect1_dropShadow_1_10637" result="shape"/>
</filter>
<filter id="filter16_d_1_10637" x="48" y="50" width="103.07" height="55.85" filterUnits="userSpaceOnUse" color-interpolation-filters="sRGB">
<feFlood flood-opacity="0" result="BackgroundImageFix"/>
<feColorMatrix in="SourceAlpha" type="matrix" values="0 0 0 0 0 0 0 0 0 0 0 0 0 0 0 0 0 0 127 0" result="hardAlpha"/>
<feOffset dx="-1" dy="3"/>
<feGaussianBlur stdDeviation="2"/>
<feColorMatrix type="matrix" values="0 0 0 0 0 0 0 0 0 0 0 0 0 0 0 0 0 0 0.13 0"/>
<feBlend mode="normal" in2="BackgroundImageFix" result="effect1_dropShadow_1_10637"/>
<feBlend mode="normal" in="SourceGraphic" in2="effect1_dropShadow_1_10637" result="shape"/>
</filter>
<filter id="filter17_d_1_10637" x="48" y="39" width="103.07" height="55.85" filterUnits="userSpaceOnUse" color-interpolation-filters="sRGB">
<feFlood flood-opacity="0" result="BackgroundImageFix"/>
<feColorMatrix in="SourceAlpha" type="matrix" values="0 0 0 0 0 0 0 0 0 0 0 0 0 0 0 0 0 0 127 0" result="hardAlpha"/>
<feOffset dx="-1" dy="3"/>
<feGaussianBlur stdDeviation="2"/>
<feColorMatrix type="matrix" values="0 0 0 0 0 0 0 0 0 0 0 0 0 0 0 0 0 0 0.13 0"/>
<feBlend mode="normal" in2="BackgroundImageFix" result="effect1_dropShadow_1_10637"/>
<feBlend mode="normal" in="SourceGraphic" in2="effect1_dropShadow_1_10637" result="shape"/>
</filter>
<filter id="filter18_d_1_10637" x="48" y="26" width="103.07" height="55.85" filterUnits="userSpaceOnUse" color-interpolation-filters="sRGB">
<feFlood flood-opacity="0" result="BackgroundImageFix"/>
<feColorMatrix in="SourceAlpha" type="matrix" values="0 0 0 0 0 0 0 0 0 0 0 0 0 0 0 0 0 0 127 0" result="hardAlpha"/>
<feOffset dx="-1" dy="3"/>
<feGaussianBlur stdDeviation="2"/>
<feColorMatrix type="matrix" values="0 0 0 0 0 0 0 0 0 0 0 0 0 0 0 0 0 0 0.13 0"/>
<feBlend mode="normal" in2="BackgroundImageFix" result="effect1_dropShadow_1_10637"/>
<feBlend mode="normal" in="SourceGraphic" in2="effect1_dropShadow_1_10637" result="shape"/>
</filter>
<filter id="filter19_d_1_10637" x="48" y="13" width="103.07" height="55.85" filterUnits="userSpaceOnUse" color-interpolation-filters="sRGB">
<feFlood flood-opacity="0" result="BackgroundImageFix"/>
<feColorMatrix in="SourceAlpha" type="matrix" values="0 0 0 0 0 0 0 0 0 0 0 0 0 0 0 0 0 0 127 0" result="hardAlpha"/>
<feOffset dx="-1" dy="3"/>
<feGaussianBlur stdDeviation="2"/>
<feColorMatrix type="matrix" values="0 0 0 0 0 0 0 0 0 0 0 0 0 0 0 0 0 0 0.13 0"/>
<feBlend mode="normal" in2="BackgroundImageFix" result="effect1_dropShadow_1_10637"/>
<feBlend mode="normal" in="SourceGraphic" in2="effect1_dropShadow_1_10637" result="shape"/>
</filter>
<filter id="filter20_d_1_10637" x="48" y="0" width="103.07" height="55.85" filterUnits="userSpaceOnUse" color-interpolation-filters="sRGB">
<feFlood flood-opacity="0" result="BackgroundImageFix"/>
<feColorMatrix in="SourceAlpha" type="matrix" values="0 0 0 0 0 0 0 0 0 0 0 0 0 0 0 0 0 0 127 0" result="hardAlpha"/>
<feOffset dx="-1" dy="3"/>
<feGaussianBlur stdDeviation="2"/>
<feColorMatrix type="matrix" values="0 0 0 0 0 0 0 0 0 0 0 0 0 0 0 0 0 0 0.13 0"/>
<feBlend mode="normal" in2="BackgroundImageFix" result="effect1_dropShadow_1_10637"/>
<feBlend mode="normal" in="SourceGraphic" in2="effect1_dropShadow_1_10637" result="shape"/>
</filter>
</defs>
</svg>
