<svg width="429" height="361" viewBox="0 0 429 361" fill="none" xmlns="http://www.w3.org/2000/svg">
<path d="M375.12 224.936L408.945 357.305H379.742L375.12 224.936ZM370.722 193.817L376.473 360.688H413.229L370.722 193.817Z" fill="#E0E0E0"/>
<path d="M380.983 360.688H285.822L307.244 117.937H402.405L380.983 360.688Z" fill="#E6E6E6"/>
<path d="M396.204 123.912L375.796 355.05H292.361L295.969 315.249L298.788 284.017L307.695 184.797V184.685L312.769 123.912H396.204Z" fill="#F5F5F5"/>
<path d="M341.52 123.912V124.138L298.675 284.017L307.47 184.797L323.706 124.138V123.912H341.52Z" fill="white"/>
<path d="M354.712 123.912V124.138L292.925 355.05H292.361L295.969 315.249L347.045 124.138L347.158 123.912H354.712Z" fill="white"/>
<path d="M206.22 0H28.8641C22.7616 0 17.8146 4.94704 17.8146 11.0495V347.744C17.8146 353.846 22.7616 358.793 28.8641 358.793H206.22C212.322 358.793 217.269 353.846 217.269 347.744V11.0495C217.269 4.94704 212.322 0 206.22 0Z" fill="#C7B4FF"/>
<path opacity="0.2" d="M206.22 0H28.8641C22.7616 0 17.8146 4.94704 17.8146 11.0495V347.744C17.8146 353.846 22.7616 358.793 28.8641 358.793H206.22C212.322 358.793 217.269 353.846 217.269 347.744V11.0495C217.269 4.94704 212.322 0 206.22 0Z" fill="#C7B4FF"/>
<path d="M214.676 0H37.3203C31.2178 0 26.2708 4.94704 26.2708 11.0495V347.744C26.2708 353.846 31.2178 358.793 37.3203 358.793H214.676C220.779 358.793 225.726 353.846 225.726 347.744V11.0495C225.726 4.94704 220.779 0 214.676 0Z" fill="#4B0082"/>
<path d="M218.622 11.9515V346.143C218.657 346.739 218.563 347.336 218.347 347.892C218.13 348.449 217.797 348.953 217.37 349.37C216.942 349.786 216.43 350.107 215.868 350.309C215.306 350.51 214.708 350.589 214.112 350.54H37.433C34.9525 350.54 33.7123 348.962 33.7123 346.481V11.6133C33.7123 9.35826 34.6143 7.77975 36.8693 7.77975H80.9546C81.5523 7.75693 82.1428 7.91753 82.6467 8.24C83.1505 8.56247 83.5437 9.03138 83.7733 9.58376L85.6901 13.981C85.9371 14.5123 86.3377 14.9574 86.8401 15.2589C87.3425 15.5604 87.9238 15.7043 88.5088 15.6723H163.713C164.311 15.6951 164.901 15.5345 165.405 15.212C165.909 14.8895 166.302 14.4206 166.532 13.8683L168.336 9.58376C168.566 9.03138 168.959 8.56247 169.463 8.24C169.966 7.91753 170.557 7.75693 171.155 7.77975H214.676C215.219 7.76164 215.759 7.85898 216.261 8.06534C216.763 8.27169 217.216 8.58235 217.589 8.97674C217.962 9.37114 218.247 9.84028 218.425 10.3531C218.603 10.8659 218.671 11.4108 218.622 11.9515Z" fill="#E0E0E0"/>
<path opacity="0.6" d="M54.0073 20.9715H56.2623V17.9047H54.0073V20.9715Z" fill="white"/>
<path opacity="0.6" d="M50.2865 20.9715H52.5415V16.89H50.2865V20.9715Z" fill="white"/>
<path opacity="0.6" d="M46.6786 20.9715H48.9336V15.864H46.6786V20.9715Z" fill="white"/>
<path opacity="0.6" d="M42.845 20.9715H45.1V14.8379H42.845V20.9715Z" fill="white"/>
<path opacity="0.6" d="M198.44 16.7998H197.087V19.8666H198.44V16.7998Z" fill="white"/>
<path opacity="0.6" d="M199.455 20.8588H210.279V15.5595H199.455V20.8588Z" fill="white"/>
<path opacity="0.6" d="M121.883 10.4858C123.315 10.4858 124.476 9.32472 124.476 7.89251C124.476 6.46029 123.315 5.29926 121.883 5.29926C120.451 5.29926 119.29 6.46029 119.29 7.89251C119.29 9.32472 120.451 10.4858 121.883 10.4858Z" fill="white"/>
<path opacity="0.6" d="M129.55 7.89252C129.55 8.34107 129.372 8.77123 129.054 9.08841C128.737 9.40558 128.307 9.58377 127.859 9.58377C127.43 9.55512 127.028 9.36437 126.735 9.05025C126.442 8.73613 126.279 8.3222 126.28 7.89252C126.28 7.47387 126.446 7.07237 126.742 6.77635C127.038 6.48032 127.44 6.31401 127.859 6.31401C128.288 6.31306 128.702 6.47568 129.016 6.76886C129.33 7.06204 129.521 7.46379 129.55 7.89252Z" fill="white"/>
<path d="M218.622 29.2023H33.7123V335.082H218.622V29.2023Z" fill="white"/>
<path d="M137.893 94.8228C137.893 94.8228 131.241 95.4993 128.648 103.392C127.731 106.086 127.387 108.943 127.64 111.778C127.892 114.613 128.735 117.363 130.114 119.853C131.241 121.77 125.604 127.971 133.271 134.06C140.938 140.148 136.54 147.364 136.54 147.364L163.375 151.085C164.647 150.301 165.679 149.181 166.355 147.848C167.032 146.515 167.327 145.021 167.208 143.531C166.983 138.119 163.149 136.428 163.037 132.594C162.924 128.761 165.517 125.491 164.502 120.192C163.488 114.892 159.203 115.456 160.331 109.931C160.894 107 161.909 100.46 156.835 96.4013C151.762 92.3423 142.403 91.1021 137.893 94.8228Z" fill="#2E353A"/>
<path d="M180.062 162.247C174.199 165.179 163.6 156.835 157.85 151.762L154.017 148.154L156.835 140.148L157.963 137.217C161.684 139.472 172.395 153.227 175.665 153.227C178.934 153.227 172.169 131.241 172.169 131.241L176.679 129.663C176.679 129.663 191.111 156.723 180.062 162.247Z" fill="#EBB376"/>
<path opacity="0.2" d="M157.85 151.762L154.017 148.154L156.835 140.148C158.131 143.875 158.48 147.866 157.85 151.762Z" fill="black"/>
<path opacity="0.2" d="M171.267 329.005L164.502 329.907L162.135 322.127L169.238 319.646L171.267 329.005Z" fill="black"/>
<path opacity="0.2" d="M131.579 331.485L124.702 331.147L123.8 323.142L131.241 321.901L131.579 331.485Z" fill="black"/>
<path d="M171.831 324.156L161.684 325.96C151.536 300.479 144.207 279.169 139.134 261.58C136.315 252.109 134.736 243.653 133.045 236.099L134.06 263.835V326.863H122.672C97.7544 207.347 115.456 180.287 115.456 180.287L145.335 175.101C146.533 180.64 147.361 186.252 147.815 191.901L149.168 201.71L160.894 262.144L171.831 324.156Z" fill="#E12E5E"/>
<path d="M160.218 324.72L172.733 320.548L172.62 325.848L162.135 329.23L160.218 324.72Z" fill="#407BFF"/>
<path d="M121.432 325.284L134.511 323.367L133.383 328.554L122.559 330.019L121.432 325.284Z" fill="#407BFF"/>
<path d="M116.809 175.777L115.118 180.738L147.139 184.91L146.688 180.513L116.809 175.777Z" fill="#2E353A"/>
<path d="M138.683 183.783L132.143 182.993L132.707 178.371L139.359 179.16L138.683 183.783Z" fill="white"/>
<path d="M126.253 176.638L124.805 176.411L123.61 184.041L125.059 184.268L126.253 176.638Z" fill="#407BFF"/>
<path d="M144.658 186.15L142.967 185.925L143.531 178.145L145.109 178.371L144.658 186.15Z" fill="#407BFF"/>
<path d="M146.575 180.513L116.809 175.777C118.574 168.422 119.557 160.902 119.741 153.34C119.853 150.296 119.853 146.913 119.741 142.967C119.741 140.825 119.628 138.57 119.515 136.089C119.402 133.609 119.402 132.256 119.29 130.226C123.617 130.095 127.948 130.246 132.256 130.677C136.856 131.128 141.416 131.919 145.899 133.045C151.536 134.624 157.963 137.104 157.963 137.104C157.963 137.104 158.865 137.668 157.737 143.869C156.61 150.07 153.678 160.218 146.575 180.513Z" fill="#407BFF"/>
<path opacity="0.6" d="M157.737 143.869C156.61 149.732 153.678 160.218 146.575 180.513L116.809 175.777C118.574 168.422 119.557 160.902 119.741 153.34C119.853 151.085 119.853 148.605 119.853 145.786C119.87 144.845 119.832 143.904 119.741 142.967C119.741 140.825 119.628 138.57 119.515 136.089C119.402 134.285 119.402 132.369 119.29 130.339H122.672C125.829 130.452 129.099 130.565 132.256 130.903C136.812 131.399 141.332 132.19 145.786 133.271C149.394 134.285 153.115 135.638 155.482 136.428L157.963 137.442C157.963 137.442 158.865 137.668 157.737 143.869Z" fill="#4B0082"/>
<path d="M145.109 134.285C145.786 137.555 141.614 138.908 141.614 138.908C134.624 135.864 133.271 132.143 133.271 132.143C139.134 129.099 137.442 120.53 137.442 120.53L138.57 121.206L145.673 124.702C145.109 126.055 144.658 127.182 144.32 128.197C142.742 133.496 145.109 134.285 145.109 134.285Z" fill="#EBB376"/>
<path opacity="0.2" d="M139.134 261.58C136.315 252.109 134.173 243.653 132.594 236.099C132.703 227.199 133.343 218.313 134.511 209.49C134.511 209.49 138.908 243.766 139.134 261.58Z" fill="black"/>
<path d="M155.482 136.202C155.37 136.879 153.791 138.795 150.07 139.81C149.498 140.042 148.884 140.157 148.266 140.148C145.878 140.548 143.439 140.548 141.05 140.148C137.947 139.727 134.913 138.893 132.03 137.668L130.565 136.991C125.491 134.624 122.221 131.579 122.672 130.114L130.114 130.565H132.256C136.812 131.06 141.332 131.851 145.786 132.932L148.041 133.609L149.394 134.06L155.482 136.089V136.202Z" fill="#EBB376"/>
<path d="M132.03 137.668L130.565 136.991C131 134.848 130.844 132.626 130.114 130.565H131.692C132.266 132.888 132.381 135.301 132.03 137.668Z" fill="#2E353A"/>
<path d="M150.07 139.81C149.498 140.042 148.884 140.157 148.266 140.148C148.696 138.018 148.619 135.817 148.041 133.722L149.394 134.173C150.019 135.982 150.25 137.904 150.07 139.81Z" fill="#2E353A"/>
<path opacity="0.2" d="M145.673 124.702C145.109 126.055 144.658 127.182 144.32 128.197C141.576 126.692 139.517 124.189 138.57 121.206L145.673 124.702Z" fill="black"/>
<path d="M145.335 97.9798C153.227 98.0926 155.708 102.264 156.159 110.495C156.835 120.643 154.468 127.746 144.658 125.491C131.354 122.447 132.256 97.8671 145.335 97.9798Z" fill="#EBB376"/>
<path d="M151.085 109.931C151.704 111.107 152.461 112.205 153.34 113.201C153.126 113.532 152.82 113.794 152.46 113.954C152.099 114.115 151.7 114.166 151.311 114.103L151.085 109.931Z" fill="#D58745"/>
<path d="M146.237 109.255C146.27 109.373 146.279 109.498 146.263 109.62C146.247 109.742 146.206 109.859 146.143 109.965C146.079 110.071 145.995 110.162 145.895 110.234C145.795 110.306 145.681 110.356 145.56 110.382C145.109 110.495 144.771 109.931 144.771 109.255C144.771 108.578 145.109 108.127 145.448 108.127C145.786 108.127 146.237 108.578 146.237 109.255Z" fill="#2E353A"/>
<path d="M145.335 108.127L146.688 107.564C146.688 107.564 146.011 108.804 145.335 108.127Z" fill="#2E353A"/>
<path d="M154.355 109.029C154.355 109.706 154.017 110.157 153.566 110.157C153.115 110.157 152.776 109.706 152.776 109.029C152.776 108.353 153.115 107.902 153.566 107.902C154.017 107.902 154.355 108.353 154.355 109.029Z" fill="#2E353A"/>
<path d="M153.34 107.902L154.806 107.338C154.806 107.338 154.129 108.466 153.34 107.902Z" fill="#2E353A"/>
<path d="M146.237 103.843C145.624 103.752 144.999 103.807 144.411 104.003C143.823 104.199 143.29 104.53 142.854 104.97" stroke="#2E353A" stroke-width="0.59" stroke-linecap="round" stroke-linejoin="round"/>
<path d="M151.987 103.505C152.531 103.388 153.094 103.389 153.638 103.505C154.182 103.622 154.695 103.852 155.144 104.181" stroke="#2E353A" stroke-width="0.59" stroke-linecap="round" stroke-linejoin="round"/>
<path d="M150.07 117.147C149.708 118.066 149.407 119.008 149.168 119.966H148.605C146.35 119.741 145.335 118.839 144.997 117.937C144.82 117.509 144.742 117.046 144.771 116.584C144.77 116.316 144.808 116.05 144.884 115.794C146.232 116.582 147.73 117.081 149.281 117.26L150.07 117.147Z" fill="#2E353A"/>
<path d="M149.281 117.147L149.056 117.937C146.913 117.598 145.335 117.147 144.771 116.471C144.769 116.204 144.807 115.938 144.884 115.682C146.232 116.469 147.73 116.969 149.281 117.147Z" fill="white"/>
<path d="M148.605 119.853C146.35 119.628 145.335 118.726 144.997 117.824C145.865 117.932 146.706 118.199 147.477 118.613C147.966 118.908 148.357 119.339 148.605 119.853Z" fill="#DE5753"/>
<path d="M136.54 111.172C136.54 111.172 140.374 104.745 139.81 99.7838C139.81 99.7838 155.482 93.4698 156.159 109.368C156.159 109.368 157.737 95.2738 144.207 94.8228C130.677 94.3718 130.565 114.216 137.442 120.192C137.442 120.192 134.285 115.231 136.54 111.172Z" fill="#2E353A"/>
<path d="M137.893 112.863C137.807 111.955 137.37 111.117 136.675 110.528C135.98 109.938 135.082 109.643 134.173 109.706C131.692 109.931 130.452 114.892 136.54 116.133C137.442 116.358 137.893 115.456 137.893 112.863Z" fill="#EBB376"/>
<path d="M139.021 99.4456C138.795 99.7838 140.825 101.024 140.938 101.137C142.473 101.625 144.116 101.664 145.673 101.25C147.364 100.911 149.845 100.009 151.198 101.588C152.551 103.166 151.536 105.196 152.776 106.436C154.017 107.676 157.061 107.113 157.963 109.255C158.536 110.566 158.732 112.011 158.527 113.427C161.345 110.27 160.331 105.196 158.639 101.813C154.806 94.3718 144.884 94.0336 139.021 99.4456Z" fill="#2E353A"/>
<path d="M158.301 108.015C157.352 107.559 156.31 107.328 155.257 107.338C154.236 107.294 153.223 107.528 152.325 108.015H152.213C151.911 107.863 151.576 107.794 151.239 107.814C150.903 107.833 150.577 107.942 150.296 108.127L150.07 107.902C149.091 107.416 148.006 107.183 146.913 107.225C145.784 107.246 144.686 107.599 143.756 108.24V108.578H137.33C136.744 108.512 136.153 108.63 135.638 108.917C135.3 109.029 135.3 109.368 135.526 109.593C135.638 109.819 135.864 109.819 136.089 109.593C136.452 109.328 136.882 109.172 137.33 109.142H144.095C144.32 110.946 144.771 112.412 146.913 112.412C149.056 112.412 149.619 111.284 150.183 109.255C150.463 109.019 150.813 108.88 151.179 108.86C151.545 108.839 151.908 108.938 152.213 109.142C152.551 110.946 153.34 112.299 155.257 112.299C157.174 112.299 157.737 111.059 158.076 108.691H158.414C158.527 108.353 158.414 108.24 158.301 108.015Z" fill="#407BFF"/>
<path opacity="0.3" d="M158.301 108.015C157.352 107.559 156.31 107.328 155.257 107.338C154.236 107.294 153.223 107.528 152.325 108.015H152.213C151.911 107.863 151.576 107.794 151.239 107.814C150.903 107.833 150.577 107.942 150.296 108.127L150.07 107.902C149.091 107.416 148.006 107.183 146.913 107.225C145.784 107.246 144.686 107.599 143.756 108.24V108.578H137.33C136.744 108.512 136.153 108.63 135.638 108.917C135.3 109.029 135.3 109.368 135.526 109.593C135.638 109.819 135.864 109.819 136.089 109.593C136.452 109.328 136.882 109.172 137.33 109.142H144.095C144.32 110.946 144.771 112.412 146.913 112.412C149.056 112.412 149.619 111.284 150.183 109.255C150.463 109.019 150.813 108.88 151.179 108.86C151.545 108.839 151.908 108.938 152.213 109.142C152.551 110.946 153.34 112.299 155.257 112.299C157.174 112.299 157.737 111.059 158.076 108.691H158.414C158.527 108.353 158.414 108.24 158.301 108.015Z" fill="black"/>
<path d="M147.364 108.015L146.011 111.735C146.011 111.735 144.658 111.51 144.546 108.917C144.932 108.587 145.381 108.337 145.864 108.183C146.348 108.028 146.858 107.971 147.364 108.015Z" fill="#407BFF"/>
<path d="M155.708 108.015L154.355 111.735C154.355 111.735 153.002 111.51 152.889 108.917C153.264 108.569 153.711 108.308 154.198 108.153C154.685 107.997 155.201 107.95 155.708 108.015Z" fill="#407BFF"/>
<path d="M172.169 131.241C172.169 131.241 170.027 129.437 170.14 128.197C170.253 126.957 178.258 121.094 179.385 121.206C180.513 121.319 183.219 122.785 183.444 123.687C183.67 124.589 176.679 129.775 176.679 129.775L172.169 131.241Z" fill="#EBB376"/>
<path d="M136.428 152.889L139.923 148.266C140.001 148.147 140.115 148.056 140.249 148.006C140.382 147.956 140.528 147.949 140.665 147.986C140.803 148.024 140.925 148.104 141.014 148.215C141.104 148.326 141.156 148.462 141.163 148.605L142.742 154.129C142.875 154.337 143.073 154.496 143.305 154.58L148.717 156.384C148.848 156.432 148.964 156.514 149.053 156.622C149.142 156.729 149.2 156.858 149.223 156.995C149.246 157.133 149.232 157.274 149.183 157.404C149.134 157.534 149.051 157.649 148.943 157.737L144.095 161.007C143.986 161.054 143.895 161.133 143.835 161.235C143.774 161.336 143.747 161.453 143.756 161.571V167.321C143.742 167.458 143.692 167.589 143.612 167.701C143.532 167.813 143.423 167.902 143.298 167.959C143.172 168.016 143.034 168.039 142.897 168.026C142.76 168.013 142.629 167.964 142.516 167.885L138.006 164.39C137.909 164.321 137.798 164.275 137.681 164.256C137.564 164.236 137.444 164.244 137.33 164.277L131.805 165.968C131.241 166.194 130.677 165.517 130.903 164.953L132.82 159.541C132.878 159.432 132.898 159.306 132.878 159.184C132.858 159.062 132.797 158.95 132.707 158.865L129.437 154.242C129.353 154.122 129.304 153.98 129.296 153.834C129.288 153.687 129.321 153.541 129.392 153.413C129.462 153.284 129.567 153.177 129.694 153.105C129.822 153.032 129.967 152.996 130.114 153.002L135.864 153.227C135.981 153.237 136.099 153.21 136.2 153.149C136.301 153.088 136.381 152.997 136.428 152.889Z" fill="#FFD700"/>
<path opacity="0.6" d="M121.432 325.284L134.511 323.367L133.383 328.554L122.559 330.019L121.432 325.284Z" fill="white"/>
<path opacity="0.6" d="M160.218 324.72L172.733 320.548L172.62 325.848L162.135 329.23L160.218 324.72Z" fill="white"/>
<path d="M154.806 95.8376C159.654 98.2053 162.924 101.25 161.233 111.735C159.541 122.221 166.983 120.417 166.081 128.986C165.179 137.555 170.253 136.54 169.125 144.095" stroke="#2E353A" stroke-width="0.41" stroke-linecap="round" stroke-linejoin="round"/>
<path opacity="0.2" d="M119.853 145.786C119.87 144.845 119.832 143.904 119.741 142.967C119.741 140.825 119.628 138.57 119.515 136.089L121.206 135.413C121.432 138.795 121.094 143.08 119.853 145.786Z" fill="black"/>
<path d="M121.206 136.089C121.186 136.622 121.111 137.151 120.981 137.668C120.868 138.119 120.304 141.05 119.741 141.163C119.177 141.276 117.373 141.501 114.103 142.291C107.676 143.644 97.8671 148.154 96.7396 151.085C94.3718 156.835 110.946 170.929 110.946 170.929L106.549 174.424C106.549 174.424 88.1706 161.909 86.2538 151.085C84.3371 140.261 108.466 130.677 119.29 130.226C119.628 130.226 120.304 131.918 120.417 132.143C120.96 133.387 121.229 134.733 121.206 136.089Z" fill="#EBB376"/>
<path d="M104.632 165.63L110.946 170.929C110.946 170.929 113.088 170.253 114.329 175.214C115.569 180.175 115.682 182.993 111.623 184.234C107.564 185.474 106.211 185.474 106.211 184.234C106.211 182.993 107.564 175.439 107.564 175.439L101.475 170.027L104.632 165.63Z" fill="#EBB376"/>
<path d="M60.4341 74.0768C70.1482 74.0768 78.0231 66.2019 78.0231 56.4878C78.0231 46.7736 70.1482 38.8988 60.4341 38.8988C50.72 38.8988 42.8451 46.7736 42.8451 56.4878C42.8451 66.2019 50.72 74.0768 60.4341 74.0768Z" fill="#20D08F"/>
<path d="M218.622 314.46H33.7123V335.882H218.622V314.46Z" fill="#E0E0E0"/>
<path d="M111.397 50.1738C111.397 51.4141 110.495 52.4288 108.578 52.4288C107.6 52.446 106.645 52.1277 105.872 51.5268L106.323 50.6248C106.627 50.9016 106.983 51.1142 107.37 51.2499C107.758 51.3855 108.169 51.4414 108.578 51.4141C109.706 51.4141 110.382 50.9631 110.382 50.1738C110.382 49.3846 109.819 48.8208 108.466 48.8208H107.902V48.1443L109.819 45.8893H106.211V44.8745H111.059V45.6638L109.142 48.0315C109.433 48.0162 109.723 48.0603 109.997 48.1611C110.27 48.2619 110.519 48.4172 110.73 48.6177C110.941 48.8182 111.109 49.0595 111.224 49.3271C111.339 49.5946 111.397 49.8827 111.397 50.1738Z" fill="#1DBA80"/>
<path d="M118.839 50.512H117.373V52.316H116.358V50.512H112.299V49.7228L116.02 44.8745H117.147L113.539 49.6101H116.358V48.0315H117.373V49.6101H118.839V50.512Z" fill="#1DBA80"/>
<path d="M124.363 50.1738C124.363 51.4141 123.461 52.4288 121.545 52.4288C120.566 52.446 119.611 52.1277 118.839 51.5268L119.402 50.6248C119.68 50.9045 120.016 51.1201 120.386 51.2564C120.756 51.3927 121.152 51.4465 121.545 51.4141C122.672 51.4141 123.349 50.9631 123.349 50.1738C123.349 49.3846 122.785 48.8208 121.545 48.8208H120.868V48.1443L122.785 45.8893H119.177V44.8745H124.138V45.6638L122.108 48.0315C122.399 48.0162 122.69 48.0603 122.963 48.1611C123.236 48.2619 123.486 48.4172 123.697 48.6177C123.908 48.8182 124.076 49.0595 124.19 49.3271C124.305 49.5946 124.364 49.8827 124.363 50.1738Z" fill="#1DBA80"/>
<path d="M145.673 44.8745V52.316H144.658V45.8893H142.967V44.8745H145.673Z" fill="#1DBA80"/>
<path d="M153.002 50.061C153.003 50.3919 152.935 50.7194 152.803 51.0224C152.67 51.3254 152.475 51.5973 152.231 51.8204C151.986 52.0434 151.698 52.2129 151.384 52.3177C151.07 52.4224 150.738 52.4603 150.409 52.4288C148.379 52.4288 147.252 51.0758 147.252 48.708C147.252 46.3403 148.717 44.8745 150.747 44.8745C151.417 44.8243 152.086 44.9818 152.664 45.3255L152.213 46.1148C151.799 45.8858 151.332 45.7691 150.86 45.7765C149.281 45.7765 148.379 46.6785 148.379 48.5953V48.8208C148.623 48.4863 148.947 48.2182 149.321 48.041C149.695 47.8637 150.108 47.783 150.521 47.806C150.836 47.7744 151.154 47.8093 151.454 47.9084C151.754 48.0075 152.03 48.1685 152.264 48.3812C152.498 48.5938 152.684 48.8532 152.811 49.1426C152.939 49.432 153.003 49.7449 153.002 50.061ZM151.987 50.061C151.987 49.2718 151.311 48.708 150.296 48.708C150.085 48.6753 149.87 48.6887 149.665 48.7476C149.461 48.8064 149.271 48.9092 149.11 49.0487C148.949 49.1882 148.821 49.3611 148.733 49.5554C148.646 49.7498 148.602 49.9608 148.605 50.1738C148.605 50.8503 149.168 51.5268 150.409 51.5268C150.61 51.5424 150.813 51.516 151.004 51.4493C151.195 51.3827 151.37 51.2772 151.519 51.1395C151.667 51.0018 151.785 50.8349 151.866 50.6493C151.946 50.4637 151.988 50.2634 151.987 50.061Z" fill="#1DBA80"/>
<path d="M156.159 44.8745V52.316H155.031V45.8893H153.453V44.8745H156.159Z" fill="#1DBA80"/>
<path d="M160.782 49.0463L159.429 50.3993V52.316H158.301V44.8745H159.429V49.0463L163.375 44.8745H164.615L161.458 48.257L164.841 52.316H163.6L160.782 49.0463Z" fill="#1DBA80"/>
<path d="M188.744 44.8745V45.6638L185.699 52.316H184.572L187.503 45.8893H184.121V47.1295H183.106V44.8745H188.744Z" fill="#1DBA80"/>
<path d="M195.17 50.061C195.157 50.3971 195.074 50.7268 194.929 51.0301C194.784 51.3334 194.579 51.604 194.325 51.8255C194.072 52.047 193.777 52.2147 193.457 52.3184C193.137 52.4221 192.799 52.4596 192.464 52.4288C190.548 52.4288 189.42 51.0758 189.42 48.708C189.42 46.3403 190.886 44.8745 192.915 44.8745C193.549 44.833 194.18 44.9907 194.719 45.3255L194.381 46.1148C193.927 45.8856 193.424 45.7695 192.915 45.7765C191.45 45.7765 190.435 46.6785 190.435 48.5953V48.8208C190.679 48.4863 191.003 48.2182 191.377 48.0409C191.751 47.8637 192.164 47.7829 192.577 47.806C192.897 47.7751 193.22 47.8097 193.527 47.9077C193.833 48.0057 194.116 48.1651 194.359 48.3761C194.601 48.5871 194.798 48.8453 194.938 49.135C195.077 49.4247 195.157 49.7398 195.17 50.061ZM194.156 50.061C194.156 49.2718 193.479 48.708 192.464 48.708C192.254 48.6752 192.039 48.6887 191.834 48.7476C191.629 48.8064 191.44 48.9091 191.279 49.0487C191.118 49.1882 190.989 49.3611 190.902 49.5554C190.815 49.7497 190.771 49.9608 190.773 50.1738C190.773 50.8503 191.337 51.5268 192.464 51.5268C192.675 51.5596 192.89 51.5461 193.095 51.4872C193.3 51.4284 193.489 51.3257 193.65 51.1861C193.811 51.0466 193.94 50.8737 194.027 50.6794C194.114 50.4851 194.158 50.274 194.156 50.061Z" fill="#1DBA80"/>
<path d="M201.71 50.061C201.696 50.3971 201.614 50.7268 201.469 51.0301C201.324 51.3334 201.118 51.604 200.865 51.8255C200.612 52.047 200.316 52.2147 199.996 52.3184C199.677 52.4221 199.339 52.4596 199.004 52.4288C197.087 52.4288 195.96 51.0758 195.96 48.708C195.96 46.3403 197.313 44.8745 199.455 44.8745C200.089 44.833 200.719 44.9907 201.259 45.3255L200.921 46.1148C200.467 45.8856 199.964 45.7695 199.455 45.7765C197.989 45.7765 196.974 46.6785 196.974 48.5953V48.8208C197.218 48.4863 197.542 48.2182 197.917 48.0409C198.291 47.8637 198.703 47.7829 199.117 47.806C199.437 47.7751 199.76 47.8097 200.066 47.9077C200.372 48.0057 200.655 48.1651 200.898 48.3761C201.141 48.5871 201.338 48.8453 201.477 49.135C201.617 49.4247 201.696 49.7398 201.71 50.061ZM200.582 50.061C200.582 49.2718 200.019 48.708 198.891 48.708C198.684 48.6927 198.475 48.7185 198.278 48.7839C198.081 48.8494 197.898 48.9532 197.741 49.0894C197.584 49.2256 197.455 49.3915 197.362 49.5776C197.269 49.7637 197.214 49.9663 197.2 50.1738C197.2 50.8503 197.876 51.5268 199.004 51.5268C199.206 51.5423 199.409 51.516 199.6 51.4493C199.791 51.3826 199.966 51.2772 200.114 51.1395C200.262 51.0018 200.381 50.8349 200.461 50.6493C200.542 50.4637 200.583 50.2634 200.582 50.061Z" fill="#1DBA80"/>
<path d="M150.296 66.9735H104.97C104.036 66.9735 103.279 67.7307 103.279 68.6648V73.7385C103.279 74.6726 104.036 75.4298 104.97 75.4298H150.296C151.23 75.4298 151.987 74.6726 151.987 73.7385V68.6648C151.987 67.7307 151.23 66.9735 150.296 66.9735Z" fill="#C7B4FF"/>
<path d="M203.176 66.9735H157.85C156.916 66.9735 156.159 67.7307 156.159 68.6648V73.7385C156.159 74.6726 156.916 75.4298 157.85 75.4298H203.176C204.11 75.4298 204.867 74.6726 204.867 73.7385V68.6648C204.867 67.7307 204.11 66.9735 203.176 66.9735Z" fill="#C7B4FF"/>
<path d="M71.0326 325.842H60.434C59.3132 325.842 58.4045 326.751 58.4045 327.872V338.504C58.4045 339.625 59.3132 340.534 60.434 340.534H71.0326C72.1534 340.534 73.0621 339.625 73.0621 338.504V327.872C73.0621 326.751 72.1534 325.842 71.0326 325.842Z" fill="#1DBA80" fill-opacity="0.5"/>
<path d="M111.961 325.842H101.362C100.241 325.842 99.3328 326.751 99.3328 327.872V338.504C99.3328 339.625 100.241 340.534 101.362 340.534H111.961C113.082 340.534 113.99 339.625 113.99 338.504V327.872C113.99 326.751 113.082 325.842 111.961 325.842Z" fill="#1DBA80" fill-opacity="0.5"/>
<path d="M152.889 325.842H142.291C141.17 325.842 140.261 326.751 140.261 327.872V338.504C140.261 339.625 141.17 340.534 142.291 340.534H152.889C154.01 340.534 154.919 339.625 154.919 338.504V327.872C154.919 326.751 154.01 325.842 152.889 325.842Z" fill="#1DBA80" fill-opacity="0.5"/>
<path d="M193.705 325.842H183.106C181.985 325.842 181.077 326.751 181.077 327.872V338.504C181.077 339.625 181.985 340.534 183.106 340.534H193.705C194.826 340.534 195.734 339.625 195.734 338.504V327.872C195.734 326.751 194.826 325.842 193.705 325.842Z" fill="#1DBA80" fill-opacity="0.5"/>
<path d="M427.926 358.545H0.524399C0.234781 358.545 0 358.971 0 359.496V359.654C0 360.179 0.234781 360.605 0.524399 360.605H427.926C428.216 360.605 428.45 360.179 428.45 359.654V359.496C428.45 358.971 428.216 358.545 427.926 358.545Z" fill="#343434"/>
<path d="M360.933 24H339.623C337.07 24 335 26.0697 335 28.6228V49.9551C335 52.5081 337.07 54.5778 339.623 54.5778H360.933C363.486 54.5778 365.555 52.5081 365.555 49.9551V28.6228C365.555 26.0697 363.486 24 360.933 24Z" fill="#4B0082"/>
<path d="M347.021 35.7278L349.344 30.4181C349.392 30.2842 349.482 30.169 349.6 30.089C349.718 30.009 349.858 29.9684 350.001 29.9728C350.143 29.9773 350.28 30.0266 350.393 30.1138C350.506 30.2009 350.588 30.3215 350.629 30.4582L353.45 35.4634C353.628 35.6347 353.858 35.7427 354.104 35.7707L359.787 36.2647C359.925 36.281 360.057 36.3337 360.168 36.4174C360.28 36.501 360.367 36.6127 360.421 36.741C360.476 36.8693 360.495 37.0098 360.477 37.148C360.46 37.2862 360.406 37.4173 360.321 37.528L356.368 41.837C356.273 41.9077 356.204 42.0062 356.168 42.1187C356.133 42.2312 356.133 42.3519 356.17 42.464L357.509 48.0561C357.528 48.1927 357.51 48.3316 357.458 48.4591C357.405 48.5866 357.321 48.6982 357.212 48.7828C357.103 48.8675 356.974 48.9222 356.838 48.9416C356.702 48.9609 356.563 48.9443 356.435 48.8932L351.235 46.5444C351.124 46.5004 351.005 46.4819 350.887 46.4902C350.769 46.4985 350.654 46.5334 350.55 46.5923L345.571 49.5238C345.076 49.8744 344.37 49.3478 344.458 48.747L345.062 43.0374C345.093 42.9174 345.083 42.7905 345.035 42.6763C344.987 42.5621 344.902 42.467 344.794 42.4058L340.538 38.6716C340.428 38.5742 340.348 38.448 340.306 38.3074C340.264 38.1668 340.262 38.0172 340.3 37.8756C340.339 37.7339 340.416 37.6058 340.523 37.5055C340.63 37.4052 340.763 37.3368 340.907 37.3079L346.552 36.188C346.668 36.1701 346.776 36.116 346.86 36.0334C346.945 35.9509 347.001 35.844 347.021 35.7278Z" fill="#FFD700"/>
<path d="M344.113 54.0073C344.113 54.0073 343.888 58.9683 338.137 63.3655C340.42 62.5809 342.522 61.3492 344.323 59.7424C346.123 58.1355 347.585 56.1858 348.623 54.0073H344.113Z" fill="#4B0082"/>
<path d="M337.01 104.561L332.613 91.1867C332.057 90.6101 331.634 89.9198 331.372 89.1637C331.034 88.0398 331.936 78.7116 332.5 78.0372C333.064 77.3629 340.392 76.8009 341.182 77.1381C341.971 77.4753 340.054 86.354 339.941 87.5903C339.713 88.6675 339.293 89.6952 338.701 90.6248L343.324 102.313L337.01 104.561Z" fill="#EBB376"/>
<path d="M343.888 134.007C336.897 137.603 320.097 128.837 313.107 122.656L308.033 118.272L313.107 103.887L314.46 100.178C318.97 102.988 331.034 116.474 334.868 116.474C338.701 116.474 331.372 98.3796 331.372 98.3796L342.986 96.1319C342.986 96.1319 357.418 127.376 343.888 134.007Z" fill="#4B0082"/>
<path opacity="0.5" d="M343.888 134.007C337.461 137.266 323.029 130.298 315.249 124.454L313.107 122.656L308.033 118.272L310.739 110.518L313.107 103.887L314.46 100.178C318.97 102.988 331.034 116.474 334.868 116.474C338.701 116.474 331.372 98.3796 331.372 98.3796L342.986 96.1319C342.986 96.1319 357.418 127.376 343.888 134.007Z" fill="white"/>
<path d="M325.51 87.9275C325.493 88.0546 325.505 88.1837 325.543 88.3061C325.581 88.4285 325.645 88.5414 325.73 88.6372C325.816 88.733 325.921 88.8095 326.038 88.8615C326.156 88.9136 326.283 88.94 326.412 88.939H336.785C337.065 88.9404 337.336 88.8375 337.544 88.6505C337.753 88.4634 337.884 88.2057 337.912 87.9275L340.28 67.6975C340.28 67.1355 339.829 66.4612 339.265 66.4612H329.005C328.705 66.5109 328.43 66.66 328.226 66.8843C328.021 67.1086 327.898 67.3951 327.877 67.6975L325.51 87.9275Z" fill="#1DBA80"/>
<path d="M328.441 67.9222L326.186 87.5903H336.334L338.589 67.9222H328.441Z" fill="#D8FFF1"/>
<path opacity="0.3" d="M325.51 87.9275C325.493 88.0546 325.505 88.1837 325.543 88.3061C325.581 88.4285 325.645 88.5414 325.73 88.6372C325.816 88.733 325.921 88.8095 326.038 88.8615C326.156 88.9136 326.283 88.94 326.412 88.939H335.657C335.938 88.9404 336.208 88.8375 336.417 88.6505C336.625 88.4634 336.756 88.2057 336.785 87.9275L339.152 67.6975C339.152 67.1355 338.701 66.4612 338.138 66.4612H329.005C328.705 66.5109 328.43 66.66 328.226 66.8843C328.021 67.1086 327.898 67.3951 327.877 67.6975L325.51 87.9275Z" fill="white"/>
<path opacity="0.2" d="M315.249 124.454L313.107 122.656L308.033 118.272L310.739 110.518L312.43 106.584C312.43 106.584 316.377 116.249 315.249 124.454Z" fill="black"/>
<path d="M332.838 343.163L325.397 344.511L322.24 334.284L319.421 324.956L328.103 321.921L330.696 333.16L332.838 343.163Z" fill="#E4897B"/>
<path opacity="0.2" d="M330.696 333.385L322.352 334.509L319.534 324.956L328.103 321.921L330.696 333.385Z" fill="black"/>
<path d="M282.777 346.31H275.11L273.87 335.745L272.742 326.08L281.762 324.619L282.326 336.082L282.777 346.31Z" fill="#E4897B"/>
<path opacity="0.2" d="M282.326 336.307L273.87 335.97L272.742 326.192L281.762 324.619L282.326 336.307Z" fill="black"/>
<path d="M331.373 327.428L318.97 329.564C306.567 298.657 297.66 272.807 291.459 251.341C288.076 239.877 285.483 229.538 283.454 220.434L284.017 254.151V330.575H271.502C240.947 185.593 262.595 152.551 262.595 152.551L299.013 146.257C300.479 151.764 301.494 160.531 302.057 166.6L303.749 178.625L318.068 252.128L331.373 327.428Z" fill="#C7B4FF"/>
<path d="M317.166 328.103L332.387 323.045L332.275 329.564L319.534 333.497L317.166 328.103Z" fill="#407BFF"/>
<path opacity="0.6" d="M317.166 328.103L332.387 323.045L332.275 329.564L319.534 333.497L317.166 328.103Z" fill="white"/>
<path d="M269.811 328.777L285.821 326.417L284.468 332.823L271.277 334.621L269.811 328.777Z" fill="#407BFF"/>
<path opacity="0.6" d="M269.811 328.777L285.821 326.417L284.468 332.823L271.277 334.621L269.811 328.777Z" fill="white"/>
<path opacity="0.2" d="M293.15 257.073L291.459 251.341C288.415 240.889 286.272 231.448 284.017 223.019L282.664 207.509C282.664 207.509 290.444 190.314 287.513 178.288C287.851 178.963 293.037 192.112 291.008 205.262C290.533 222.56 291.249 239.872 293.15 257.073Z" fill="black"/>
<path d="M282.664 346.31C282.664 346.31 283.454 355.75 282.664 356.762C281.875 357.773 264.963 356.987 262.595 355.526C260.227 354.065 264.399 351.48 266.879 351.367C269.36 351.255 275.223 347.771 275.11 346.31C274.998 344.849 282.664 346.31 282.664 346.31Z" fill="#E4897B"/>
<path d="M269.811 350.131C269.811 350.131 266.541 353.952 267.781 356.425H284.017V358.672H258.085C258.085 358.672 257.296 348.782 269.811 350.131Z" fill="#C7B4FF"/>
<path d="M332.838 342.826C332.838 342.826 335.657 352.941 335.093 353.952C334.529 354.964 317.617 356.649 314.911 355.526C312.205 354.402 316.264 351.255 318.632 350.805C320.999 350.356 325.735 345.86 325.284 344.511C324.833 343.163 332.838 342.826 332.838 342.826Z" fill="#E4897B"/>
<path d="M321.451 349.232C321.451 349.232 318.632 353.39 320.21 355.75L336.334 353.615L336.559 355.75L310.965 359.234C310.965 359.234 308.822 349.569 321.451 349.232Z" fill="#C7B4FF"/>
<path opacity="0.2" d="M302.621 170.309L257.07 172.219C259.325 157.496 262.595 152.551 262.595 152.551L299.013 146.257C300.479 151.764 301.494 160.531 302.057 166.6L302.621 170.309Z" fill="black"/>
<path d="M297.66 83.7691L297.322 83.9938C295.91 85.0515 294.3 85.8159 292.586 86.2416C287.625 87.3655 284.243 86.6912 281.988 84.4434C278.944 81.0717 278.154 75.1151 278.605 67.9222C278.598 65.0388 279.133 62.1796 280.184 59.493C280.179 59.4322 280.186 59.3709 280.205 59.3129C280.225 59.2549 280.256 59.2015 280.297 59.1559C280.923 57.6528 281.907 56.3246 283.164 55.2866C284.422 54.2486 285.915 53.5321 287.513 53.1993C288.915 52.8655 290.356 52.7144 291.797 52.7497C305.891 52.4125 308.484 75.6771 297.66 83.7691Z" fill="#EBB376"/>
<path opacity="0.2" d="M297.322 83.9938C295.897 84.9798 294.286 85.668 292.586 86.0168C287.625 87.2531 284.243 86.354 281.988 84.1062C285.001 84.8234 288.166 84.5473 291.008 83.3195C292.925 82.4204 295.18 82.8699 297.322 83.9938Z" fill="black"/>
<path d="M298.788 96.6938C299.69 100.627 294.39 102.313 294.39 102.313C285.934 98.7168 284.356 94.1088 284.356 94.1088C291.459 90.5124 289.429 80.0602 289.429 80.0602L290.895 80.7345L300.93 82.7576C300.93 82.7576 298.111 88.1522 297.773 89.2761C295.856 95.7947 298.788 96.6938 298.788 96.6938Z" fill="#EBB376"/>
<path d="M280.071 59.3807C280.071 59.3807 279.395 69.2709 288.753 73.5417C288.753 73.5417 292.699 83.7691 298.675 83.8815C306.68 84.1062 313.896 72.6426 311.077 60.9541C307.469 45.894 284.468 44.6577 280.071 59.3807Z" fill="#2E353A"/>
<path d="M284.017 70.6196C284.06 70.0728 284.211 69.5399 284.461 69.0515C284.711 68.563 285.056 68.1287 285.475 67.7736C285.894 67.4184 286.38 67.1494 286.903 66.982C287.427 66.8147 287.979 66.7522 288.527 66.7983C291.459 67.1355 292.925 73.2045 285.596 74.6656C284.468 74.8903 283.905 73.8788 284.017 70.6196Z" fill="#EBB376"/>
<path d="M282.101 58.9311C282.101 58.9311 278.154 59.7178 275.674 57.3576C273.193 54.9975 273.87 49.378 278.944 48.2541C284.017 47.1303 287.062 49.94 287.513 52.6373C287.645 53.4172 287.604 54.2165 287.392 54.9787C287.18 55.7409 286.802 56.4472 286.286 57.0478C285.769 57.6483 285.127 58.1283 284.403 58.4537C283.68 58.7792 282.894 58.9422 282.101 58.9311Z" fill="#2E353A"/>
<path d="M278.042 50.3895C276.463 50.3895 275.223 51.963 275.223 54.0984C275.223 56.2338 276.463 57.6948 278.042 57.6948C279.62 57.6948 280.86 56.1214 280.86 54.0984C280.86 52.0754 279.62 50.3895 278.042 50.3895Z" fill="#C7B4FF"/>
<path d="M303.185 55.1099C303.185 55.1099 305.553 49.4904 314.798 50.3895C324.044 51.2887 327.99 61.8532 323.818 68.7089C319.647 75.5647 321.789 79.4983 324.157 80.7346C326.524 81.9708 326.975 86.1292 323.142 87.8151C319.308 89.5009 320.887 93.5469 323.142 92.985C323.142 92.985 321.902 94.1088 318.519 93.0973C315.137 92.0858 316.49 87.8151 318.181 85.9045C319.872 83.9939 313.784 84.1062 312.318 78.9363C310.852 73.7665 313.445 66.5736 308.935 66.7983C304.425 67.0231 301.719 58.5939 303.185 55.1099Z" fill="#2E353A"/>
<path d="M280.071 92.985C280.071 92.985 288.302 88.6018 297.322 91.7487C306.342 94.8956 304.313 100.74 304.313 100.74L280.071 92.985Z" fill="#4B0082"/>
<path opacity="0.5" d="M280.071 92.985C280.071 92.985 288.302 88.6018 297.322 91.7487C306.342 94.8956 304.313 100.74 304.313 100.74L280.071 92.985Z" fill="white"/>
<path d="M314.46 100.178C314.46 100.178 306.567 97.1434 299.69 95.2327C294.237 93.9149 288.699 92.9761 283.115 92.423C277.84 91.8061 272.526 91.5807 267.218 91.7487C267.33 94.3336 267.443 96.6938 267.556 98.9416C267.669 101.189 267.781 104.673 267.894 107.258C268.007 112.091 268.007 116.137 267.894 119.846C267.678 127.826 266.696 135.767 264.963 143.56L257.07 162.554L304.312 168.623L301.606 149.854C309.499 127.151 312.769 115.126 314.122 108.382C315.475 101.639 314.46 100.178 314.46 100.178Z" fill="#4B0082"/>
<path opacity="0.6" d="M314.122 108.382C313.445 111.754 312.318 116.474 310.288 123.105C308.259 129.736 305.553 138.502 301.606 149.854L304.312 168.623L301.043 168.173H299.915L293.714 167.386L292.586 167.162L286.723 166.487L285.596 166.263L277.703 165.363L276.576 165.139L266.767 163.902H265.639L257.07 162.779L264.963 143.785C266.696 135.991 267.678 128.05 267.894 120.071V117.373C268.007 114.451 268.007 111.192 267.894 107.483C267.781 106.134 267.781 104.786 267.781 103.325C267.781 101.864 267.669 100.627 267.556 99.1664C267.443 97.7053 267.33 94.5584 267.218 91.9735C270.036 91.8424 272.86 91.8799 275.674 92.0858H276.801L283.115 92.6478H284.468C287.649 92.9699 290.81 93.4575 293.939 94.1089L294.954 94.3336L299.69 95.3451L301.719 96.0195L302.847 96.2442L309.273 98.3796L310.288 98.8292L314.46 100.29C314.46 100.29 315.475 100.852 314.122 108.382Z" fill="white"/>
<path d="M294.954 94.2212C294.729 101.189 293.376 119.846 287.4 145.021L286.723 166.375L285.596 166.15L286.272 144.909C290.317 128.194 292.882 111.158 293.939 93.9965L294.954 94.2212Z" fill="#1DBA80"/>
<path d="M293.263 144.909L293.714 167.274L292.587 167.049L292.135 144.684C297.209 131.197 300.592 105.91 301.719 96.0195L302.847 96.2442C301.607 106.247 298.224 131.31 293.263 144.909Z" fill="#1DBA80"/>
<path d="M298.9 146.819L301.043 168.173H299.915L297.66 146.707V146.482C303.185 135.131 307.469 109.169 309.161 98.3796L310.175 98.8292C308.71 109.619 304.312 135.243 298.9 146.819Z" fill="#1DBA80"/>
<path d="M284.468 92.5354C284.243 101.189 283.566 123.667 280.635 143.335L277.703 165.251L276.576 165.026L279.507 143.223C281.796 126.38 283.076 109.417 283.341 92.423L284.468 92.5354Z" fill="#1DBA80"/>
<path d="M276.801 91.8611C276.689 103.662 276.125 131.984 273.419 142.324L266.767 163.79H265.639L272.404 142.099C274.997 131.984 275.561 103.55 275.674 91.9734L276.801 91.8611Z" fill="#1DBA80"/>
<g opacity="0.4">
<path opacity="0.4" d="M294.954 94.2212C294.729 101.189 293.376 119.846 287.4 145.021L286.723 166.375L285.596 166.15L286.272 144.909C290.317 128.194 292.882 111.158 293.939 93.9965L294.954 94.2212Z" fill="white"/>
<path opacity="0.4" d="M293.263 144.909L293.714 167.274L292.586 167.049L292.135 144.684C297.209 131.197 300.592 105.91 301.719 96.0195L302.847 96.2442C301.606 106.247 298.224 131.31 293.263 144.909Z" fill="white"/>
<path opacity="0.4" d="M298.9 146.819L301.043 168.173H299.915L297.66 146.707V146.482C303.185 135.131 307.469 109.169 309.161 98.3796L310.175 98.8292C308.71 109.619 304.312 135.243 298.9 146.819Z" fill="white"/>
<path opacity="0.4" d="M284.468 92.5354C284.243 101.189 283.566 123.667 280.635 143.335L277.703 165.251L276.576 165.026L279.507 143.223C281.796 126.38 283.076 109.417 283.341 92.423L284.468 92.5354Z" fill="white"/>
<path opacity="0.4" d="M276.801 91.8611C276.689 103.662 276.125 131.984 273.419 142.324L266.767 163.79H265.639L272.404 142.099C274.997 131.984 275.561 103.55 275.674 91.9734L276.801 91.8611Z" fill="white"/>
</g>
<path opacity="0.2" d="M267.894 117.149C268.007 114.226 268.007 110.967 267.894 107.258C267.781 105.91 267.781 104.561 267.781 103.1C268.999 102.603 270.299 102.336 271.615 102.313C271.615 102.313 273.193 112.091 267.894 117.149Z" fill="black"/>
<path d="M260.34 142.099L263.835 151.427C263.835 151.427 266.541 151.989 264.85 157.946C263.159 163.902 261.693 166.937 256.619 165.925C251.545 164.914 250.08 164.015 250.869 162.666C251.658 161.317 257.521 154.125 257.521 154.125L254.251 144.796L260.34 142.099Z" fill="#EBB376"/>
<path d="M267.218 91.7487C267.218 91.7487 275.561 98.8292 269.36 111.304C269.36 111.304 257.972 117.711 257.07 118.947C256.168 120.183 264.173 145.583 264.173 145.583C264.173 145.583 261.693 152.214 253.124 150.191C253.124 150.191 240.27 124.004 239.143 115.463C238.015 106.921 267.218 91.7487 267.218 91.7487Z" fill="#4B0082"/>
<path opacity="0.5" d="M267.218 91.7487C267.218 91.7487 275.561 98.8292 269.36 111.304C269.36 111.304 257.972 117.711 257.07 118.947C256.168 120.183 264.173 145.583 264.173 145.583C264.173 145.583 261.693 152.214 253.124 150.191C253.124 150.191 240.27 124.004 239.143 115.463C238.015 106.921 267.218 91.7487 267.218 91.7487Z" fill="white"/>
</svg>
