<svg width="35" height="35" viewBox="0 0 35 35" fill="none" xmlns="http://www.w3.org/2000/svg">
<rect width="35.004" height="35.004" rx="2" fill="#4B0082"/>
<g clip-path="url(#clip0_1_4670)">
<path d="M18.0189 8.03C11.9289 7.6 6.8989 12.63 7.3289 18.72C7.6889 24.01 12.3089 28 17.6089 28H21.2989C21.8489 28 22.2989 27.55 22.2989 27C22.2989 26.45 21.8489 26 21.2989 26H17.6289C13.8989 26 10.4789 23.58 9.5489 19.97C8.0589 14.17 13.4589 8.76 19.2589 10.26C22.8789 11.18 25.2989 14.6 25.2989 18.33V19.43C25.2989 20.22 24.5889 21 23.7989 21C23.0089 21 22.2989 20.22 22.2989 19.43V18.18C22.2989 15.67 20.5189 13.41 18.0389 13.06C14.6389 12.57 11.7689 15.51 12.3789 18.93C12.7189 20.84 14.2089 22.42 16.0989 22.87C17.9389 23.3 19.6889 22.71 20.8389 21.54C21.7289 22.76 23.5089 23.4 25.1389 22.75C26.4789 22.22 27.2989 20.85 27.2989 19.41V18.32C27.2989 13.01 23.3089 8.39 18.0189 8.03ZM17.2989 21C15.6389 21 14.2989 19.66 14.2989 18C14.2989 16.34 15.6389 15 17.2989 15C18.9589 15 20.2989 16.34 20.2989 18C20.2989 19.66 18.9589 21 17.2989 21Z" fill="white"/>
</g>
<defs>
<clipPath id="clip0_1_4670">
<rect width="24" height="24" fill="white" transform="translate(5.29883 6)"/>
</clipPath>
</defs>
</svg>
