<svg width="411" height="361" viewBox="0 0 411 361" fill="none" xmlns="http://www.w3.org/2000/svg">
<path d="M68.6779 316.669V323.18H117.363V316.669H68.6779Z" fill="#E0E0E0"/>
<path d="M75.3365 316.93C75.5095 316.93 75.5959 318.319 75.5959 319.968C75.5959 321.617 75.5095 323.093 75.3365 323.093C75.1636 323.093 74.9906 321.704 74.9906 319.968C74.9906 318.232 75.1636 316.93 75.3365 316.93Z" fill="#FAFAFA"/>
<path d="M74.2123 316.756C74.3853 316.756 74.5582 318.145 74.5582 319.881C74.5582 321.617 74.3853 322.92 74.2123 322.92C74.0394 322.92 73.9529 321.531 73.9529 319.881C73.9529 318.232 74.0394 316.756 74.2123 316.756Z" fill="#FAFAFA"/>
<path d="M113.559 316.93C113.731 316.93 113.904 318.319 113.904 319.968C113.904 321.617 113.731 323.093 113.559 323.093C113.386 323.093 113.299 321.704 113.299 319.968C113.299 318.232 113.386 316.93 113.559 316.93Z" fill="#FAFAFA"/>
<path d="M112.521 316.756C112.694 316.756 112.867 318.145 112.867 319.881C112.867 321.617 112.694 322.92 112.521 322.92C112.348 322.92 112.262 321.531 112.262 319.881C112.262 318.232 112.348 316.756 112.521 316.756Z" fill="#FAFAFA"/>
<path d="M106.208 320.142C106.208 320.315 100.587 320.402 93.7557 320.402C86.9242 320.402 81.2168 320.315 81.2168 320.142C81.2168 319.968 86.8377 319.794 93.7557 319.794C100.674 319.794 106.208 319.968 106.208 320.142Z" fill="#FAFAFA"/>
<path d="M68.4185 346.097V359.119H117.104V346.097H68.4185Z" fill="#E0E0E0"/>
<path d="M117.796 355.473H117.536L116.672 355.907C115.61 356.332 114.509 356.652 113.386 356.862C111.561 357.172 109.685 356.899 108.024 356.08C107.01 355.517 106.149 354.712 105.516 353.737C104.759 352.649 104.421 351.323 104.565 350.004C104.719 349.272 105.045 348.587 105.516 348.007C105.767 347.705 106.086 347.468 106.448 347.317C106.809 347.166 107.202 347.105 107.592 347.139C107.984 347.174 108.365 347.293 108.708 347.488C109.051 347.682 109.348 347.948 109.581 348.268C110.105 348.881 110.436 349.636 110.532 350.438C110.603 351.291 110.493 352.15 110.21 352.958C109.926 353.766 109.476 354.505 108.889 355.126C107.627 356.38 105.983 357.175 104.219 357.383C102.375 357.544 100.517 357.307 98.7713 356.688C96.9017 356.119 95.245 355 94.0151 353.476C93.3816 352.678 92.9913 351.714 92.891 350.698C92.8465 350.161 92.916 349.62 93.0948 349.111C93.2737 348.602 93.5579 348.137 93.9287 347.747C94.3755 347.378 94.9134 347.138 95.4852 347.052C96.0336 347.053 96.5717 347.203 97.0418 347.486C97.9651 348.12 98.6142 349.082 98.8577 350.177C99.057 351.216 98.9866 352.289 98.6535 353.292C98.3203 354.296 97.7355 355.196 96.9553 355.907C95.3788 357.201 93.4499 357.988 91.4209 358.164C89.5255 358.359 87.6104 358.152 85.8 357.556C83.9881 357.059 82.4384 355.877 81.4762 354.257C80.9824 353.495 80.6708 352.628 80.5658 351.724C80.4608 350.821 80.5652 349.905 80.8709 349.049C81.039 348.62 81.3075 348.239 81.6537 347.937C82 347.634 82.4137 347.42 82.8598 347.313C83.297 347.234 83.7457 347.247 84.1774 347.352C84.6092 347.456 85.0145 347.65 85.3676 347.92C85.9737 348.462 86.4046 349.172 86.6049 349.961C86.8052 350.75 86.7659 351.581 86.4918 352.348C86.0498 353.723 85.2061 354.932 84.0705 355.82C82.189 357.387 79.8532 358.3 77.4119 358.424C75.5507 358.486 73.7048 358.067 72.0505 357.209C71.0367 356.686 70.1278 355.98 69.3697 355.126C69.1167 354.945 68.9094 354.707 68.7644 354.431C68.5914 354.344 68.5914 354.257 68.5914 354.257C69.626 355.372 70.8575 356.285 72.2234 356.949C73.7935 357.774 75.555 358.164 77.3254 358.077C79.7163 357.96 81.9993 357.043 83.8111 355.473C84.8453 354.599 85.6226 353.458 86.0594 352.174C86.3076 351.509 86.341 350.782 86.1547 350.096C85.9685 349.411 85.5721 348.801 85.0217 348.354C84.7406 348.141 84.4203 347.984 84.079 347.895C83.7377 347.806 83.3821 347.785 83.0328 347.834C82.6709 347.923 82.3344 348.094 82.0495 348.335C81.7645 348.576 81.5387 348.88 81.3898 349.223C81.1095 349.991 81.0106 350.814 81.1006 351.628C81.1906 352.441 81.4672 353.222 81.9086 353.91C82.8284 355.424 84.2778 356.538 85.9729 357.035C87.7291 357.607 89.5888 357.785 91.4209 357.556C93.3023 357.439 95.0939 356.707 96.5229 355.473C97.2359 354.829 97.7702 354.011 98.0734 353.098C98.3765 352.185 98.4382 351.208 98.2524 350.264C98.0763 349.347 97.5483 348.537 96.7823 348.007C96.4117 347.777 95.9783 347.67 95.5438 347.702C95.1092 347.733 94.6954 347.9 94.361 348.181C94.0528 348.501 93.8161 348.883 93.667 349.302C93.5179 349.722 93.4597 350.168 93.4963 350.612C93.5641 351.541 93.9279 352.423 94.534 353.129C95.6908 354.537 97.2192 355.59 98.9442 356.167C100.597 356.796 102.38 357.005 104.133 356.775C105.789 356.669 107.339 355.922 108.456 354.691C109.006 354.156 109.431 353.504 109.7 352.783C109.97 352.063 110.076 351.292 110.013 350.525C109.987 349.821 109.726 349.147 109.271 348.611C108.815 348.075 108.193 347.71 107.505 347.573C107.191 347.576 106.882 347.647 106.598 347.782C106.314 347.917 106.063 348.112 105.862 348.354C105.456 348.866 105.162 349.458 104.997 350.091C104.85 351.304 105.125 352.53 105.776 353.563C106.405 354.465 107.234 355.207 108.197 355.733C109.787 356.58 111.608 356.884 113.386 356.601C114.511 356.442 115.614 356.151 116.672 355.733L117.796 355.473Z" fill="#FAFAFA"/>
<path d="M72.7422 323.354V346.011H117.078V323.354H72.7422Z" fill="#EBEBEB"/>
<path d="M80.179 324.135C80.352 324.135 80.4385 329.083 80.4385 335.159C80.4385 341.236 80.352 346.097 80.179 346.097C80.0061 346.097 79.8331 341.149 79.8331 335.159C79.8331 329.17 80.0061 324.135 80.179 324.135Z" fill="#E0E0E0"/>
<path d="M83.5517 323.874C83.7246 323.874 83.8111 328.736 83.8111 334.726C83.8111 340.715 83.7246 345.49 83.5517 345.49C83.3787 345.49 83.2057 340.715 83.2057 334.726C83.2057 328.736 83.3787 323.874 83.5517 323.874Z" fill="#E0E0E0"/>
<path d="M112.088 323.18C112.261 323.18 112.434 328.215 112.434 334.552C112.434 340.889 112.261 345.924 112.088 345.924C111.916 345.924 111.829 340.802 111.829 334.552C111.829 328.302 112.002 323.18 112.088 323.18Z" fill="#E0E0E0"/>
<path d="M108.197 323.44C108.37 323.44 108.456 328.389 108.456 334.552C108.456 340.715 108.37 345.663 108.197 345.663C108.024 345.663 107.851 340.715 107.851 334.552C107.851 328.389 108.024 323.44 108.197 323.44Z" fill="#E0E0E0"/>
<path d="M346.868 273.959C351.452 271.529 356.813 271.268 361.915 272.05C364.682 272.57 367.536 273.352 369.438 275.435C371.341 277.519 371.6 281.164 369.525 282.901C367.45 284.637 366.412 284.116 364.769 284.116C360.791 284.029 356.381 283.335 353.181 285.765C351.365 287.154 350.154 289.411 347.993 290.106C345.831 290.8 343.409 289.498 342.285 287.588C341.263 285.575 341.047 283.246 341.68 281.078C341.925 279.565 342.522 278.131 343.424 276.894C344.325 275.657 345.506 274.651 346.868 273.959Z" fill="#EBEBEB"/>
<path d="M336.318 253.473C339.086 257.553 344.62 256.25 347.128 253.733C349.636 251.216 350.76 247.743 351.711 244.358C353.959 236.545 356.208 228.385 354.478 220.485C354.1 218.098 353.05 215.869 351.452 214.061C350.671 213.137 349.657 212.44 348.516 212.043C347.375 211.646 346.149 211.563 344.966 211.804C342.199 212.586 340.469 215.277 339.259 217.881C335.64 225.474 333.721 233.77 333.638 242.187C333.638 246.181 334.07 250.261 336.318 253.473Z" fill="#EBEBEB"/>
<path d="M328.622 259.289C331.649 255.643 332.254 250.347 330.87 245.833C329.487 241.319 326.46 237.413 322.915 234.201C318.766 230.467 313.914 227.604 308.646 225.78C306.621 224.938 304.437 224.553 302.247 224.652C300.085 224.912 297.837 226.041 296.886 227.951C295.934 229.86 296.799 234.288 298.356 237.152C301.103 242.157 304.226 246.945 307.695 251.476C310.549 255.122 313.748 258.681 317.986 260.33C322.223 261.98 326.72 261.719 328.968 258.768" fill="#EBEBEB"/>
<path d="M336.145 314.325L336.405 312.502C336.491 311.113 336.664 309.464 336.837 307.467C337.088 305.019 337.463 302.585 337.961 300.176C338.601 297.209 339.498 294.304 340.642 291.495C341.742 288.696 343.226 286.067 345.052 283.682C346.56 281.757 348.443 280.162 350.587 278.994C352.071 278.296 353.641 277.8 355.256 277.518C355.873 277.544 356.488 277.456 357.072 277.258H355.256C353.546 277.372 351.872 277.814 350.327 278.56C348.051 279.635 346.064 281.243 344.534 283.248C342.6 285.653 341.053 288.348 339.95 291.234C338.818 294.078 337.921 297.01 337.27 300.002C336.826 302.443 336.509 304.906 336.318 307.381C336.145 309.551 336.145 311.287 336.059 312.416C335.997 313.053 336.026 313.696 336.145 314.325Z" fill="#E0E0E0"/>
<path d="M336.492 310.419V307.207C336.492 305.037 336.492 301.999 336.578 298.266C336.837 290.713 337.443 282.64 338.653 271.181C339.864 259.723 341.507 247.917 343.15 239.757C343.496 237.963 343.842 236.313 344.188 234.809L345.053 231.076L345.658 228.732C345.744 228.124 345.831 227.864 345.744 227.864L345.485 228.645L344.793 230.989C344.447 232.031 344.188 233.246 343.755 234.722C343.323 236.198 342.977 237.847 342.631 239.67C340.54 249.269 338.981 258.978 337.962 268.751C336.664 280.21 336.146 290.713 336.059 298.266C336.059 301.999 336.146 305.037 336.232 307.207C336.237 308.02 336.295 308.832 336.405 309.638C336.405 310.159 336.405 310.419 336.492 310.419Z" fill="#E0E0E0"/>
<path d="M336.491 290.366C336.603 289.502 336.603 288.626 336.491 287.762C336.405 286.199 336.145 283.769 335.713 280.904C335.202 277.527 334.451 274.19 333.465 270.921C332.397 266.853 331.009 262.876 329.314 259.028C326.437 251.952 322.273 245.476 317.034 239.93C316.151 238.964 315.197 238.064 314.181 237.239L312.97 236.111L311.846 235.416C310.462 234.461 309.771 233.94 309.684 234.027C309.598 234.114 312.711 236.024 316.689 240.277C320.666 244.531 325.163 251.215 328.622 259.375C330.288 263.185 331.704 267.099 332.859 271.095C333.897 274.741 334.675 278.126 335.194 280.991C335.713 283.855 336.059 286.199 336.232 287.849C336.271 288.692 336.358 289.533 336.491 290.366Z" fill="#E0E0E0"/>
<path d="M315.824 322.746L317.813 350.438H353.181L355.17 322.746H315.824Z" fill="#EBEBEB"/>
<path d="M359.407 311.895H312.365V322.781H359.407V311.895Z" fill="#EBEBEB"/>
<path d="M312.365 349.309V352.348H314.613H358.629V349.309H312.365Z" fill="#E0E0E0"/>
<path d="M316.775 357.383L314.613 352H356.899L354.392 357.383H316.775Z" fill="#E0E0E0"/>
<path d="M354.478 331.774C354.478 331.774 354.478 331.861 354.305 332.034L353.786 332.729C353.354 333.423 352.662 334.291 351.797 335.42H351.538L346.522 328.389H346.782L341.853 335.42L341.68 335.68L341.507 335.507L335.627 328.389H335.972L335.627 328.823C333.811 331.08 331.995 333.337 330.352 335.507L330.179 335.68L330.006 335.42L324.99 328.389H325.25L319.196 335.42H318.937L317.034 332.121L316.516 331.253C316.47 331.173 316.44 331.084 316.429 330.993L316.602 331.253L317.121 332.121L319.196 335.246H318.937C320.58 333.423 322.569 330.993 324.99 328.128L325.163 327.954L325.336 328.128L330.352 335.246H330.006L335.281 328.649L335.627 328.215V328.041L335.799 328.215L341.766 335.246H341.42L346.436 328.128L346.609 327.954V328.128L351.624 335.246H351.451L353.527 332.642L354.132 332.034L354.478 331.774Z" fill="#F5F5F5"/>
<path d="M355.689 322.572C355.689 322.746 346.782 322.833 335.886 322.833C324.99 322.833 316.083 322.746 316.083 322.572C316.083 322.399 324.99 322.399 335.886 322.399C346.782 322.399 355.689 322.485 355.689 322.572Z" fill="#F5F5F5"/>
<path d="M154.115 34.8014C154.115 34.8882 154.029 34.8014 153.942 34.8014L153.337 34.541L151.175 33.6729L143.133 30.2005L116.844 18.7418L115.98 18.3077H116.153L90.3831 29.3325L82.6003 32.6312L80.4384 33.4993C80.0061 33.7597 79.7466 33.8465 79.7466 33.7597L80.4384 33.4125L82.5139 32.4576L90.2966 29.072L115.98 17.8737H116.153L117.104 18.3077L143.306 29.8533L151.262 33.4993L153.423 34.4542L153.942 34.7146L154.115 34.8014Z" fill="#E0E0E0"/>
<path d="M195.191 31.0685H26.3052V158.009H195.191V31.0685Z" fill="#E0E0E0"/>
<path d="M189.916 36.9716H32.1854V152.792H189.916V36.9716Z" fill="#FAFAFA"/>
<path d="M67.0349 87.5811C67.0349 87.5811 67.1214 107.026 68.1591 112.929L92.4586 111.801C92.4586 111.801 90.2967 92.7028 91.1615 87.5811H67.0349Z" fill="#E0E0E0"/>
<path d="M78.9683 90.2721H80.3519C80.8937 90.3152 81.4222 90.4626 81.9085 90.7061C82.5361 91.0276 83.0944 91.4701 83.5515 92.0083C84.0952 92.6959 84.4793 93.4966 84.6757 94.3521C84.929 95.3656 84.8376 96.4349 84.4163 97.3904C84.267 97.9024 84.0641 98.3971 83.8109 98.8661C83.4837 99.3501 83.2219 99.8755 83.0327 100.429C82.5068 101.524 82.1566 102.696 81.995 103.901H76.8929C76.7834 102.701 76.3986 101.542 75.7688 100.516L74.8175 99.1266C74.5581 98.6057 74.2122 98.1717 73.9528 97.7376C73.5473 96.7797 73.4271 95.7244 73.6069 94.6993C73.7792 93.8393 74.1012 93.0165 74.5581 92.2687C74.9639 91.6919 75.4965 91.2167 76.1147 90.8797C76.568 90.5973 77.0647 90.392 77.5847 90.2721L78.6224 90.0985L77.6712 90.2721C77.1461 90.3755 76.6465 90.582 76.2011 90.8797C75.583 91.2167 75.0504 91.6919 74.6446 92.2687C74.2018 93.0148 73.908 93.8404 73.7798 94.6993C73.598 95.6672 73.7188 96.6678 74.1257 97.564L74.9905 98.9529L75.9417 100.342C76.5844 101.394 76.9696 102.584 77.0659 103.814H81.822C81.9832 102.581 82.3332 101.381 82.8597 100.255C83.0665 99.7369 83.3274 99.2423 83.638 98.7793L84.3298 97.3036C84.6779 96.4253 84.7813 95.4684 84.629 94.5355C84.4767 93.6027 84.0743 92.729 83.465 92.0083C83.0079 91.4701 82.4496 91.0276 81.822 90.7061L80.3519 90.1853C80.0075 90.1408 79.6587 90.1408 79.3142 90.1853H78.9683V90.2721Z" fill="white"/>
<path d="M80.179 103.814V103.554C80.1045 103.268 80.0467 102.978 80.006 102.686C79.9195 101.904 79.7466 100.863 79.6601 99.4738C79.5851 99.1026 79.5561 98.7236 79.5736 98.3453V97.2168C79.5758 96.798 79.6641 96.3843 79.8331 96.0015C80.03 95.5819 80.3664 95.2443 80.7843 95.0466C81.0024 94.959 81.2411 94.937 81.4714 94.9832C81.7017 95.0294 81.9137 95.1419 82.0814 95.307C82.1686 95.3995 82.2365 95.5086 82.281 95.6279C82.3256 95.7472 82.3459 95.8742 82.3408 96.0015C82.3345 96.2429 82.2755 96.4799 82.1679 96.6959L81.5626 97.13C81.3175 97.2551 81.0552 97.3429 80.7843 97.3904L79.3142 97.564H77.7577L76.9794 97.3904L76.3741 96.9563C76.208 96.754 76.0898 96.5166 76.0282 96.2619C76.0194 96.0272 76.0486 95.7927 76.1146 95.5674C76.2186 95.3362 76.4031 95.1509 76.6335 95.0466C76.8667 94.9866 77.114 95.0176 77.3253 95.1334C77.4364 95.1671 77.5395 95.2229 77.6287 95.2974C77.7178 95.372 77.7911 95.4638 77.8441 95.5674C77.929 95.6435 77.9962 95.7373 78.041 95.8423C78.0859 95.9473 78.1072 96.0609 78.1036 96.1751C78.19 96.6091 78.19 96.9563 78.2765 97.3904V99.6474C78.363 101.036 78.363 102.078 78.4495 102.859V103.988V103.727C78.4562 103.436 78.4272 103.144 78.363 102.859C78.363 102.078 78.2765 101.036 78.19 99.6474C78.1036 98.2585 78.1036 98.1717 78.1036 97.3904C78.1036 96.6091 78.0171 96.6091 77.9306 96.1751C77.919 95.948 77.827 95.7325 77.6712 95.5674L77.2388 95.1334H76.547L76.1146 95.5674C76.0069 95.782 75.9763 96.0273 76.0282 96.2619C76.0899 96.4908 76.209 96.6999 76.3741 96.8695C76.538 97.0538 76.7375 97.2026 76.9605 97.3071C77.1835 97.4115 77.4253 97.4694 77.6712 97.4772H79.2277L80.6978 97.3036L81.3896 97.13C81.6291 97.006 81.8363 96.8277 81.995 96.6091C82.0798 96.533 82.147 96.4392 82.1918 96.3342C82.2367 96.2292 82.258 96.1156 82.2544 96.0015C82.2214 95.7799 82.1321 95.5706 81.995 95.3938C81.8272 95.2288 81.6153 95.1163 81.385 95.07C81.1546 95.0238 80.9159 95.0458 80.6978 95.1334C80.309 95.3002 79.9993 95.6112 79.8331 96.0015C79.6641 96.3843 79.5758 96.798 79.5736 97.2168C79.53 97.5917 79.53 97.9704 79.5736 98.3453V99.4738C79.7466 100.776 79.8331 101.904 80.006 102.686C80.179 103.467 80.0925 103.38 80.0925 103.554V103.727L80.179 103.814Z" fill="white"/>
<path d="M76.9794 103.988C77.0462 104.243 77.0753 104.506 77.0659 104.769C77.0659 105.377 77.1524 106.071 77.1524 106.939L78.7954 108.849H80.5249C80.8148 108.423 81.1326 108.017 81.4761 107.634L81.9085 107.113C81.9085 106.071 81.822 105.03 81.822 103.988V104.161H78.2766L81.822 103.988H81.995C81.995 104.943 81.995 106.071 82.0815 107.113H81.995L81.5626 107.721L80.6114 108.849H78.536L76.9794 106.939V103.988Z" fill="white"/>
<path d="M81.9086 106.679H81.7356L81.2168 106.419C80.6513 106.27 80.0714 106.182 79.4873 106.158C78.9206 106.217 78.3664 106.363 77.8442 106.592L77.3254 106.766L77.7578 106.505C78.314 106.289 78.895 106.143 79.4873 106.071C80.0805 106.076 80.6675 106.194 81.2168 106.419L81.7356 106.592L81.9086 106.679Z" fill="white"/>
<path d="M81.9086 105.985H81.7356L81.2168 105.811C80.672 105.577 80.0765 105.487 79.4873 105.55C78.9209 105.545 78.3602 105.663 77.8442 105.898L77.3254 106.071L77.7578 105.811C78.307 105.586 78.894 105.468 79.4873 105.464C80.0747 105.444 80.6608 105.533 81.2168 105.724L81.7356 105.985H81.9086Z" fill="white"/>
<path d="M81.8221 105.203H81.6491L81.1303 104.943C80.596 104.786 80.0438 104.698 79.4873 104.682L77.7578 105.116L77.3254 105.29L77.7578 105.03L79.4873 104.596C80.0805 104.6 80.6675 104.718 81.2168 104.943L81.6491 105.116L81.8221 105.203Z" fill="white"/>
<path d="M39.9681 55.809C39.9681 55.809 40.1411 75.2542 41.0923 81.1572L65.3918 80.0286C65.3918 80.0286 63.2299 60.8439 64.0947 55.809H39.9681Z" fill="#EBEBEB"/>
<path d="M60.3763 63.9691C60.3763 64.0559 56.7444 64.4032 52.2477 64.6636C47.7509 64.924 44.119 65.0108 44.119 64.924C44.119 64.8372 47.7509 64.49 52.2477 64.2296C56.7444 63.9691 60.3763 63.7955 60.3763 63.9691Z" fill="white"/>
<path d="M60.3763 68.0491C60.4628 68.2227 56.7444 68.4831 52.2477 68.7435C47.7509 69.004 44.119 69.1776 44.119 69.004C44.119 68.8303 47.7509 68.5699 52.2477 68.3095C56.7444 68.0491 60.3763 67.9623 60.3763 68.0491Z" fill="white"/>
<path d="M56.312 72.1291C54.7711 72.4229 53.2099 72.597 51.6423 72.65C49.0481 72.7368 46.9727 72.8236 46.9727 72.65C48.5136 72.3562 50.0748 72.1821 51.6423 72.1291C54.1501 71.9555 56.312 71.9555 56.312 72.1291Z" fill="white"/>
<path d="M38.7576 112.929C38.7576 112.929 38.9305 132.374 39.9682 138.364L64.2677 137.149C64.2677 137.149 62.1058 118.051 62.8841 112.929H38.7576Z" fill="#EBEBEB"/>
<path d="M59.252 121.176C59.252 121.263 55.62 121.61 51.1233 121.871C46.6266 122.131 42.9947 122.218 42.9947 122.131C42.9947 122.044 46.6266 121.697 51.1233 121.35C55.62 121.002 59.252 121.002 59.252 121.176Z" fill="white"/>
<path d="M59.252 125.256C59.252 125.43 55.62 125.69 51.1233 125.951C46.6266 126.211 42.9947 126.385 42.9947 126.211C42.9947 126.037 46.6266 125.777 51.1233 125.517C55.62 125.256 59.252 125.082 59.252 125.256Z" fill="white"/>
<path d="M55.1012 129.336C53.5901 129.634 52.0573 129.809 50.518 129.857C47.9238 129.944 45.8484 130.031 45.8484 129.857C47.3893 129.563 48.9504 129.389 50.518 129.336C53.0258 129.162 55.1012 129.162 55.1012 129.336Z" fill="white"/>
<path d="M105.17 60.9308L107.592 117.009L177.377 117.877L174.177 61.7121L105.17 60.9308Z" fill="#EBEBEB"/>
<path d="M173.659 60.4967H104.392V113.007H173.659V60.4967Z" fill="#F5F5F5"/>
<path d="M173.659 113.016V112.061C173.577 111.138 173.549 110.21 173.572 109.283V98.6058C173.486 89.4909 173.486 76.3828 173.486 60.4968L173.659 60.7572H104.392L104.565 60.4968V113.016L104.392 112.842H154.461L104.392 113.016H104.133V60.0627H173.832V60.2364C173.832 76.1224 173.745 89.3173 173.745 98.519C173.745 103.033 173.659 106.592 173.659 109.11V112.756V113.016Z" fill="#E0E0E0"/>
<path d="M140.885 71.6951H112.78V107.174H140.885V71.6951Z" fill="#F5F5F5"/>
<path d="M140.798 107.113V104.509C140.712 102.773 140.712 100.342 140.712 97.2168C140.712 90.9666 140.625 82.1121 140.625 71.6082L140.798 71.8686H112.694C112.694 71.9555 113.213 71.4346 112.953 71.6082V106.939L112.694 106.766H112.521V71.7818L112.694 71.6082H141.058V71.7818C140.971 82.3725 140.971 91.227 140.885 97.564V104.769C140.885 105.55 140.798 106.245 140.798 106.679V107.287V107.113Z" fill="#E0E0E0"/>
<path d="M167.605 63.535H113.818V68.6481H167.605V63.535Z" fill="#F5F5F5"/>
<path d="M167.605 68.6568V67.2678C167.605 66.3998 167.519 65.1844 167.519 63.5351H167.605L113.818 63.7087C114.25 63.1878 113.904 63.5351 114.077 63.4483V68.3964L113.818 68.1359H152.126L113.818 68.3096H113.558V63.101L113.818 62.8406L167.605 63.0142H167.692V66.8338C167.692 67.2678 167.605 67.5283 167.605 67.7887V68.6568Z" fill="#E0E0E0"/>
<path d="M167.605 71.6951H144.257V93.0761H167.605V71.6951Z" fill="#F5F5F5"/>
<path d="M167.606 93.05V91.4875C167.519 90.4457 167.519 88.97 167.519 87.0602C167.519 83.3274 167.433 78.0321 167.433 71.6082L167.606 71.8687H144.257L144.517 71.6082V82.7198C144.43 86.2789 144.43 89.7513 144.43 92.8764L144.257 92.616L161.12 92.7896H143.998V71.7819C143.825 72.0423 144.257 71.5214 144.257 71.6082H167.778V71.7819C167.778 78.2057 167.778 83.5878 167.692 87.4074V91.7479C167.692 92.1819 167.606 92.5292 167.606 92.7896V93.05Z" fill="#E0E0E0"/>
<path d="M167.605 96.3488H144.257V107.096H167.605V96.3488Z" fill="#F5F5F5"/>
<path d="M167.605 107.113V104.161C167.605 102.252 167.605 99.6474 167.519 96.3487L167.692 96.5223H144.344L144.603 96.2619V101.644C144.603 103.467 144.517 105.203 144.517 106.853L144.344 106.592L161.033 106.766H161.206L144.344 106.939H144.084V96.5223C143.998 96.6091 144.517 96.0882 144.344 96.3487H167.778V96.5223C167.778 99.821 167.692 102.512 167.692 104.422V106.592C167.651 106.764 167.623 106.938 167.605 107.113Z" fill="#E0E0E0"/>
<path d="M140.106 71.6951C131.459 83.7616 121.428 95.0467 112.694 107.113L140.106 71.6951Z" fill="white"/>
<path d="M112.694 107.113L112.953 106.766L113.645 105.637L116.499 101.731C118.92 98.519 122.379 94.0918 126.27 89.2305L136.042 76.9037L138.982 73.0841L139.847 72.0424L140.106 71.6951L139.847 72.1292L139.155 73.1709L136.302 77.0773C133.967 80.2892 130.508 84.7164 126.616 89.5777C122.725 94.439 119.266 98.7795 116.758 101.991L113.818 105.724C113.559 106.158 113.213 106.505 113.04 106.766C112.867 107.026 112.78 107.113 112.694 107.113Z" fill="#E0E0E0"/>
<path d="M140.798 107.113C140.712 107.2 134.313 99.3003 126.616 89.4909C118.92 79.6816 112.607 71.6952 112.694 71.6083C112.78 71.5215 119.179 79.4211 126.962 89.2305C134.745 99.0399 140.885 107.026 140.798 107.113Z" fill="#E0E0E0"/>
<path d="M107.592 71.6951C107.592 72.5707 107.333 73.4266 106.848 74.1547C106.364 74.8828 105.675 75.4502 104.869 75.7853C104.063 76.1204 103.177 76.208 102.321 76.0372C101.466 75.8664 100.68 75.4447 100.063 74.8256C99.4462 74.2064 99.0262 73.4176 98.856 72.5588C98.6859 71.7 98.7732 70.8098 99.107 70.0008C99.4408 69.1918 100.006 68.5004 100.731 68.0139C101.457 67.5275 102.309 67.2678 103.182 67.2678C104.351 67.2678 105.473 67.7343 106.3 68.5645C107.127 69.3948 107.592 70.5209 107.592 71.6951Z" fill="#E0E0E0"/>
<path d="M179.452 61.0176C179.452 61.8932 179.194 62.7492 178.709 63.4772C178.225 64.2053 177.536 64.7727 176.73 65.1078C175.924 65.4429 175.037 65.5306 174.182 65.3598C173.326 65.1889 172.54 64.7673 171.924 64.1481C171.307 63.529 170.887 62.7401 170.717 61.8813C170.547 61.0225 170.634 60.1323 170.968 59.3233C171.301 58.5144 171.867 57.8229 172.592 57.3365C173.317 56.85 174.17 56.5903 175.042 56.5903C176.212 56.5903 177.334 57.0568 178.161 57.887C178.988 58.7173 179.452 59.8434 179.452 61.0176Z" fill="#E0E0E0"/>
<path d="M351.279 91.748H300.691V165.414H351.279V91.748Z" fill="#E0E0E0"/>
<path d="M348.684 91.748H298.096V165.414H348.684V91.748Z" fill="#F5F5F5"/>
<path d="M342.458 99.7343H304.409V157.445H342.458V99.7343Z" fill="white"/>
<path d="M342.458 157.375V153.122C342.458 150.344 342.372 146.351 342.372 141.229C342.372 131.072 342.372 116.662 342.285 99.7343H304.582C304.495 121.437 304.495 141.576 304.495 157.375H304.323C304.323 141.576 304.323 121.437 304.236 99.7343V99.5607H342.545V141.316C342.545 146.437 342.458 150.431 342.458 153.208V157.375Z" fill="#E0E0E0"/>
<path d="M348.857 91.748C348.944 91.748 348.598 92.2688 347.993 93.0501L345.571 96.0884C344.62 97.2169 343.755 98.2586 343.064 98.9531L342.026 100.168C341.939 100.082 342.372 99.6476 342.977 98.8663L345.398 95.9148L347.82 92.9633L348.857 91.748Z" fill="#E0E0E0"/>
<path d="M342.631 157.202C344.533 160.221 346.767 163.016 349.29 165.535L342.631 157.202Z" fill="white"/>
<path d="M349.29 165.535C349.29 165.622 348.771 165.188 348.166 164.494C347.251 163.611 346.412 162.653 345.658 161.629C344.852 160.66 344.101 159.645 343.409 158.591C343.092 158.163 342.83 157.696 342.631 157.202C343.001 157.594 343.32 158.032 343.582 158.504C344.101 159.285 344.966 160.327 345.831 161.455L348.252 164.407L349.29 165.535Z" fill="#E0E0E0"/>
<path d="M298.096 165.362L304.755 157.115L298.096 165.362Z" fill="white"/>
<path d="M304.755 157.115C303.779 158.571 302.71 159.963 301.555 161.282C300.493 162.717 299.338 164.08 298.096 165.362C299.083 163.885 300.151 162.465 301.296 161.108C302.371 159.711 303.526 158.378 304.755 157.115Z" fill="#E0E0E0"/>
<path d="M298.096 91.748C299.278 92.9189 300.35 94.1976 301.296 95.5676C302.408 96.8475 303.419 98.2116 304.323 99.6476L301.123 95.7412C299.393 93.5709 298.096 91.748 298.096 91.748Z" fill="#E0E0E0"/>
<path d="M330.611 111.453H317.899V147.765H330.611V111.453Z" fill="#E0E0E0"/>
<path d="M339.595 13.5797L332.331 13.6179L332.52 49.8167L339.784 49.7785L339.595 13.5797Z" fill="#E0E0E0"/>
<path d="M288.403 13.5889L269.638 13.6875L269.742 33.6706L288.507 33.5719L288.403 13.5889Z" fill="#EBEBEB"/>
<path d="M307.081 13.5775L288.316 13.6761L288.42 33.6592L307.185 33.5606L307.081 13.5775Z" fill="#F5F5F5"/>
<path d="M269.646 19.1758C282.099 19.2626 294.551 19.2626 307.09 19.0022C307.136 19.0022 307.18 18.9839 307.212 18.9513C307.245 18.9188 307.263 18.8746 307.263 18.8286C307.263 18.7825 307.245 18.7384 307.212 18.7058C307.18 18.6733 307.136 18.655 307.09 18.655C294.551 18.5682 282.099 18.5682 269.646 18.8286C269.6 18.8286 269.556 18.8469 269.524 18.8794C269.491 18.912 269.473 18.9561 269.473 19.0022C269.473 19.0482 269.491 19.0924 269.524 19.125C269.556 19.1575 269.6 19.1758 269.646 19.1758Z" fill="#E0E0E0"/>
<path d="M291.965 33.2755L257.894 33.4546L257.979 49.7397L292.05 49.5606L291.965 33.2755Z" fill="#EBEBEB"/>
<path d="M325.948 33.0969L291.877 33.276L291.962 49.5611L326.033 49.382L325.948 33.0969Z" fill="#F5F5F5"/>
<path d="M257.885 37.9265C280.542 38.187 303.285 37.9265 325.941 37.5793C325.987 37.5793 326.031 37.561 326.064 37.5284C326.096 37.4959 326.114 37.4517 326.114 37.4057C326.114 37.3596 326.096 37.3155 326.064 37.2829C326.031 37.2503 325.987 37.2321 325.941 37.2321C303.285 37.0584 280.542 37.0584 257.885 37.5793C257.712 37.5793 257.712 37.9265 257.885 37.9265Z" fill="#E0E0E0"/>
<path d="M377.308 49.7325H245.174V55.566H377.308V49.7325Z" fill="#E0E0E0"/>
<path d="M272.154 52.5103H266.793V72.4156H272.154V52.5103Z" fill="#E0E0E0"/>
<path d="M352.23 52.5103H346.868V72.4156H352.23V52.5103Z" fill="#E0E0E0"/>
<path d="M346.788 7.35141e-05L339.524 0.0382538L339.784 49.8224L347.048 49.7842L346.788 7.35141e-05Z" fill="#EBEBEB"/>
<path d="M357.992 9.31609L346.75 9.37518L346.961 49.7233L358.202 49.6642L357.992 9.31609Z" fill="#F5F5F5"/>
<path d="M357.937 17.0056C354.193 17.2371 350.439 17.2371 346.695 17.0056C350.439 16.774 354.193 16.774 357.937 17.0056Z" fill="#E0E0E0"/>
<path d="M357.937 15.3563C354.193 15.5878 350.439 15.5878 346.695 15.3563C346.695 15.1827 349.203 15.0958 352.316 15.0958C355.429 15.0958 357.937 15.1827 357.937 15.3563Z" fill="#E0E0E0"/>
<path d="M357.937 43.4823C357.937 43.6559 355.429 43.7427 352.316 43.7427C349.203 43.7427 346.695 43.6559 346.695 43.4823C350.439 43.2507 354.193 43.2507 357.937 43.4823Z" fill="#E0E0E0"/>
<path d="M357.937 41.8329C354.193 42.0645 350.439 42.0645 346.695 41.8329C350.439 41.6014 354.193 41.6014 357.937 41.8329Z" fill="#E0E0E0"/>
<path d="M352.489 38.1001C352.403 38.1001 352.316 34.0201 352.316 29.072C352.316 24.1239 352.403 19.9571 352.489 19.9571C352.576 19.9571 352.662 24.0371 352.662 29.072C352.662 34.1069 352.576 38.1001 352.489 38.1001Z" fill="#E0E0E0"/>
<path d="M370.39 19.1758H358.11V49.6283H370.39V19.1758Z" fill="#EBEBEB"/>
<path d="M364.509 41.746C364.15 41.7462 363.794 41.6738 363.463 41.5332C363.132 41.3926 362.833 41.1865 362.582 40.9274C362.332 40.6682 362.137 40.3612 362.007 40.0246C361.878 39.6881 361.817 39.3288 361.829 38.9681C361.796 38.5682 361.867 38.1666 362.033 37.8018C362.2 37.437 362.457 37.1212 362.78 36.8847L363.039 37.3188C362.783 37.5066 362.577 37.756 362.441 38.0441C362.305 38.3322 362.243 38.6498 362.261 38.9681C362.261 39.5667 362.498 40.1408 362.919 40.5641C363.341 40.9874 363.913 41.2252 364.509 41.2252C365.106 41.2252 365.677 40.9874 366.099 40.5641C366.521 40.1408 366.758 39.5667 366.758 38.9681C366.775 38.6498 366.713 38.3322 366.577 38.0441C366.442 37.756 366.236 37.5066 365.979 37.3188L366.239 36.8847C366.578 37.1111 366.852 37.4224 367.034 37.7879C367.216 38.1533 367.299 38.5602 367.277 38.9681C367.289 39.3362 367.225 39.7028 367.09 40.0453C366.956 40.3878 366.752 40.6989 366.493 40.9593C366.233 41.2197 365.923 41.4238 365.582 41.5592C365.241 41.6945 364.876 41.7581 364.509 41.746Z" fill="#FAFAFA"/>
<path d="M366.585 36.1903L366.152 35.9298C366.601 35.3617 366.845 34.6581 366.844 33.9332C366.844 32.8047 366.412 32.3707 365.806 32.3707C365.201 32.3707 365.374 35.9298 363.299 35.9298C361.223 35.9298 361.828 35.2354 361.828 33.9332C361.803 33.2583 361.984 32.5917 362.347 32.0234L362.693 32.2839C362.408 32.7861 362.258 33.3549 362.261 33.9332C362.261 34.9749 362.693 35.409 363.212 35.409C363.731 35.409 363.731 31.8498 365.806 31.8498C367.882 31.8498 367.276 32.6311 367.276 34.02C367.271 34.7973 367.03 35.5544 366.585 36.1903Z" fill="#FAFAFA"/>
<path d="M366.585 31.2423L366.152 30.9819C366.601 30.4137 366.845 29.7101 366.844 28.9853C366.844 27.8567 366.412 27.4227 365.806 27.4227C365.201 27.4227 365.374 30.9819 363.299 30.9819C361.223 30.9819 361.828 30.2874 361.828 28.9853C361.803 28.3103 361.984 27.6437 362.347 27.0755L362.693 27.3359C362.408 27.8381 362.258 28.4069 362.261 28.9853C362.261 30.027 362.693 30.461 363.212 30.461C363.731 30.461 363.731 26.9018 365.806 26.9018C367.882 26.9018 367.276 27.6831 367.276 29.0721C367.271 29.8493 367.03 30.6064 366.585 31.2423Z" fill="#FAFAFA"/>
<path d="M342.977 10.5817C344.123 10.5817 345.052 9.64896 345.052 8.49833C345.052 7.34769 344.123 6.41492 342.977 6.41492C341.831 6.41492 340.902 7.34769 340.902 8.49833C340.902 9.64896 341.831 10.5817 342.977 10.5817Z" fill="#E0E0E0"/>
<path d="M343.582 14.2276H342.285V43.8468H343.582V14.2276Z" fill="#E0E0E0"/>
<path d="M392.441 358.771C392.441 358.945 308.906 359.032 205.914 359.032C102.922 359.032 19.3869 358.945 19.3869 358.771C19.3869 358.598 102.835 358.598 205.914 358.598C308.992 358.598 392.441 358.685 392.441 358.771Z" fill="#263238"/>
<path d="M120.39 60.3231C106.467 82.2857 107.419 112.669 122.552 133.676C132.669 147.739 147.802 157.115 159.909 169.528C172.016 181.942 181.095 200.172 174.696 216.232C168.297 232.291 149.273 239.323 135.091 249.653C119.438 261.085 108.81 278.163 105.439 297.298C102.069 316.432 106.219 336.134 117.017 352.261H264.457C264.457 352.261 290.314 302.78 257.021 265.018C223.728 227.256 205.827 226.649 207.124 201.908C208.422 177.168 225.63 169.094 235.488 159.806C245.346 150.517 293.427 128.902 265.063 60.3231H120.39Z" fill="#FAFAFA"/>
<path d="M120.39 60.3231H265.149C267.329 65.5243 269.178 70.8593 270.684 76.2959C272.267 82.0006 273.309 87.8428 273.797 93.7445C274.296 99.8652 273.976 106.026 272.846 112.061C271.638 118.354 269.387 124.399 266.187 129.944C264.603 132.806 262.75 135.509 260.653 138.017C258.586 140.611 256.332 143.048 253.908 145.309C251.452 147.668 248.852 149.871 246.125 151.906L237.996 157.983C236.612 159.025 235.315 160.24 234.018 161.368L230.04 164.754C227.273 166.924 224.506 169.094 221.912 171.525C216.723 176.213 212.227 182.029 209.805 188.887C208.628 192.341 207.873 195.927 207.557 199.564C207.47 200.519 207.297 201.387 207.297 202.342C207.297 203.297 207.211 204.165 207.297 205.033C207.295 206.897 207.468 208.758 207.816 210.589C208.541 214.254 210.045 217.718 212.226 220.746C214.47 223.781 217.052 226.548 219.923 228.992C225.457 234.114 231.424 239.062 237.131 244.358C242.839 249.653 248.373 255.209 253.735 261.025C256.435 263.922 258.975 266.965 261.344 270.14C263.714 273.396 265.797 276.852 267.571 280.47C271.067 287.867 273.206 295.836 273.883 303.995C274.588 312.237 274.122 320.538 272.5 328.649C271.647 332.725 270.579 336.753 269.3 340.715C268.037 344.733 266.476 348.65 264.63 352.434H116.844C109.954 341.993 105.736 330.007 104.565 317.537C103.305 305.517 105.059 293.372 109.667 282.206C113.94 271.544 120.597 262.01 129.124 254.341C133.22 250.651 137.683 247.393 142.441 244.618C147.024 241.667 151.694 239.062 156.018 236.198C160.39 233.408 164.424 230.116 168.038 226.388C171.469 222.704 174.013 218.279 175.475 213.454C176.75 208.757 176.957 203.832 176.08 199.043C175.194 194.419 173.651 189.946 171.497 185.762C169.424 181.745 166.931 177.962 164.06 174.477C161.286 171.116 158.281 167.954 155.066 165.014C148.84 159.285 142.441 154.25 136.734 149.042C133.88 146.524 131.113 143.833 128.605 141.229C126.161 138.616 123.907 135.831 121.86 132.895C118.2 127.507 115.372 121.596 113.472 115.36C111.776 109.959 110.816 104.352 110.618 98.6925C110.503 97.4228 110.474 96.1467 110.532 94.873C110.473 93.6861 110.502 92.4964 110.618 91.3138L110.878 87.8415C111.051 86.7129 111.224 85.6712 111.31 84.6295C112.285 78.2319 114.239 72.024 117.104 66.2261C117.492 65.3209 117.955 64.4498 118.487 63.6218L119.525 61.7988L120.39 60.3231L119.525 61.7988L118.487 63.6218C118.003 64.463 117.57 65.3327 117.19 66.2261C114.374 72.0365 112.45 78.2412 111.483 84.6295C111.31 85.6712 111.137 86.7998 111.051 87.8415L110.791 91.3138C110.675 92.4964 110.646 93.6861 110.705 94.873C110.647 96.1467 110.676 97.4228 110.791 98.6925C111.276 110.885 115.205 122.687 122.119 132.722C124.109 135.677 126.336 138.464 128.778 141.055C131.286 143.659 134.053 146.264 136.907 148.868C142.614 153.99 149.013 159.025 155.326 164.841C158.561 167.759 161.568 170.922 164.319 174.303C167.191 177.789 169.684 181.572 171.756 185.588C173.986 189.77 175.533 194.283 176.339 198.957C177.293 203.793 177.115 208.785 175.82 213.541C174.349 218.406 171.774 222.863 168.297 226.562C164.838 230.468 160.601 233.507 156.277 236.458C151.953 239.41 147.197 242.014 142.614 244.878C137.916 247.706 133.488 250.96 129.383 254.601C120.931 262.283 114.31 271.778 110.013 282.38C105.492 293.478 103.741 305.518 104.911 317.451C106.151 329.851 110.364 341.765 117.19 352.174H264.198C266.058 348.426 267.619 344.537 268.868 340.542C270.158 336.619 271.198 332.618 271.981 328.562C273.674 320.491 274.17 312.212 273.451 303.995C272.773 295.92 270.634 288.036 267.138 280.73C265.447 277.086 263.39 273.625 260.998 270.4C258.655 267.204 256.114 264.16 253.389 261.285C248.027 255.469 242.493 249.913 236.785 244.705C231.078 239.496 225.198 234.461 219.577 229.34C216.747 226.788 214.17 223.968 211.881 220.919C209.637 217.885 208.101 214.385 207.384 210.676C207.04 208.844 206.866 206.984 206.865 205.12C206.779 204.165 206.865 203.21 206.865 202.255L207.124 199.564C207.409 195.886 208.195 192.264 209.459 188.8C211.881 181.855 216.377 175.952 221.652 171.178C224.247 168.747 227.014 166.577 229.781 164.407L233.759 161.108C235.023 159.908 236.351 158.778 237.737 157.722L245.952 151.559C248.633 149.476 251.227 147.305 253.648 145.048C256.028 142.775 258.28 140.369 260.393 137.843C262.394 135.264 264.242 132.568 265.928 129.77C269.062 124.265 271.282 118.283 272.5 112.061C273.63 106.026 273.95 99.8652 273.451 93.7445C272.956 87.8722 271.914 82.0596 270.338 76.3827C268.861 70.9479 267.041 65.6129 264.89 60.4099H120.39V60.3231Z" fill="#263238"/>
<path d="M259.182 100.515C280.888 104.161 246.644 142.705 227.273 157.983C216.031 166.751 204.011 176.299 198.65 189.581C192.597 204.599 197.093 221.527 194.153 236.718C193.721 239.236 190.002 238.802 190.002 236.284C190.175 226.301 189.916 216.405 188.273 206.596C185.938 192.706 180.663 178.991 170.978 168.834C163.022 160.5 152.645 155.031 144.257 147.219C131.891 135.933 119.266 121.35 118.055 104.595C118.055 104.595 141.663 85.4976 154.807 87.9282C170.113 90.7061 185.246 114.492 209.027 111.714C225.63 109.804 234.018 96.3486 259.182 100.515Z" fill="#4B0082"/>
<path d="M261.085 307.12C260.566 301.651 259.096 295.488 254.253 292.884C251.313 291.321 247.768 291.495 244.568 292.363C241.368 293.231 238.428 294.707 235.229 295.661C228.921 297.46 222.213 297.248 216.031 295.054C210.151 292.884 205.135 288.89 199.687 285.852C194.24 282.814 187.754 280.47 181.701 281.946C171.237 284.55 165.703 297.311 155.326 300.349C150.743 301.738 145.813 300.957 141.144 299.828C136.474 298.7 131.718 297.398 126.875 297.571C122.033 297.745 119.179 299.047 116.585 301.651H116.498C116.057 302.056 115.679 302.524 115.374 303.04C112.088 307.294 111.569 313.11 112.607 318.405C113.645 323.701 116.412 329.69 119.352 334.899C122.292 340.107 126.789 347.226 132.496 351.306C139.587 356.341 148.494 352.868 157.142 353.563C177.29 355.125 198.996 356.254 219.144 354.691C229.867 353.823 239.812 354.952 248.286 348.441C254.253 343.84 258.145 336.809 259.961 329.517C261.777 322.225 261.863 314.586 261.085 307.12Z" fill="#4B0082"/>
<g opacity="0.24">
<path opacity="0.24" d="M223.036 296.703C221.825 298.439 221.393 300.783 222.517 302.519C223.641 304.256 225.025 305.905 225.544 307.988C226.062 310.072 224.333 314.325 222.949 317.277C220.293 322.555 219.298 328.519 220.096 334.378C220.893 340.267 223.93 345.618 228.57 349.309C230.559 350.959 233.24 352.174 235.748 351.393C238.255 350.611 239.553 348.268 239.985 345.837C240.417 343.406 240.071 340.976 239.812 338.545C238.413 327.28 238.704 315.868 240.677 304.69C240.936 302.78 241.282 300.61 240.071 299.134C239.271 298.248 238.211 297.64 237.045 297.398C232.548 295.922 227.619 297.571 223.036 296.703Z" fill="black"/>
</g>
<path d="M106.208 359.032C106.208 359.032 105.862 352.261 114.682 348.441H269.646C269.646 348.441 277.775 352.521 278.726 358.858L106.208 359.032Z" fill="#FFBF00"/>
<path d="M266.36 61.1911H266.1L120.39 60.2362L119.093 59.3681C118.161 58.6593 117.476 57.6724 117.137 56.5489C116.799 55.4254 116.823 54.2231 117.207 53.1144C117.592 52.0058 118.316 51.0478 119.276 50.3778C120.236 49.7078 121.383 49.3603 122.552 49.3851L264.025 50.6004C269.819 50.6872 271.635 58.6736 266.36 61.1911Z" fill="#FFBF00"/>
<g opacity="0.24">
<path opacity="0.24" d="M243.012 117.009C243.357 117.53 242.233 118.745 240.158 120.655C238.082 122.565 234.969 125.082 231.078 128.207C226.46 132.025 221.576 135.506 216.464 138.624C213.238 140.466 209.852 142.006 206.346 143.225C204.449 143.889 202.514 144.44 200.552 144.875C198.503 145.316 196.42 145.578 194.326 145.656C190.073 145.921 185.81 145.331 181.787 143.92C178.202 142.673 174.799 140.951 171.67 138.798C168.729 136.801 166.222 134.892 163.887 133.069C161.552 131.246 159.39 129.51 157.488 127.86C149.791 121.176 145.813 116.315 146.592 115.36C147.37 114.405 152.818 117.443 161.206 122.652L168.124 126.905L175.993 131.68C178.657 133.286 181.502 134.568 184.468 135.499C187.514 136.454 190.709 136.837 193.894 136.628C200.552 136.281 206.951 133.937 212.572 131.246C218.193 128.555 223.209 125.343 227.532 122.912C230.986 120.855 234.601 119.084 238.342 117.617C241.109 116.662 242.752 116.488 243.012 117.009Z" fill="black"/>
</g>
<path d="M190.175 254.861C190.57 254.765 190.982 254.764 191.377 254.857C191.772 254.95 192.14 255.135 192.452 255.396C192.763 255.658 193.009 255.99 193.169 256.364C193.329 256.739 193.4 257.146 193.375 257.552C193.316 257.993 193.141 258.411 192.869 258.762C192.597 259.113 192.237 259.385 191.826 259.551C191.415 259.718 190.967 259.771 190.528 259.707C190.09 259.643 189.676 259.464 189.329 259.187C188.982 258.91 188.715 258.546 188.553 258.131C188.392 257.717 188.343 257.267 188.412 256.827C188.48 256.388 188.664 255.974 188.943 255.629C189.222 255.284 189.588 255.019 190.002 254.861" fill="#4B0082"/>
<path d="M138.031 141.229L137.512 140.708L136.042 139.145C135.523 138.451 134.745 137.67 133.88 136.628L131.113 133.156C130.248 131.853 129.124 130.465 128.086 128.815L126.53 126.298C126.212 125.884 125.923 125.449 125.665 124.996L124.887 123.607C122.625 119.478 120.827 115.111 119.525 110.585C118.259 106.063 117.591 101.393 117.536 96.6959C117.536 95.5674 117.536 94.5257 117.623 93.484V92.0082C117.723 91.5223 117.781 91.0285 117.796 90.5325C117.863 89.6011 117.979 88.6739 118.142 87.7546C118.315 86.8865 118.401 86.0184 118.574 85.2372C118.747 84.4559 119.266 82.1989 119.525 80.9835L120.044 79.1605C120.217 78.6397 120.303 78.2057 120.476 77.7716C120.649 77.3376 120.995 76.2959 121.168 75.775L121.428 75.0805L121.255 75.775L120.649 77.7716C120.545 78.2745 120.401 78.768 120.217 79.2474C120.044 79.7682 119.958 80.3759 119.785 80.9835C119.422 82.4143 119.133 83.8631 118.92 85.324C118.727 86.1539 118.582 86.9945 118.487 87.8414C118.315 88.7095 118.315 89.6644 118.142 90.6193C117.969 91.5742 118.055 91.5742 118.055 92.0082C117.983 92.5258 117.954 93.0484 117.969 93.5708C117.969 94.5257 117.882 95.5674 117.882 96.6959C118.017 101.364 118.714 105.998 119.958 110.498C121.231 114.966 123.001 119.275 125.233 123.346L126.011 124.735L126.789 126.124C127.37 126.923 127.89 127.765 128.346 128.642L131.372 132.982L134.053 136.454L136.215 139.059L137.598 140.621L138.031 141.229Z" fill="#263238"/>
<path d="M129.816 270.14L129.989 269.879L130.508 269.098C130.755 268.638 131.044 268.202 131.372 267.796L131.891 266.928L132.583 266.06L134.312 263.976C134.918 263.195 135.696 262.501 136.474 261.633C138.341 259.84 140.335 258.186 142.441 256.684C147.024 253.125 152.991 249.653 159.39 245.66C162.752 243.57 165.987 241.28 169.076 238.802C172.394 236.119 175.332 232.994 177.809 229.513C182.278 222.574 184.705 214.51 184.814 206.249C184.968 199.502 183.854 192.787 181.528 186.456C180.007 182.18 178.097 178.053 175.821 174.129L173.918 170.917L173.399 170.136L173.226 169.789L173.399 170.136L174.005 170.917L175.994 174.043C178.338 177.955 180.307 182.083 181.874 186.369C184.197 192.734 185.34 199.471 185.246 206.249C185.228 208.195 185.084 210.138 184.814 212.065C184.506 214.086 184.073 216.087 183.517 218.055C182.395 222.234 180.583 226.196 178.155 229.774C175.649 233.283 172.682 236.436 169.335 239.149C166.202 241.608 162.94 243.898 159.563 246.007C153.164 250 147.197 253.473 142.614 256.858C140.366 258.594 138.377 260.244 136.647 261.806L134.485 264.063L132.756 266.147L131.978 267.015L131.459 267.796L130.594 269.098L129.989 269.879L129.816 270.14Z" fill="#263238"/>
<path d="M121.773 285.505L121.6 285.939L120.995 286.981C120.643 287.569 120.325 288.178 120.044 288.804C119.698 289.498 119.266 290.279 118.92 291.147C118.574 292.016 118.487 292.102 118.228 292.623L117.709 294.186C117.27 295.321 116.895 296.481 116.585 297.658C115.86 300.364 115.34 303.121 115.028 305.905C114.812 308.708 114.812 311.523 115.028 314.325C115.201 315.628 115.288 316.843 115.547 317.971L115.807 319.621C115.893 320.142 116.066 320.662 116.153 321.096C116.321 321.98 116.552 322.85 116.844 323.701C117.017 324.395 117.277 325.09 117.45 325.611C117.623 326.131 117.709 326.479 117.796 326.739C117.877 326.873 117.936 327.02 117.968 327.173L117.796 326.826C117.591 326.435 117.418 326.029 117.277 325.611C117.004 324.99 116.773 324.352 116.585 323.701C116.325 323.006 116.066 322.138 115.807 321.183C115.547 320.228 115.547 320.228 115.461 319.708C115.387 319.15 115.271 318.598 115.115 318.058C114.942 316.93 114.769 315.628 114.596 314.325C114.38 311.523 114.38 308.708 114.596 305.905C114.858 303.085 115.379 300.295 116.153 297.571C116.585 296.269 116.931 295.054 117.363 294.012C117.527 293.477 117.73 292.955 117.968 292.45C118.141 291.929 118.401 291.495 118.574 291.061C118.747 290.627 119.439 289.324 119.784 288.63C120.092 288.029 120.438 287.449 120.822 286.894C121.082 286.567 121.314 286.219 121.514 285.852L121.773 285.505Z" fill="#263238"/>
<path d="M228.657 306.339L228.484 306.512L227.965 306.86L225.89 308.075L224.333 309.03L222.431 309.985C221.133 310.592 219.577 311.461 217.847 312.155L215.08 313.284L211.967 314.325C209.892 315.107 207.557 315.627 205.135 316.322C199.788 317.497 194.348 318.194 188.878 318.405C183.434 318.465 177.996 318.059 172.621 317.19C170.259 316.762 167.921 316.211 165.616 315.541L162.503 314.672L159.736 313.631C158.108 313.108 156.518 312.469 154.98 311.721L152.991 310.853L151.434 310.072L149.273 308.943L148.754 308.596L149.359 308.856L151.521 309.898L153.077 310.679L155.066 311.547C156.45 312.068 158.007 312.849 159.823 313.37L162.59 314.325L165.703 315.193C167.865 315.801 170.2 316.235 172.621 316.756C177.996 317.621 183.435 318.028 188.878 317.971C194.316 317.718 199.724 317.021 205.049 315.888C207.359 315.377 209.64 314.74 211.881 313.978C212.907 313.683 213.917 313.336 214.907 312.936L217.674 311.808C219.281 311.231 220.841 310.535 222.344 309.724L224.246 308.856L225.803 307.988L227.878 306.773L228.484 306.426L228.657 306.339Z" fill="#263238"/>
<path d="M237.737 122.652L237.477 122.825L236.958 123.259L234.71 125.082C232.808 126.558 230.04 128.815 226.495 131.419C222.436 134.583 218.159 137.455 213.697 140.013C211.011 141.459 208.239 142.734 205.395 143.833C202.296 144.933 199.071 145.634 195.796 145.916C189.454 146.324 183.12 145.004 177.463 142.097C174.997 140.86 172.626 139.438 170.373 137.843C168.211 136.367 166.308 134.892 164.579 133.503C161.206 130.812 158.525 128.468 156.623 126.819L154.461 124.996L153.942 124.475L153.769 124.301L153.942 124.475L154.548 124.909L156.709 126.732L164.752 133.329L170.545 137.583C172.833 139.098 175.2 140.489 177.636 141.75C183.271 144.535 189.524 145.82 195.796 145.482C199.015 145.2 202.183 144.5 205.222 143.399C208.06 142.354 210.808 141.076 213.437 139.579C217.92 137.074 222.225 134.26 226.322 131.159L234.624 124.909L236.872 123.259L237.477 122.825L237.737 122.652Z" fill="#263238"/>
<g opacity="0.24">
<path opacity="0.24" d="M159.736 313.631C163.8 310.506 169.594 311.287 174.61 312.329C179.625 313.37 184.814 315.107 189.916 314.412C195.018 313.718 197.353 311.981 201.158 311.113C204.963 310.245 209.546 310.94 211.708 314.238C194.78 319.725 176.531 319.512 159.736 313.631Z" fill="black"/>
</g>
<path d="M302.68 290.106L284.087 269.185L283.915 294.62L289.535 310.94L233.759 320.662L231.424 276.563L227.446 242.621C227.192 240.606 227.616 238.564 228.65 236.818C229.684 235.073 231.269 233.724 233.154 232.985L248.46 226.909L270.078 230.902L278.812 234.201C282.443 235.597 285.678 237.861 288.238 240.798L314.354 270.834" fill="#20D08F"/>
<path d="M282.79 264.15C282.79 264.063 284.001 264.237 285.903 263.976C288.423 263.558 290.767 262.412 292.648 260.678C294.495 258.954 295.789 256.718 296.367 254.254C296.611 253.225 296.784 252.181 296.886 251.129C296.947 251.414 296.976 251.705 296.972 251.997C296.949 252.784 296.862 253.568 296.713 254.34C296.16 256.909 294.831 259.243 292.908 261.025C290.996 262.8 288.575 263.924 285.99 264.237C285.221 264.389 284.433 264.418 283.655 264.323C283.05 264.237 282.79 264.237 282.79 264.15Z" fill="white"/>
<path d="M284.433 293.578C284.52 293.578 284.606 284.724 284.52 273.872C284.433 263.021 284.26 254.167 284.087 254.167C283.914 254.167 283.914 263.021 284.001 273.872C284.087 284.724 284.26 293.578 284.433 293.578Z" fill="#263238"/>
<path d="M282.358 300.002L248.719 286.373C247.383 285.855 246.221 284.969 245.364 283.818C244.507 282.666 243.992 281.295 243.876 279.862L241.455 247.396C241.455 247.396 241.715 233.68 233.154 232.986L228.311 234.895C221.998 238.281 220.442 247.483 221.306 254.601C222.517 264.671 223.036 278.994 224.333 287.762C225.457 294.967 229.608 301.304 236.613 303.127L278.034 312.155L282.358 300.002Z" fill="#20D08F"/>
<path d="M241.887 252.344C241.974 252.344 241.974 252.604 242.06 253.125C242.147 253.646 242.147 254.34 242.233 255.295C242.32 256.25 242.666 259.809 242.925 263.108C243.185 266.407 243.617 270.4 243.963 274.74L244.222 278.126C244.281 279.293 244.425 280.453 244.655 281.598C244.878 282.776 245.487 283.846 246.384 284.637C247.292 285.422 248.312 286.066 249.411 286.546C258.75 290.626 267.311 293.925 273.537 296.269L280.888 298.96L282.877 299.741L283.568 300.002L282.877 299.828L280.801 299.134L273.364 296.616C267.138 294.272 258.577 291.061 249.238 286.98C248.076 286.483 246.997 285.81 246.038 284.984C245.109 284.098 244.475 282.946 244.222 281.685C243.998 280.539 243.854 279.379 243.79 278.213C243.732 276.998 243.646 275.869 243.53 274.827C243.185 270.4 242.925 266.494 242.666 263.108C242.406 259.723 242.233 257.205 242.06 255.295C241.887 253.386 241.974 253.646 241.974 253.125C241.926 252.867 241.897 252.606 241.887 252.344Z" fill="#263238"/>
<path d="M222.603 269.966C222.69 269.966 222.69 270.14 222.69 270.4L222.863 271.702C222.949 272.831 223.036 274.393 223.209 276.303C223.382 278.213 223.641 280.557 223.987 283.074C224.332 285.818 224.823 288.542 225.457 291.234C225.846 292.626 226.398 293.966 227.1 295.227C227.848 296.335 228.719 297.354 229.694 298.266C231.239 299.92 233.052 301.3 235.056 302.346C236.892 303.318 238.881 303.964 240.936 304.255C240.936 304.342 240.763 304.342 240.504 304.255C240.093 304.267 239.684 304.208 239.293 304.082C237.757 303.818 236.27 303.321 234.883 302.606C232.838 301.58 230.97 300.232 229.349 298.613C228.396 297.617 227.528 296.543 226.754 295.401C225.988 294.161 225.405 292.816 225.025 291.408C224.356 288.694 223.864 285.939 223.555 283.161C223.209 280.557 223.036 278.213 222.863 276.303C222.69 274.393 222.69 272.744 222.603 271.702V269.966Z" fill="#263238"/>
<path d="M237.045 292.623C236.958 292.623 237.131 291.929 237.65 290.887C238.342 289.488 239.313 288.247 240.504 287.241C241.66 286.221 243.015 285.453 244.482 284.984C245.097 284.783 245.737 284.666 246.384 284.637L244.568 285.331C243.173 285.843 241.883 286.608 240.763 287.588C239.656 288.575 238.696 289.715 237.909 290.974C237.391 292.015 237.131 292.71 237.045 292.623Z" fill="#263238"/>
<path d="M243.617 268.056H243.876L244.482 268.317C245.255 268.739 246.065 269.087 246.903 269.358C250.65 270.692 254.726 270.78 258.526 269.607C262.326 268.434 265.649 266.064 268.003 262.848C269.747 260.653 270.828 258.002 271.116 255.209C271.279 253.747 271.131 252.268 270.684 250.868C270.178 249.451 269.349 248.173 268.262 247.135C267.169 246.096 265.777 245.427 264.285 245.226C263.58 245.095 262.854 245.128 262.164 245.324C261.475 245.52 260.839 245.872 260.307 246.354C259.825 246.84 259.547 247.492 259.528 248.177C259.546 248.846 259.79 249.489 260.22 250C261.077 251.01 262.281 251.661 263.593 251.823C266.1 252.132 268.643 251.741 270.943 250.695C273.006 249.867 274.822 248.522 276.218 246.788C277.384 245.394 278.239 243.766 278.726 242.014C279.156 240.698 279.361 239.318 279.331 237.934C279.379 237.062 279.321 236.187 279.158 235.329C279.158 235.069 279.072 234.895 279.072 234.722C279.072 234.548 278.985 234.461 279.072 234.461C279.403 235.589 279.578 236.758 279.591 237.934C279.578 239.344 279.374 240.746 278.985 242.1C278.485 243.901 277.633 245.583 276.478 247.049C275.03 248.786 273.193 250.155 271.116 251.042C268.779 252.169 266.156 252.563 263.593 252.17C262.875 252.128 262.174 251.936 261.534 251.608C260.893 251.279 260.328 250.82 259.874 250.26C259.405 249.664 259.133 248.936 259.096 248.177C259.117 247.356 259.458 246.577 260.047 246.007C260.631 245.492 261.323 245.116 262.071 244.905C262.82 244.695 263.606 244.656 264.371 244.792C265.928 245.005 267.38 245.704 268.522 246.788C269.694 247.856 270.585 249.198 271.116 250.695C271.558 252.155 271.705 253.69 271.548 255.209C271.25 258.093 270.141 260.833 268.349 263.108C265.455 267.049 261.141 269.697 256.329 270.487C253.13 271.023 249.846 270.693 246.817 269.532C245.689 269.185 244.613 268.689 243.617 268.056Z" fill="white"/>
<path d="M221.566 259.375L222.171 258.681C222.705 258.082 223.316 257.557 223.987 257.118C226.203 255.611 228.76 254.686 231.424 254.427C232.895 254.265 234.381 254.323 235.834 254.601C236.99 254.911 238.118 255.318 239.207 255.816L241.282 257.118L241.888 257.639C241.888 257.726 240.85 256.945 239.034 256.077C236.675 255.019 234.081 254.6 231.511 254.861C228.897 255.105 226.378 255.968 224.16 257.379C222.517 258.507 221.652 259.462 221.566 259.375Z" fill="white"/>
<path d="M227.014 236.197C227.831 236.961 228.73 237.63 229.694 238.194C230.776 238.747 231.948 239.1 233.153 239.236C234.638 239.424 236.146 239.219 237.526 238.64C238.907 238.061 240.113 237.129 241.023 235.937C241.776 235.004 242.361 233.947 242.752 232.812C243.055 231.707 243.229 230.571 243.271 229.426C243.335 229.741 243.364 230.061 243.358 230.381C243.423 231.229 243.336 232.082 243.098 232.899C242.712 234.089 242.127 235.204 241.369 236.197C240.394 237.421 239.151 238.401 237.737 239.062C236.281 239.637 234.708 239.845 233.153 239.67C231.9 239.519 230.692 239.105 229.608 238.454C228.852 238.061 228.153 237.564 227.533 236.979C227.335 236.735 227.162 236.474 227.014 236.197Z" fill="white"/>
<path d="M256.329 289.498C256.335 289.293 256.364 289.089 256.415 288.89C256.508 288.252 256.713 287.634 257.021 287.067C258.144 285.083 259.916 283.55 262.036 282.727C265.173 281.423 268.674 281.3 271.894 282.38C273.71 282.901 275.786 283.508 277.083 285.244C277.436 285.693 277.655 286.232 277.716 286.8C277.778 287.369 277.678 287.942 277.429 288.456C276.926 289.451 276.104 290.247 275.094 290.713C274.101 291.216 273.006 291.484 271.894 291.495C270.774 291.578 269.664 291.237 268.781 290.54C268.386 290.192 268.066 289.765 267.843 289.287C267.619 288.809 267.497 288.29 267.484 287.762C267.403 286.786 267.551 285.805 267.917 284.897C268.545 283.311 269.48 281.866 270.667 280.644C271.854 279.422 273.271 278.448 274.835 277.779C276.938 276.892 279.217 276.506 281.493 276.65C282.318 276.725 283.131 276.9 283.914 277.171C283.828 277.258 283.05 276.911 281.493 276.824C279.256 276.7 277.025 277.148 275.008 278.126C273.598 278.727 272.308 279.58 271.203 280.644C269.936 281.872 268.935 283.349 268.263 284.984C267.972 285.879 267.854 286.822 267.917 287.762C267.917 288.234 268.026 288.699 268.236 289.121C268.446 289.543 268.751 289.91 269.127 290.193C269.899 290.837 270.894 291.149 271.894 291.061C272.912 291.038 273.914 290.802 274.835 290.366C275.773 289.91 276.555 289.185 277.083 288.283C277.285 287.832 277.359 287.335 277.298 286.845C277.237 286.355 277.043 285.891 276.737 285.505C276.129 284.762 275.36 284.169 274.489 283.769C273.626 283.347 272.729 282.998 271.808 282.727C268.644 281.706 265.228 281.798 262.123 282.987C260.036 283.778 258.271 285.244 257.107 287.154C256.766 287.906 256.505 288.691 256.329 289.498Z" fill="white"/>
<path d="M233.932 301.651C233.932 301.564 235.229 301.478 237.131 300.783C239.675 299.892 241.957 298.377 243.769 296.376C245.581 294.375 246.866 291.951 247.508 289.324C247.941 287.328 247.941 286.026 248.027 286.026C248.088 286.311 248.117 286.602 248.114 286.894C248.055 287.74 247.94 288.581 247.768 289.411C247.206 292.116 245.954 294.629 244.136 296.703C242.247 298.751 239.865 300.276 237.218 301.13L234.797 301.651C234.278 301.738 233.932 301.738 233.932 301.651Z" fill="white"/>
<path d="M223.036 276.477L223.382 276.303L224.592 275.956C226.085 275.552 227.634 275.405 229.176 275.522C230.248 275.617 231.298 275.881 232.289 276.303C233.459 276.766 234.478 277.547 235.229 278.56C236.039 279.727 236.435 281.133 236.353 282.553C236.293 283.294 236.056 284.009 235.661 284.637C235.278 285.319 234.665 285.842 233.932 286.113C233.551 286.24 233.145 286.267 232.751 286.191C232.357 286.115 231.99 285.939 231.683 285.679C231.422 285.401 231.218 285.074 231.085 284.716C230.951 284.358 230.89 283.977 230.905 283.595C230.802 282.19 231.07 280.782 231.683 279.515C232.142 278.451 232.806 277.489 233.637 276.684C234.468 275.88 235.45 275.249 236.526 274.827C238 274.331 239.569 274.183 241.109 274.393C241.525 274.461 241.931 274.578 242.32 274.741L242.752 274.914L241.109 274.567C239.612 274.423 238.102 274.631 236.699 275.175C234.623 276.022 232.951 277.638 232.029 279.689C231.502 280.889 231.265 282.198 231.338 283.508C231.3 284.171 231.517 284.823 231.943 285.331C232.191 285.539 232.488 285.68 232.806 285.741C233.124 285.802 233.452 285.78 233.759 285.679C234.092 285.577 234.402 285.41 234.669 285.186C234.936 284.963 235.156 284.687 235.315 284.376C235.657 283.793 235.864 283.141 235.921 282.467C235.977 281.171 235.613 279.891 234.883 278.821C234.181 277.887 233.26 277.142 232.202 276.65C231.238 276.239 230.218 275.976 229.176 275.869C227.672 275.754 226.16 275.841 224.679 276.13C223.555 276.39 223.036 276.564 223.036 276.477Z" fill="white"/>
<g opacity="0.3">
<path opacity="0.3" d="M272.673 296.182C269.137 294.198 265.5 292.402 261.777 290.8C258.058 289.064 254.34 286.894 251.919 283.595C247.249 277.258 247.768 268.23 243.012 261.98C243.358 266.146 243.617 270.313 243.963 274.48C244.309 278.647 243.617 282.119 246.125 284.724C248.633 287.328 252.178 288.63 255.032 289.498C260.826 291.408 266.965 294.272 272.673 296.182Z" fill="black"/>
</g>
<path d="M331.216 343.754C331.216 343.754 359.321 351.566 360.445 352C361.569 352.434 361.915 358.858 359.234 358.771C358.024 358.685 337.615 359.466 335.021 359.292C332.427 359.119 324.731 356.08 324.731 356.08L331.216 343.754Z" fill="#E12E5E"/>
<path d="M342.89 354.518C343.063 354.605 343.236 353.042 344.188 351.479C345.139 349.917 346.263 349.049 346.176 348.875C345.11 349.375 344.253 350.235 343.755 351.306C343.147 352.263 342.845 353.384 342.89 354.518Z" fill="#263238"/>
<path d="M339.95 353.216C340.123 353.216 340.383 351.914 341.161 350.438C341.939 348.962 342.804 347.92 342.717 347.833C341.823 348.383 341.126 349.204 340.728 350.177C340.212 351.106 339.944 352.152 339.95 353.216Z" fill="#263238"/>
<path d="M337.183 352.434C337.356 352.434 337.269 351.045 337.875 349.483C338.309 348.567 338.83 347.694 339.431 346.878C339.345 346.705 338.134 347.573 337.442 349.309C336.971 350.282 336.878 351.397 337.183 352.434Z" fill="#263238"/>
<path d="M337.702 348.788C337.788 348.875 338.048 348.007 338.048 346.705C338.047 345.939 337.93 345.178 337.702 344.448C337.617 343.978 337.502 343.514 337.356 343.059C337.235 342.817 337.057 342.608 336.837 342.451C336.709 342.329 336.538 342.261 336.362 342.261C336.185 342.261 336.014 342.329 335.886 342.451C335.776 342.55 335.689 342.67 335.629 342.805C335.57 342.939 335.539 343.085 335.54 343.233C335.54 343.493 335.454 343.753 335.454 344.014C335.454 344.274 335.54 344.969 335.626 345.403C335.87 346.144 336.158 346.868 336.491 347.573C336.811 348.203 337.252 348.763 337.788 349.222C337.875 349.222 337.356 348.528 336.837 347.399C336.512 346.731 336.251 346.034 336.059 345.316C335.987 344.886 335.958 344.45 335.972 344.014C335.914 343.591 336.006 343.161 336.232 342.798C336.279 342.756 336.341 342.732 336.405 342.732C336.469 342.732 336.53 342.756 336.578 342.798C336.668 342.857 336.745 342.933 336.805 343.023C336.864 343.112 336.905 343.213 336.924 343.319C337.097 343.667 337.183 344.101 337.356 344.535C337.529 344.969 337.615 346.097 337.702 346.705C337.788 347.313 337.615 348.788 337.702 348.788Z" fill="#263238"/>
<path d="M337.702 348.528C337.115 348.342 336.502 348.254 335.886 348.267C335.213 348.23 334.538 348.318 333.897 348.528L332.687 348.875C332.341 349.136 331.908 349.656 332.081 350.177C332.139 350.431 332.268 350.663 332.451 350.848C332.635 351.032 332.866 351.16 333.119 351.219H334.33C335 351.017 335.64 350.725 336.232 350.351L337.529 349.049C337.443 348.962 336.924 349.396 335.973 350.004C335.457 350.382 334.868 350.648 334.243 350.785H333.205C333.038 350.743 332.886 350.656 332.764 350.534C332.642 350.411 332.555 350.258 332.514 350.09C332.497 349.931 332.53 349.771 332.607 349.632C332.685 349.492 332.803 349.379 332.946 349.309L333.984 348.875L335.886 348.615C336.493 348.62 337.099 348.591 337.702 348.528Z" fill="#263238"/>
<path d="M347.214 354.865C347.387 354.865 347.214 353.65 347.819 352.347C348.195 351.546 348.66 350.789 349.203 350.09C349.117 350.004 347.992 350.611 347.387 352.087C346.975 352.956 346.913 353.951 347.214 354.865Z" fill="#263238"/>
<path d="M327.584 356.167L328.709 356.688L331.822 357.643C335.343 358.412 338.942 358.762 342.545 358.685L353.354 358.337L356.64 358.164L357.851 357.99H353.354L342.545 358.164C338.978 358.284 335.409 357.993 331.908 357.296C329.227 356.775 327.584 356.08 327.584 356.167Z" fill="#263238"/>
<path d="M326.719 356.775C327.474 356.541 328.2 356.22 328.881 355.82C330.526 355.048 332.352 354.748 334.156 354.952C335.972 355.345 337.611 356.32 338.826 357.73C339.319 358.332 339.869 358.884 340.469 359.379L339.085 357.469C338.489 356.85 337.854 356.27 337.183 355.733C336.32 355.086 335.309 354.668 334.243 354.518C332.335 354.261 330.395 354.626 328.708 355.559C327.996 355.877 327.328 356.286 326.719 356.775Z" fill="#263238"/>
<path d="M301.296 335.941L273.71 354.17C272.24 355.299 273.883 360.507 276.391 359.553C277.515 359.119 299.912 352.868 302.334 352C304.755 351.132 311.24 345.75 311.24 345.75L301.296 335.941Z" fill="#E12E5E"/>
<path d="M293.34 349.83C293.513 349.83 292.994 348.268 291.611 346.965C290.78 346.152 289.726 345.608 288.584 345.403C288.498 345.576 289.968 346.097 291.265 347.313C292.035 348.083 292.73 348.926 293.34 349.83Z" fill="#263238"/>
<path d="M295.761 347.66C295.474 346.652 294.904 345.748 294.118 345.056C293.448 344.228 292.543 343.622 291.524 343.319C291.524 343.493 292.648 344.187 293.773 345.316C294.897 346.445 295.675 347.747 295.761 347.66Z" fill="#263238"/>
<path d="M298.183 346.097C298.167 344.995 297.735 343.94 296.972 343.146C296.336 342.28 295.418 341.666 294.378 341.41C295.203 342.017 295.957 342.716 296.626 343.493C297.664 344.795 298.01 346.097 298.183 346.097Z" fill="#263238"/>
<path d="M296.626 342.799C296.379 342.148 296.177 341.481 296.021 340.802C295.808 340.068 295.692 339.309 295.675 338.545V337.243C295.678 337.029 295.738 336.819 295.848 336.635H296.194C296.365 336.773 296.506 336.944 296.61 337.138C296.714 337.332 296.778 337.545 296.799 337.764C296.976 338.144 297.065 338.559 297.059 338.979C297.122 339.732 297.093 340.49 296.972 341.236C296.822 341.924 296.707 342.62 296.626 343.319C296.99 342.708 297.226 342.029 297.318 341.323C297.511 340.558 297.57 339.764 297.491 338.979C297.489 338.504 297.401 338.033 297.232 337.59L296.972 336.896C296.926 336.744 296.848 336.603 296.743 336.483C296.639 336.364 296.511 336.268 296.367 336.201C296.213 336.16 296.051 336.163 295.898 336.209C295.745 336.255 295.608 336.342 295.502 336.462C295.321 336.68 295.228 336.959 295.243 337.243V338.632C295.329 339.423 295.474 340.206 295.675 340.976C295.872 341.639 296.195 342.258 296.626 342.799Z" fill="#263238"/>
<path d="M296.54 342.451C297.128 342.358 297.707 342.213 298.269 342.017C298.886 341.834 299.528 341.746 300.172 341.757H301.296C301.464 341.778 301.618 341.86 301.73 341.988C301.842 342.117 301.902 342.281 301.901 342.451C301.891 342.606 301.847 342.756 301.773 342.891C301.698 343.026 301.594 343.143 301.469 343.233C301.18 343.478 300.809 343.602 300.431 343.58C299.82 343.661 299.199 343.601 298.615 343.406L296.886 342.885C296.799 342.972 297.404 343.319 298.529 343.753C299.165 343.984 299.844 344.073 300.517 344.014C300.945 344.012 301.364 343.891 301.728 343.667C301.931 343.519 302.093 343.322 302.199 343.094C302.305 342.867 302.351 342.615 302.333 342.364C302.317 342.108 302.213 341.865 302.04 341.676C301.867 341.486 301.635 341.362 301.382 341.323H300.172L298.183 341.757C297.599 341.89 297.042 342.125 296.54 342.451Z" fill="#263238"/>
<path d="M279.764 358.598C280.104 358.338 280.348 357.971 280.455 357.556C280.657 356.57 280.471 355.543 279.937 354.691C279.677 354.171 279.331 353.736 279.072 353.302C278.777 352.963 278.459 352.644 278.121 352.348C278.006 352.235 277.871 352.147 277.723 352.087C277.574 352.027 277.416 351.998 277.256 352C277.083 352 276.91 352 276.91 352.087C276.91 352.174 277.429 352.087 277.948 352.608L278.726 353.563L279.504 354.865C279.963 355.652 280.174 356.56 280.11 357.469C280.023 358.164 279.677 358.511 279.764 358.598Z" fill="#263238"/>
<path d="M289.362 351.393C289.389 350.929 289.318 350.466 289.154 350.032C288.99 349.598 288.737 349.204 288.411 348.875C287.373 347.66 286.076 347.313 286.076 347.486C286.791 347.969 287.458 348.522 288.065 349.136C288.93 350.264 289.189 351.479 289.362 351.393Z" fill="#263238"/>
<path d="M308.473 346.705C308.473 346.618 308.041 346.965 307.263 347.486C306.217 348.23 305.119 348.898 303.977 349.483C302.3 350.378 300.567 351.161 298.788 351.827C296.799 352.608 294.464 353.302 292.13 353.997L279.85 357.556L276.132 358.771L274.835 359.205C274.835 359.292 275.267 359.119 276.218 358.945L279.937 357.903L292.216 354.431C294.637 353.736 296.886 353.042 298.961 352.261C300.743 351.568 302.476 350.756 304.15 349.83C305.62 348.962 306.657 348.181 307.436 347.66L308.473 346.705Z" fill="#263238"/>
<path d="M309.424 347.052C308.717 346.717 307.956 346.511 307.176 346.444C305.277 346.062 303.306 346.306 301.555 347.139C300.627 347.643 299.828 348.356 299.22 349.222C298.731 349.91 298.298 350.636 297.923 351.393C297.587 352.108 297.354 352.868 297.232 353.65L298.269 351.566C298.993 349.887 300.236 348.487 301.815 347.573C303.489 346.796 305.351 346.525 307.176 346.792C308.56 346.879 309.424 347.139 309.424 347.052Z" fill="#263238"/>
<path d="M356.64 293.231C356.64 293.231 364.682 296.095 364.682 305.124C364.769 322.312 330.006 341.323 330.006 341.323L283.741 310.593L280.888 309.377C280.888 309.377 343.323 285.852 356.64 293.231Z" fill="#292929"/>
<path d="M307.176 326.131L308.387 325.263L311.586 322.919C314.181 320.836 317.813 317.971 321.704 314.586C325.595 311.2 328.968 308.075 331.389 305.818L334.243 303.04C334.848 302.346 335.281 301.998 335.194 301.912L334.07 302.867L331.13 305.558C328.709 307.815 325.25 310.853 321.358 314.239L311.327 322.659L308.3 325.176L307.176 326.131Z" fill="#455A64"/>
<path d="M343.582 299.655C342.098 299.47 340.592 299.619 339.172 300.089C337.693 300.438 336.326 301.154 335.194 302.172C335.281 302.259 336.924 301.217 339.258 300.523C341.593 299.828 343.582 299.828 343.582 299.655Z" fill="#455A64"/>
<path d="M339.604 296.964C338.521 297.369 337.586 298.096 336.924 299.047C336.105 299.898 335.588 300.996 335.454 302.172C335.977 301.167 336.585 300.209 337.27 299.307C338.394 297.918 339.691 297.05 339.604 296.964Z" fill="#455A64"/>
<path d="M359.234 351.566C359.234 351.479 358.629 351.393 358.024 351.913C357.287 352.628 356.828 353.582 356.726 354.605C356.593 355.602 356.712 356.617 357.072 357.556C357.418 358.25 357.764 358.598 357.851 358.598C357.937 358.598 357.678 358.164 357.418 357.469C357.101 356.58 357.012 355.624 357.159 354.691C357.263 353.755 357.656 352.875 358.283 352.174C358.715 351.653 359.234 351.653 359.234 351.566Z" fill="#263238"/>
<path d="M346.09 265.105L329.573 307.033L258.664 308.162L257.28 304.342L282.185 303.387L294.118 266.233L346.09 265.105Z" fill="#C7B4FF"/>
<path d="M312.884 283.248C313.432 282.965 314.051 282.847 314.664 282.909C315.278 282.97 315.861 283.209 316.343 283.595C316.733 283.984 316.999 284.48 317.106 285.022C317.214 285.563 317.159 286.124 316.948 286.633C316.74 287.141 316.395 287.581 315.952 287.903C315.509 288.225 314.986 288.417 314.44 288.456C313.847 288.479 313.262 288.315 312.766 287.989C312.27 287.662 311.888 287.188 311.673 286.633C311.414 285.505 311.759 283.855 312.884 283.248Z" fill="#EBEBEB"/>
<path d="M334.416 343.406C334.416 343.406 269.041 300.436 266.36 299.481C263.679 298.526 257.194 294.359 250.708 296.182C244.222 298.005 238.515 303.735 235.575 312.242C233.932 317.103 233.154 325.437 232.808 331.6C232.254 339.069 234.645 346.458 239.466 352.174C241.583 354.815 244.401 356.801 247.595 357.903L249.757 358.511C262.123 361.202 274.748 355.646 281.753 344.969L283.223 342.712C283.223 342.712 326.028 358.424 326.72 358.251L334.416 343.406Z" fill="#292929"/>
<path d="M253.562 331.6L253.907 331.774L254.945 332.208L259.096 333.771L274.489 339.587L297.664 348.181C306.484 351.393 316.17 354.865 326.633 358.424H326.806V358.251L331.908 348.441C332.773 346.705 333.724 345.056 334.502 343.493V343.233H334.329L284.52 311.461L269.473 301.999L265.409 299.481L264.371 298.787L264.025 298.613L264.371 298.787L265.409 299.481L269.387 302.172L284.347 311.721L334.07 343.667V343.319L331.476 348.354L326.374 358.077H326.633C316.256 354.518 306.484 351.045 297.75 347.834L274.489 339.413L259.182 333.597L254.945 332.121L253.907 331.687L253.562 331.6Z" fill="#455A64"/>
<path d="M260.307 178.73C261.431 175.779 263.852 174.39 266.965 173.695C268.534 173.31 270.173 173.314 271.74 173.707C273.307 174.101 274.755 174.871 275.959 175.952C277.515 177.428 278.726 179.425 280.715 180.379C282.704 181.334 288.065 179.685 291.092 181.421C291.978 181.985 292.653 182.827 293.013 183.816C293.372 184.805 293.396 185.886 293.081 186.89C292.732 187.888 292.052 188.735 291.154 189.288C290.256 189.842 289.196 190.068 288.152 189.928C290.227 190.97 290.659 194.095 289.189 195.918C287.719 197.741 285.039 198.262 282.79 197.654C280.624 196.838 278.693 195.496 277.169 193.748C275.705 191.931 274.146 190.192 272.5 188.539C270.77 186.977 268.695 185.675 266.36 185.588C264.025 185.501 260.307 187.585 258.664 190.276C257.021 192.967 256.415 196.179 255.896 199.304C255.378 202.429 255.118 205.554 253.908 208.505C253.735 208.853 253.562 209.2 253.216 209.287C252.87 209.374 252.351 208.853 252.092 208.332C249.735 202.752 248.473 196.769 248.373 190.71C248.373 187.237 248.805 183.939 250.967 181.161C253.129 178.383 258.145 176.733 260.307 178.73Z" fill="#263238"/>
<path d="M252.956 192.793L248.114 227.777C247.921 229.196 248.017 230.639 248.395 232.02C248.774 233.4 249.428 234.69 250.317 235.809C251.206 236.929 252.312 237.856 253.569 238.535C254.825 239.213 256.205 239.629 257.626 239.757C260.308 239.98 262.972 239.158 265.066 237.46C267.159 235.763 268.521 233.321 268.868 230.642C269.3 228.037 269.559 225.867 269.646 225.52C269.732 225.173 278.639 225.954 280.455 217.186C281.407 213.02 282.531 204.165 283.482 196.092C283.953 191.942 282.855 187.765 280.405 184.389C277.955 181.013 274.331 178.684 270.251 177.862L269.387 177.688C260.22 176.386 253.994 183.505 252.956 192.793Z" fill="#FFBE9D"/>
<path d="M269.646 225.433C265.588 224.73 261.845 222.79 258.923 219.877C258.923 219.877 260.393 226.735 269.214 227.69L269.646 225.433Z" fill="#EB996E"/>
<path d="M279.764 201.474C279.7 201.805 279.512 202.098 279.238 202.292C278.964 202.487 278.625 202.567 278.294 202.516C278.134 202.494 277.98 202.441 277.841 202.36C277.702 202.278 277.581 202.169 277.484 202.04C277.387 201.911 277.317 201.763 277.278 201.606C277.239 201.45 277.232 201.286 277.256 201.127C277.277 200.966 277.33 200.812 277.411 200.672C277.493 200.533 277.601 200.411 277.73 200.314C277.859 200.217 278.005 200.147 278.162 200.107C278.318 200.068 278.48 200.06 278.64 200.085C278.968 200.128 279.268 200.297 279.477 200.555C279.686 200.813 279.789 201.142 279.764 201.474Z" fill="#263238"/>
<path d="M280.715 199.998C280.542 200.172 279.764 199.304 278.38 199.043C276.996 198.783 275.959 199.217 275.786 199.043C275.613 198.87 275.959 198.696 276.477 198.436C277.14 198.185 277.858 198.125 278.553 198.262C279.239 198.394 279.87 198.726 280.369 199.217C280.715 199.651 280.801 199.998 280.715 199.998Z" fill="#263238"/>
<path d="M266.533 199.304C266.452 199.625 266.259 199.906 265.99 200.097C265.72 200.288 265.391 200.376 265.063 200.345C264.742 200.284 264.454 200.111 264.248 199.857C264.042 199.603 263.933 199.284 263.939 198.957C264.002 198.626 264.19 198.332 264.464 198.138C264.739 197.944 265.077 197.864 265.409 197.915C265.737 197.958 266.037 198.126 266.246 198.385C266.455 198.643 266.558 198.972 266.533 199.304Z" fill="#263238"/>
<path d="M267.484 197.654C267.311 197.741 266.533 196.873 265.149 196.613C263.766 196.352 262.728 196.786 262.555 196.613C262.382 196.439 262.728 196.265 263.247 196.092C263.892 195.778 264.621 195.685 265.323 195.826C266.026 195.967 266.663 196.335 267.138 196.873C267.484 197.22 267.571 197.568 267.484 197.654Z" fill="#263238"/>
<path d="M270.338 208.592C271.088 208.545 271.841 208.574 272.586 208.679C272.932 208.679 273.278 208.679 273.451 208.419C273.5 208.069 273.471 207.713 273.364 207.377C273.191 206.509 273.105 205.554 272.932 204.599C272.24 200.519 271.808 197.307 271.981 197.22C272.154 197.134 272.845 200.432 273.451 204.512C273.624 205.467 273.797 206.422 273.883 207.29C273.977 207.513 274.017 207.754 274.002 207.995C273.987 208.236 273.917 208.47 273.797 208.679C273.71 208.94 273.364 209.026 273.191 209.113H272.586C271.815 209.05 271.058 208.875 270.338 208.592Z" fill="#263238"/>
<path d="M266.187 208.766C266.446 208.766 266.187 210.242 267.225 211.544C268.262 212.846 269.819 212.933 269.819 213.193C269.819 213.454 269.387 213.367 268.695 213.28C267.85 213.099 267.09 212.641 266.533 211.978C266.012 211.314 265.764 210.475 265.841 209.634C265.928 209.026 266.101 208.679 266.187 208.766Z" fill="#263238"/>
<path d="M268.868 192.446C268.695 192.793 267.398 192.359 265.755 192.185C264.112 192.012 262.815 192.272 262.642 191.925C262.469 191.578 262.901 191.404 263.42 191.144C264.187 190.833 265.018 190.713 265.841 190.797C266.673 190.855 267.476 191.123 268.176 191.578C268.695 191.925 268.954 192.272 268.868 192.446Z" fill="#263238"/>
<path d="M280.974 196.005C280.715 196.265 279.85 195.831 278.726 195.571C277.602 195.311 276.651 195.311 276.478 194.963C276.305 194.616 276.651 194.529 277.083 194.356C277.707 194.074 278.408 194.012 279.072 194.182C279.71 194.309 280.288 194.645 280.715 195.137C281.061 195.571 281.147 195.918 280.974 196.005Z" fill="#263238"/>
<path d="M252.351 199.391C252.265 199.304 246.73 196.439 245.692 202.429C244.655 208.419 250.967 208.245 250.967 208.071C250.967 207.898 252.351 199.391 252.351 199.391Z" fill="#FFBE9D"/>
<path d="M249.497 205.467H249.238C249.11 205.515 248.974 205.532 248.838 205.517C248.703 205.502 248.573 205.455 248.46 205.38C248.117 205.067 247.858 204.672 247.707 204.232C247.556 203.793 247.517 203.322 247.595 202.863C247.706 202.338 247.911 201.838 248.2 201.387C248.279 201.211 248.398 201.056 248.549 200.935C248.699 200.814 248.876 200.731 249.065 200.693C249.197 200.7 249.323 200.744 249.431 200.821C249.538 200.898 249.621 201.004 249.67 201.127C249.757 201.3 249.67 201.387 249.67 201.387C249.67 201.387 249.843 201.387 249.843 201.127C249.837 200.966 249.776 200.813 249.67 200.693C249.594 200.607 249.501 200.54 249.396 200.495C249.292 200.45 249.179 200.429 249.065 200.432C248.806 200.415 248.549 200.482 248.331 200.623C248.113 200.763 247.946 200.97 247.854 201.214C247.514 201.669 247.305 202.21 247.249 202.776C247.076 203.991 247.508 205.294 248.287 205.641C248.619 205.776 248.992 205.776 249.324 205.641C249.497 205.641 249.584 205.467 249.497 205.467Z" fill="#EB996E"/>
<path d="M285.644 194.703C283.616 194.785 281.597 194.387 279.749 193.543C277.902 192.699 276.278 191.431 275.008 189.842C273.192 187.671 272.067 184.72 269.56 183.331C267.824 182.521 265.848 182.397 264.025 182.984C262.214 183.638 260.562 184.674 259.183 186.022C259.961 190.797 257.799 195.484 255.724 199.911C255.669 200.174 255.555 200.42 255.39 200.631C255.225 200.842 255.014 201.012 254.772 201.127C253.994 201.561 252.956 200.953 252.524 200.172C251.841 198.864 251.541 197.39 251.659 195.918C251.71 192.581 252.385 189.283 253.648 186.196C254.977 183.116 257.171 180.492 259.961 178.643C263.541 176.478 267.808 175.764 271.894 176.647C275.949 177.626 279.604 179.839 282.358 182.984C283.693 184.378 284.672 186.075 285.212 187.932" fill="#263238"/>
<path d="M410.45 358.424H0.502983C0.225193 358.424 0 358.885 0 359.453V359.623C0 360.191 0.225193 360.652 0.502983 360.652H410.45C410.727 360.652 410.953 360.191 410.953 359.623V359.453C410.953 358.885 410.727 358.424 410.45 358.424Z" fill="#343434"/>
</svg>
